<svg width="1177" height="100" viewBox="0 0 1177 100" xmlns="http://www.w3.org/2000/svg"><title>Financial Times</title><path d="M29.053 81.938c0 4.362.935 7.236 2.815 8.618 1.867 1.373 5.54 2.59 11.02 3.615.047.048.09.08.15.08l.068 2.7H.47v-2.7h.227c5.582-1.332 9.132-2.615 10.656-3.847 1.515-1.22 2.268-4.012 2.268-8.368V19.418c0-4.403-.805-7.29-2.423-8.64C9.57 9.416 6.08 8.227.7 7.192H.632L.476 4.35h75.606l1.462 22.435h-4.538c-.047-.05-.068-.11-.068-.156-1.073-6.148-2.917-10.298-5.53-12.45-2.61-2.142-7.067-3.227-13.367-3.227H36.048c-2.56 0-4.37.473-5.412 1.382-1.047.92-1.576 2.64-1.576 5.147v27.742h18.75c5.784 0 9.678-.874 11.684-2.615 2.003-1.74 3-5.066 3-9.986h4.912v34.873h-4.844c0-5.63-.997-9.5-3-11.58-1.994-2.07-5.912-3.093-11.756-3.093l-18.75.067V81.94h-.003zm52.87 12.233c5.74-1.23 9.37-2.49 10.91-3.744 1.532-1.25 2.308-4.08 2.308-8.485V19.32c0-4.406-.81-7.27-2.422-8.612C91.09 9.38 87.576 8.2 82.15 7.18l-.156-.068-.068-2.762h41.87v2.762h-.164c-3.788.817-6.394 1.514-7.832 2.08-1.444.56-2.668 1.623-3.688 3.18-1.018 1.56-1.533 3.875-1.533 6.952v62.62c0 4.303.852 7.21 2.53 8.69 1.693 1.487 5.152 2.704 10.372 3.62.15-.06.256-.08.303-.08v2.755H81.93v-2.76h-.006zM203.71 19.333c0-4.406-.763-7.226-2.27-8.45-1.514-1.223-5.06-2.488-10.643-3.758l-.238-2.76h33.96v2.76h-.155c-5.627 1.332-9.22 2.63-10.76 3.882-1.534 1.24-2.302 4.032-2.302 8.326V96.95h-4.535l-56.553-72.624-.074 57.642c0 2.39.17 4.264.5 5.623.33 1.366 1.386 2.525 3.15 3.436 1.766.927 2.99 1.468 3.65 1.642.657.18 2.87.694 6.607 1.517l.068.08.156 2.76h-34.873v-2.76h.227c5.588-1.32 9.14-2.62 10.65-3.84 1.514-1.228 2.267-4.05 2.267-8.457V16.503c-3.316-5.13-7.605-8.227-12.828-9.3l-.227-2.84h25.118l49.106 63.53v-48.56zm126.616 61.156V16.47c-3.388-5.114-7.658-8.223-12.83-9.29h-.155V4.423h25.05l49.107 63.538V19.318c0-4.36-.768-7.144-2.273-8.377-1.503-1.225-5.056-2.487-10.636-3.76l-.23-2.756h33.963V7.18h-.155c-5.627 1.34-9.218 2.623-10.76 3.846-1.534 1.224-2.302 4.02-2.302 8.368v77.603h-4.535l-56.542-72.612v57.63c0 2.41.15 4.26.456 5.632.312 1.353 1.356 2.49 3.156 3.365 1.786.917 2.997 1.46 3.615 1.632.612.177 2.81.718 6.606 1.597h.066l.156 2.76h-74v-2.76c.21 0 .303-.034.303-.078 5.236-1.08 8.247-2.49 9.07-4.244.813-1.736.233-5.065-1.776-9.99l-5.142-12.896h-36.026l-6.003 14.28c-1.18 2.823-1.948 4.967-2.307 6.462-.362 1.485.097 2.652 1.382 3.573 1.268.874 2.256 1.415 2.918 1.574.656.162 2.74.586 6.232 1.31h.227l.153 2.746h-30.733V94.23h.156c3.894-.918 6.738-2.415 8.527-4.436 1.785-2.023 4.267-6.468 7.456-13.385l32.336-73.692h5.232c12.344 30.58 22.353 54.706 30.038 72.39 3.436 7.93 6.133 12.857 8.106 14.848 1.962 1.973 5.444 3.123 10.406 3.42.812 0 1.694-.017 2.618-.067 3.635-.42 6.053-1.425 7.262-3.08 1.21-1.62 1.808-4.868 1.808-9.742zm-82.602-20.664h29.738l-14.68-35.027-15.058 35.027zm245.494 17.123c0 .047-.024.138-.068.232-2.618 6.752-7.12 12.094-13.518 15.99-6.41 3.895-13.985 5.84-22.747 5.84-13.63 0-24.56-4.41-32.81-13.225-8.25-8.814-12.37-20.303-12.37-34.506 0-13.52 4.233-25.05 12.713-34.58 8.476-9.532 19.78-14.294 33.926-14.294 4.403 0 9.347.59 14.824 1.765.81.204 2.18.606 4.035 1.192 1.873.582 3.265.888 4.188.888 1.492 0 2.92-.635 4.3-1.924h2.92l1.372 28.124h-4.764c-3.933-15.818-12.592-23.74-25.965-23.74-9.33 0-16.844 3.87-22.56 11.608-5.714 7.735-8.56 17.85-8.56 30.344 0 12.332 3.088 22.182 9.26 29.506 6.17 7.326 13.792 10.985 22.854 10.985 13.674 0 23.103-6.165 28.28-18.512.044-.152.067-.243.067-.29l4.624 4.597zm148.447 16.456c1.182 0 2.006-.027 2.46-.068 4.15-.373 6.904-1.54 8.293-3.553 1.38-1.976 2.085-5.87 2.085-11.673V19.33c0-4.45-.797-7.33-2.385-8.644-1.603-1.306-5.074-2.473-10.456-3.506-.047 0-.103-.02-.15-.067l-.168-2.762h42.106V7.27h-.15c-5.538 1.024-9.124 2.206-10.753 3.533-1.644 1.318-2.46 4.226-2.46 8.688v61.154c0 3.835.52 6.318 1.534 7.477 1.036 1.162 3.483 1.748 7.37 1.748h14.52c6.67 0 11.464-1.403 14.372-4.194 2.924-2.792 5.303-7.97 7.153-15.545h4.756l-4.146 26.873h-113.33v-2.747h.162c5.274-1.138 8.33-2.544 9.192-4.244.838-1.683.232-4.98-1.803-9.894l-5.08-12.918h-36.038l-5.988 14.303c-1.175 2.815-1.963 4.918-2.34 6.4-.388 1.447.106 2.635 1.465 3.515 1.356.917 2.3 1.406 2.84 1.547.54.13 2.637.564 6.257 1.28h.39v2.758h-72.53l-.083-2.838h.16c5.695-1.268 9.28-2.533 10.79-3.753 1.51-1.244 2.266-4.06 2.266-8.465v-62.63c0-4.405-.81-7.27-2.458-8.61-1.642-1.328-5.147-2.507-10.527-3.528-.043-.048-.125-.068-.23-.068V4.35h41.875v2.762c-.156 0-.238.023-.238.067-3.75.773-6.326 1.446-7.762 2.008-1.423.562-2.66 1.624-3.682 3.19-1.02 1.575-1.535 3.878-1.535 6.954v62.633c0 4.656.673 7.676 2.006 9.06 1.33 1.375 4.155 2.154 8.455 2.307.917.044 1.623.044 2.14 0 3.69-.467 6.668-1.79 8.912-3.988 2.26-2.16 4.836-6.444 7.753-12.844l32.43-73.6h5.147l30.04 72.303c3.12 7.75 5.82 12.694 8.07 14.856 2.25 2.16 5.352 3.3 9.293 3.343zm-69.69-33.424h29.743l-14.69-35.045-15.052 35.044zM810.49 82.025c0 4.348.82 7.24 2.483 8.686 1.683 1.435 5.142 2.623 10.41 3.538h.314v2.747h-41.882V94.25c3.376-.774 5.63-1.332 6.685-1.665 1.08-.34 2.297-.93 3.665-1.78 1.344-.89 2.17-1.946 2.447-3.25.27-1.276.428-3.123.428-5.526V10.637h-7.835c-7.782 0-13.04 1.324-15.756 3.965-2.706 2.64-4.503 7.77-5.365 15.406-.047.196-.067.337-.067.38h-4.84l1.68-25.978h80.695l.838 25.98h-4.853v-.473c-.797-7.994-2.597-13.205-5.347-15.623-2.762-2.447-8.214-3.66-16.303-3.66h-7.37v71.39h-.027zm38.644 12.224c5.69-1.332 9.306-2.615 10.85-3.847 1.568-1.22 2.344-4.032 2.344-8.438V19.332c0-4.358-.826-7.214-2.458-8.553-1.64-1.365-5.142-2.554-10.524-3.59-.097 0-.18-.022-.235-.066v-2.76h41.79v2.76c-.053.047-.097.067-.12.067h-.127c-3.768.825-6.394 1.504-7.824 2.042-1.424.536-2.642 1.592-3.642 3.147-1.012 1.56-1.494 3.876-1.494 6.952v62.633c0 4.288.81 7.194 2.494 8.676 1.66 1.486 5.13 2.692 10.397 3.62.162-.06.26-.06.306 0v2.758h-41.778V94.25h.02zm47.777 2.747V94.25c5.537-1.288 9.022-2.544 10.487-3.774 1.477-1.22 2.194-4.085 2.194-8.605l1.995-62.764c0-4.362-.764-7.168-2.332-8.456-1.55-1.27-5.068-2.438-10.56-3.46l-.16-2.755h29.808l27.43 66.16 26.886-66.16h30.206V7.19c-3.99.884-6.715 1.55-8.112 2.042-1.403.494-2.682 1.533-3.832 3.112-1.162 1.585-1.742 3.953-1.742 7.074l2.08 62.7c0 4.253.81 7.02 2.4 8.285 1.638 1.276 5.232 2.582 10.806 3.915v2.7h-41.394v-2.76c5.744-1.32 9.467-2.676 11.18-3.976 1.734-1.308 2.584-4.044 2.584-8.25l-2.006-63.076-31.67 78.06h-3.147l-30.872-75.298-2.017 60.314c0 2.46.14 4.336.398 5.61.24 1.284 1.05 2.358 2.4 3.25 1.356.914 2.55 1.502 3.55 1.755.988.265 3.194.797 6.57 1.62v2.748h-33.135v-.018h.006zm123.57 0V94.32c.252 0 .367-.035.367-.08 5.485-1.228 8.985-2.543 10.488-3.928 1.524-1.38 2.265-4.312 2.265-8.812V19.318c0-4.45-.788-7.336-2.412-8.644-1.614-1.306-5.2-2.498-10.723-3.577V4.424h78.76l1.29 20.98h-4.827c-.917-5.942-2.67-9.854-5.256-11.75-2.59-1.9-7.032-2.842-13.338-2.842h-28.032v33.503l18.135.07c6.45 0 10.868-.767 13.26-2.28 2.384-1.514 3.7-4.9 3.952-10.17l4.852-.3v34.96h-4.786l-.08-.39c-.408-5.734-1.734-9.52-3.99-11.367-2.247-1.835-6.66-2.76-13.23-2.76l-18.11.075v29.965c0 3.22.384 5.376 1.18 6.456.778 1.067 2.495 1.608 5.107 1.608h18.28c9.13 0 15.223-1.253 18.29-3.767 3.062-2.506 5.695-8.168 7.842-16.97l4.814.08-2.598 27.504h-81.497v-.033h-.006zm92.726-27.573h4.618c.047.16.108.302.155.464 1.38 6.75 4.43 12.218 9.15 16.356 4.717 4.138 10.19 6.227 16.435 6.227 5.63 0 10.18-1.326 13.65-3.985 3.447-2.673 5.176-6.214 5.176-10.62 0-2.603-.384-4.877-1.15-6.824-.764-1.946-2.114-3.728-4.025-5.302-1.93-1.59-3.447-2.74-4.574-3.453-1.137-.706-3.102-1.85-5.928-3.382-2.862-1.532-8.136-4.274-15.82-8.224-11.266-5.74-16.907-13.756-16.907-24.048 0-7.323 2.912-13.26 8.74-17.823 5.813-4.557 12.934-6.836 21.375-6.836 5.962 0 11.706 1.026 17.232 3.08 1.64.667 3.19.73 4.642.184 1.476-.538 2.297-1.503 2.505-2.88h2.917l3.003 27.516h-4.832c0-.256-.024-.392-.097-.392-4.238-14.088-12.85-21.1-25.814-21.056-4.744 0-8.577 1.28-11.488 3.848-2.88 2.57-4.327 5.785-4.327 9.682 0 6.256 4.354 11.78 13.063 16.597 1.94 1.08 7.394 3.865 16.356 8.38 13.125 6.552 19.678 15.135 19.678 25.746 0 7.83-3.067 14.255-9.18 19.202-6.11 4.965-14.067 7.456-23.787 7.456-5.99 0-11.626-1.103-16.882-3.297-3.494-1.428-5.99-2.143-7.462-2.143-2.205 0-3.985 1.032-5.376 3.144h-3.062l2.018-27.616z" fill="#000" fill-rule="evenodd"/></svg>