<svg xmlns="http://www.w3.org/2000/svg" xmlns:xlink="http://www.w3.org/1999/xlink" viewBox="0 0 724.23 316.54"><defs><linearGradient id="linear-gradient" x1="549.86" y1="140.32" x2="549.86" gradientUnits="userSpaceOnUse"><stop offset="0.01" stop-color="#97d0c5"/><stop offset="0.5" stop-color="#00aca3"/><stop offset="1" stop-color="#00937b"/></linearGradient><linearGradient id="linear-gradient-2" x1="685.13" y1="140.32" x2="685.13" gradientUnits="userSpaceOnUse"><stop offset="0" stop-color="#8477b4"/><stop offset="0.3" stop-color="#6a5ba3"/><stop offset="1" stop-color="#3e2a72"/></linearGradient><linearGradient id="Turquesa" x1="564.83" y1="180.3" x2="564.83" y2="71" gradientUnits="userSpaceOnUse"><stop offset="0.01" stop-color="#43aecc"/><stop offset="0.5" stop-color="#008eb3"/><stop offset="0.99" stop-color="#00747e"/></linearGradient><linearGradient id="linear-gradient-3" x1="617.06" y1="35.5" x2="663.96" y2="35.5" gradientUnits="userSpaceOnUse"><stop offset="0" stop-color="#985296"/><stop offset="0.52" stop-color="#913489"/><stop offset="1" stop-color="#782181"/></linearGradient><linearGradient id="linear-gradient-4" x1="670.65" y1="180.3" x2="670.65" y2="71" gradientUnits="userSpaceOnUse"><stop offset="0" stop-color="#006eb7"/><stop offset="1" stop-color="#46396a"/></linearGradient><linearGradient id="linear-gradient-5" x1="565.9" y1="35.5" x2="617.06" y2="35.5" gradientUnits="userSpaceOnUse"><stop offset="0.01" stop-color="#00747e"/><stop offset="0.5" stop-color="#008eb3"/><stop offset="0.99" stop-color="#43aecc"/></linearGradient><linearGradient id="linear-gradient-6" x1="616.56" y1="180.3" x2="616.56" y2="45.33" gradientUnits="userSpaceOnUse"><stop offset="0" stop-color="#46396a"/><stop offset="1" stop-color="#312782"/></linearGradient></defs><title>full logo</title><g id="Слой_2" data-name="Слой 2"><g id="MERIDIAN_LOGO_2" data-name="MERIDIAN LOGO 2"><path d="M80.89,164.46h20.3l20.23,83.08,41.21-83.08h19.29l1.62,119.23H162.63l-1-71.33L126.27,283.7H109.18L91,208.8,72,283.7H50.59Z" style="fill:#232129"/><path d="M252.28,257.89l19,9.87a44.18,44.18,0,0,1-17,13.31,55.21,55.21,0,0,1-23.47,4.9q-20.18,0-31.81-11.35t-11.63-30.15q0-21.48,14.55-36.35a47.36,47.36,0,0,1,35.14-14.87,44.39,44.39,0,0,1,22.09,5.43,38.68,38.68,0,0,1,15.28,15.81A46.74,46.74,0,0,1,280.08,237a57.94,57.94,0,0,1-.81,8.92H208.91q.32,9.2,6,14.65T230.72,266A32,32,0,0,0,252.28,257.89ZM257.79,230q-2.43-8.1-8.11-12.28a22.48,22.48,0,0,0-13.7-4.17,25.18,25.18,0,0,0-14.35,4.3A26.73,26.73,0,0,0,211.91,230Z" style="fill:#232129"/><path d="M292,195.51h19.29l-1.54,12q8.67-14.26,20.83-14.27a13.8,13.8,0,0,1,6.08,1.55l-7.92,19.68a12.25,12.25,0,0,0-3.62-.89q-6.33,0-11.3,7.34T306,250.54l-4.28,33.15H280Z" style="fill:#232129"/><path d="M339.76,195.51h21.43L349.31,283.7h-21.6Zm14.86-36.07a13.42,13.42,0,1,1-9.44,3.93A12.88,12.88,0,0,1,354.62,159.44Z" style="fill:#232129"/><path d="M444.42,161.47h21.67L449.14,283.7H427.72l1.29-9.47q-7.06,6.56-13.19,9.15A35,35,0,0,1,402.07,286q-17.53,0-27.88-12.89a46.49,46.49,0,0,1-10.35-30,50,50,0,0,1,6.62-24.84,48.51,48.51,0,0,1,17.78-18.4,45.16,45.16,0,0,1,23.34-6.61A31.08,31.08,0,0,1,426.67,197a30.64,30.64,0,0,1,11.4,10.93ZM407.23,266.67a26.58,26.58,0,0,0,13.92-3.56q5.94-3.56,10-11.17a32.84,32.84,0,0,0,4-15.54q0-10.48-6.07-16.85t-16-6.38a26,26,0,0,0-19.63,8.51q-8.06,8.51-8.06,22,0,10.38,6.11,16.7T407.23,266.67Z" style="fill:#232129"/><path d="M474.2,195.51h21.43L483.75,283.7h-21.6Zm14.86-36.07a13.42,13.42,0,1,1-9.44,3.93A12.88,12.88,0,0,1,489.07,159.44Z" style="fill:#232129"/><path d="M574.21,195.51h21.67L583.59,283.7H562.16l1.29-9.47q-7.06,6.56-13.19,9.15A35,35,0,0,1,536.52,286q-17.53,0-27.88-12.89a46.5,46.5,0,0,1-10.35-30,50,50,0,0,1,6.62-24.84,48.52,48.52,0,0,1,17.78-18.4A45.16,45.16,0,0,1,546,193.24,31.08,31.08,0,0,1,561.11,197a30.63,30.63,0,0,1,11.4,10.93Zm-32.5,71.17a26.66,26.66,0,0,0,13.95-3.56q6-3.56,10-11.17a32.79,32.79,0,0,0,4-15.54q0-10.48-6.08-16.86t-16-6.38a26.08,26.08,0,0,0-19.66,8.51q-8.07,8.51-8.07,22,0,10.38,6.12,16.7T541.71,266.67Z" style="fill:#232129"/><path d="M611.57,195.51h21.59l-1.22,8.95q12.41-11.22,25.81-11.22,11.44,0,18.74,7.26t7.3,18.3a128.13,128.13,0,0,1-1.38,15.5l-6.75,49.4h-21.6l6.59-48.23a94.84,94.84,0,0,0,1-11.19q0-5.35-3-8.23t-8.66-2.88a19.08,19.08,0,0,0-10.9,3.77,24.12,24.12,0,0,0-8.38,10.46q-2.93,6.69-5.37,25.09l-4.15,31.21h-21.6Z" style="fill:#232129"/><polyline points="587.11 71 565.9 0 512.61 140.32" style="fill-rule:evenodd;fill:url(#linear-gradient)"/><polygon points="724.23 140.32 663.96 0 646.02 71 724.23 140.32" style="fill-rule:evenodd;fill:url(#linear-gradient-2)"/><path d="M587.11,71c-37.44,34.18-74.49,69.31-74.49,69.31l104.45,40Z" style="fill-rule:evenodd;fill:url(#Turquesa)"/><polygon points="617.06 45.33 646.02 71 663.96 0 617.06 45.33" style="fill-rule:evenodd;fill:url(#linear-gradient-3)"/><polygon points="646.02 71 724.23 140.32 617.06 180.3 646.02 71" style="fill-rule:evenodd;fill:url(#linear-gradient-4)"/><path d="M565.9,0l51.16,45.33c-9.52,8.78-19.75,16.36-30,25.67Z" style="fill-rule:evenodd;fill:url(#linear-gradient-5)"/><path d="M617.06,45.33,646,71l-29,109.3L587.11,71C597.3,61.69,607.54,54.11,617.06,45.33Z" style="fill-rule:evenodd;fill:url(#linear-gradient-6)"/><path d="M672.17,316.54H89a89,89,0,1,1,0-178H460.17v2H89a87,87,0,0,0,0,174H672.17Z" style="fill:#00a0c2"/></g></g></svg>