<svg clip-rule="evenodd" fill-rule="evenodd" height="27" image-rendering="optimizeQuality" shape-rendering="geometricPrecision" text-rendering="geometricPrecision" viewBox="0 0 33 27" width="33" xmlns="http://www.w3.org/2000/svg"><circle cx="17" cy="14" fill="none" r="8" stroke="#7c66d1" stroke-width="1.00016"/><g fill="#7c66d1"><path d="m33 16c-1 1-1 1-1 0l-2-2c0 5-4 10-9 12-2 1-3 1-4 1-5 0-9-2-12-6 0-1 0-1 1-1h1c3 5 8 7 13 5s9-6 9-11l-2 2v1c-1 0-1-1-1-1s0 0 0-1l3-4h1l3 4z" fill-rule="nonzero"/><path d="m8 12-3 4c-1 0-1 0-1 0l0 0s0 0-1 0l-3-4c0-1 0-1 0-1 1-1 1-1 1 0l2 2c0-5 4-10 9-12 2-1 3-1 5-1 4 0 8 2 11 6v1c-1 0-1 0-1 0-3-5-9-7-14-5s-8 6-8 11l2-2c0-1 0-1 1 0z" fill-rule="nonzero"/><path d="m20 15c0 1-1 2-1 2s-1 0-2 0h-3l0 0v0 0c1 0 1 0 1-1v-5 0c-1-1-1-1-1-1l0 0h3 2v2 1h-1l0 0c0 1 1 1 1 1s1 1 1 1zm-2-3c0-1-1-2-1-2h-1v3l0 0h1c1 0 1-1 1-1zm0 3v-1h-1c-1 0-1 0-1 0v2 1h1 1c0-1 0-1 0-2z" fill-rule="nonzero"/><path d="m15 9h .167917v.784442h-.167917z" stroke="#7c66d1" stroke-width=".944882"/><path d="m17 9h .167917v.784442h-.167917z" stroke="#7c66d1" stroke-width=".944882"/><path d="m15 18h .167917v.784442h-.167917z" stroke="#7c66d1" stroke-width=".944882"/><path d="m17 18h .167917v.784442h-.167917z" stroke="#7c66d1" stroke-width=".944882"/></g></svg>