<svg clip-rule="evenodd" fill-rule="evenodd" height="250" image-rendering="optimizeQuality" shape-rendering="geometricPrecision" text-rendering="geometricPrecision" viewBox="0 0 500 250" width="500" xmlns="http://www.w3.org/2000/svg"><path d="m64 129c2 0 5-3 6-4l2-2 5-5c4-4 25-30 32-21 2 3 1 7 0 9l-8 21c-2 4-4 8-5 12-1 0-1 1-1 2-3 6-5 12-8 18l-2 6c-4 9-8 17-11 26-1 2-1 3-2 5-3 11-7 22-7 34 0 8 4 15 12 18 29 11 82-25 97-50 0-1 1-3 2-4 0-3 0-5-1-6s-2-2-4-2c-1 0-2 1-3 1l-2 2c-7 6-30 37-38 27 0-1-1-2-1-4 2-17 27-73 35-92 4-11 8-25 4-37-2-4-5-7-9-9-5-3-10-4-16-4-32 0-60 22-79 46v1c-1 2-3 5-3 7 1 2 3 5 5 5z" fill="#8f5eaf"/><path d="m131 30c0 11 4 20 16 25 9 3 21 2 29-4 6-4 10-8 13-15 0-1 1-2 1-3 2-8 1-17-5-23 0-1 0-1 0-1-14-14-38-11-49 5-2 3-3 5-4 9-1 2-1 4-1 7z" fill="#8f5eaf"/><path d="m314 129c2 0 5-3 6-4l2-2 5-5c4-4 25-30 32-21 2 3 1 7 0 9l-8 21c-2 4-4 8-5 12-1 0-1 1-1 2-3 6-5 12-8 18l-2 6c-4 9-8 17-11 26-1 2-1 3-2 5-3 11-7 22-7 34 0 8 4 15 12 18 29 11 82-25 97-50 0-1 1-3 2-4 0-3 0-5-1-6s-2-2-4-2c-1 0-2 1-3 1l-2 2c-7 6-30 37-38 27 0-1-1-2-1-4 2-17 27-73 35-92 4-11 8-25 4-37-2-4-5-7-9-9-5-3-10-4-16-4-32 0-60 22-79 46v1c-1 2-3 5-3 7 1 2 3 5 5 5z" fill="#fefefe"/><path d="m381 30c0 11 4 20 16 25 9 3 21 2 29-4 6-4 10-8 13-15 0-1 1-2 1-3 2-8 1-17-5-23 0-1 0-1 0-1-14-14-38-11-49 5-2 3-3 5-4 9-1 2-1 4-1 7z" fill="#fefefe"/></svg>