<svg xmlns="http://www.w3.org/2000/svg" viewBox="0 0 1144.28 48.78"><title>bottom tree</title><g id="Слой_2" data-name="Слой 2"><g id="down_tree" data-name="down tree"><rect x="148.77" y="32.21" width="3.43" height="6.09" style="fill:#7d66d1;stroke:#4f4f4f;stroke-linecap:round;stroke-linejoin:round"/><rect x="144.93" y="7.33" width="3.43" height="3.43" rx="1.29" ry="1.29" style="fill:#fff;stroke:#4f4f4f;stroke-linecap:round;stroke-linejoin:round"/><rect x="148.77" y="0.5" width="3.43" height="3.43" rx="1.29" ry="1.29" style="fill:#fff;stroke:#4f4f4f;stroke-linecap:round;stroke-linejoin:round"/><rect x="152.59" y="4.24" width="3.43" height="3.43" rx="1.29" ry="1.29" style="fill:#fff;stroke:#4f4f4f;stroke-linecap:round;stroke-linejoin:round"/><line x1="146.64" y1="13.67" x2="146.64" y2="10.8" style="fill:none;stroke:#4f4f4f;stroke-linecap:round;stroke-linejoin:round"/><line x1="154.31" y1="10.58" x2="154.31" y2="7.71" style="fill:none;stroke:#4f4f4f;stroke-linecap:round;stroke-linejoin:round"/><line x1="150.49" y1="32.21" x2="150.49" y2="4.24" style="fill:none;stroke:#4f4f4f;stroke-linecap:round;stroke-linejoin:round"/><line x1="150.49" y1="10.91" x2="154.31" y2="10.91" style="fill:none;stroke:#4f4f4f;stroke-linecap:round;stroke-linejoin:round"/><line x1="146.64" y1="13.67" x2="150.27" y2="13.67" style="fill:none;stroke:#4f4f4f;stroke-linecap:round;stroke-linejoin:round"/><rect x="458.94" y="32.63" width="3.43" height="6.09" style="fill:#7d66d1;stroke:#4f4f4f;stroke-linecap:round;stroke-linejoin:round"/><rect x="455.09" y="7.76" width="3.43" height="3.43" rx="1.29" ry="1.29" style="fill:#fff;stroke:#4f4f4f;stroke-linecap:round;stroke-linejoin:round"/><rect x="458.94" y="0.93" width="3.43" height="3.43" rx="1.29" ry="1.29" style="fill:#fff;stroke:#4f4f4f;stroke-linecap:round;stroke-linejoin:round"/><rect x="462.76" y="4.67" width="3.43" height="3.43" rx="1.29" ry="1.29" style="fill:#fff;stroke:#4f4f4f;stroke-linecap:round;stroke-linejoin:round"/><line x1="456.81" y1="14.09" x2="456.81" y2="11.22" style="fill:none;stroke:#4f4f4f;stroke-linecap:round;stroke-linejoin:round"/><line x1="464.47" y1="11.01" x2="464.47" y2="8.14" style="fill:none;stroke:#4f4f4f;stroke-linecap:round;stroke-linejoin:round"/><line x1="460.65" y1="32.63" x2="460.65" y2="4.67" style="fill:none;stroke:#4f4f4f;stroke-linecap:round;stroke-linejoin:round"/><line x1="460.65" y1="11.33" x2="464.47" y2="11.33" style="fill:none;stroke:#4f4f4f;stroke-linecap:round;stroke-linejoin:round"/><line x1="456.81" y1="14.09" x2="460.43" y2="14.09" style="fill:none;stroke:#4f4f4f;stroke-linecap:round;stroke-linejoin:round"/><rect x="650.61" y="32.63" width="3.43" height="6.09" style="fill:#7d66d1;stroke:#4f4f4f;stroke-linecap:round;stroke-linejoin:round"/><rect x="646.76" y="7.76" width="3.43" height="3.43" rx="1.29" ry="1.29" style="fill:#fff;stroke:#4f4f4f;stroke-linecap:round;stroke-linejoin:round"/><rect x="650.61" y="0.93" width="3.43" height="3.43" rx="1.29" ry="1.29" style="fill:#fff;stroke:#4f4f4f;stroke-linecap:round;stroke-linejoin:round"/><rect x="654.42" y="4.67" width="3.43" height="3.43" rx="1.29" ry="1.29" style="fill:#fff;stroke:#4f4f4f;stroke-linecap:round;stroke-linejoin:round"/><line x1="648.48" y1="14.09" x2="648.48" y2="11.22" style="fill:none;stroke:#4f4f4f;stroke-linecap:round;stroke-linejoin:round"/><line x1="656.14" y1="11.01" x2="656.14" y2="8.14" style="fill:none;stroke:#4f4f4f;stroke-linecap:round;stroke-linejoin:round"/><line x1="652.32" y1="32.63" x2="652.32" y2="4.67" style="fill:none;stroke:#4f4f4f;stroke-linecap:round;stroke-linejoin:round"/><line x1="652.32" y1="11.33" x2="656.14" y2="11.33" style="fill:none;stroke:#4f4f4f;stroke-linecap:round;stroke-linejoin:round"/><line x1="648.48" y1="14.09" x2="652.1" y2="14.09" style="fill:none;stroke:#4f4f4f;stroke-linecap:round;stroke-linejoin:round"/><rect x="842.46" y="32.21" width="3.43" height="6.09" style="fill:#7d66d1;stroke:#4f4f4f;stroke-linecap:round;stroke-linejoin:round"/><rect x="838.61" y="7.33" width="3.43" height="3.43" rx="1.29" ry="1.29" style="fill:#fff;stroke:#4f4f4f;stroke-linecap:round;stroke-linejoin:round"/><rect x="842.46" y="0.5" width="3.43" height="3.43" rx="1.29" ry="1.29" style="fill:#fff;stroke:#4f4f4f;stroke-linecap:round;stroke-linejoin:round"/><rect x="846.28" y="4.24" width="3.43" height="3.43" rx="1.29" ry="1.29" style="fill:#fff;stroke:#4f4f4f;stroke-linecap:round;stroke-linejoin:round"/><line x1="840.33" y1="13.67" x2="840.33" y2="10.8" style="fill:none;stroke:#4f4f4f;stroke-linecap:round;stroke-linejoin:round"/><line x1="847.99" y1="10.58" x2="847.99" y2="7.71" style="fill:none;stroke:#4f4f4f;stroke-linecap:round;stroke-linejoin:round"/><line x1="844.17" y1="32.21" x2="844.17" y2="4.24" style="fill:none;stroke:#4f4f4f;stroke-linecap:round;stroke-linejoin:round"/><line x1="844.17" y1="10.91" x2="847.99" y2="10.91" style="fill:none;stroke:#4f4f4f;stroke-linecap:round;stroke-linejoin:round"/><line x1="840.33" y1="13.67" x2="843.95" y2="13.67" style="fill:none;stroke:#4f4f4f;stroke-linecap:round;stroke-linejoin:round"/><rect x="1106.28" y="32.21" width="3.43" height="6.09" style="fill:#7d66d1;stroke:#4f4f4f;stroke-linecap:round;stroke-linejoin:round"/><rect x="1102.43" y="7.33" width="3.43" height="3.43" rx="1.29" ry="1.29" style="fill:#fff;stroke:#4f4f4f;stroke-linecap:round;stroke-linejoin:round"/><rect x="1106.28" y="0.5" width="3.43" height="3.43" rx="1.29" ry="1.29" style="fill:#fff;stroke:#4f4f4f;stroke-linecap:round;stroke-linejoin:round"/><rect x="1110.1" y="4.24" width="3.43" height="3.43" rx="1.29" ry="1.29" style="fill:#fff;stroke:#4f4f4f;stroke-linecap:round;stroke-linejoin:round"/><line x1="1104.15" y1="13.67" x2="1104.15" y2="10.8" style="fill:none;stroke:#4f4f4f;stroke-linecap:round;stroke-linejoin:round"/><line x1="1111.82" y1="10.58" x2="1111.82" y2="7.71" style="fill:none;stroke:#4f4f4f;stroke-linecap:round;stroke-linejoin:round"/><line x1="1108" y1="32.21" x2="1108" y2="4.24" style="fill:none;stroke:#4f4f4f;stroke-linecap:round;stroke-linejoin:round"/><line x1="1108" y1="10.91" x2="1111.82" y2="10.91" style="fill:none;stroke:#4f4f4f;stroke-linecap:round;stroke-linejoin:round"/><line x1="1104.15" y1="13.67" x2="1107.78" y2="13.67" style="fill:none;stroke:#4f4f4f;stroke-linecap:round;stroke-linejoin:round"/><path d="M20.74,36.78A8,8,0,0,0,22.3,20.93v0a7.25,7.25,0,1,0-14.43-1,6.79,6.79,0,0,0,.57,2.76h0a7,7,0,0,0-5.93,7,7.12,7.12,0,0,0,7.12,7.12H20.79" style="fill:#9b8ce5;stroke:#4f4f4f;stroke-linejoin:round"/><rect x="14.95" y="36.78" width="2.58" height="7.17" transform="translate(32.49 80.73) rotate(-180)" style="fill:#fff;stroke:#4f4f4f;stroke-linejoin:round"/><rect x="14.95" y="41.78" width="2.58" height="7.16" transform="translate(61.61 29.12) rotate(90)" style="fill:#fff;stroke:#4f4f4f;stroke-linejoin:round"/><path d="M18.74,36.78A8,8,0,0,0,20.3,20.93v0a7.25,7.25,0,1,0-14.43-1,6.79,6.79,0,0,0,.57,2.76h0a7,7,0,0,0-5.93,7,7.12,7.12,0,0,0,7.12,7.12H18.79" style="fill:#7d66d1;stroke:#4f4f4f;stroke-linecap:round;stroke-linejoin:round"/><rect x="12.95" y="36.78" width="2.58" height="7.17" transform="translate(28.49 80.73) rotate(-180)" style="fill:#fff;stroke:#4f4f4f;stroke-linejoin:round"/><rect x="12.95" y="41.78" width="2.58" height="7.16" transform="translate(59.61 31.12) rotate(90)" style="fill:#fff;stroke:#4f4f4f;stroke-linejoin:round"/><path d="M136.93,35.49a8,8,0,0,0,1.55-15.85v0a7.25,7.25,0,1,0-14.43-1,6.79,6.79,0,0,0,.57,2.76h0a7,7,0,0,0-5.93,7,7.12,7.12,0,0,0,7.12,7.13H137" style="fill:#9b8ce5;stroke:#4f4f4f;stroke-linejoin:round"/><rect x="131.14" y="35.49" width="2.58" height="7.17" transform="translate(264.86 78.15) rotate(-180)" style="fill:#fff;stroke:#4f4f4f;stroke-linejoin:round"/><rect x="131.14" y="40.49" width="2.58" height="7.16" transform="translate(176.5 -88.35) rotate(90)" style="fill:#fff;stroke:#4f4f4f;stroke-linejoin:round"/><path d="M134.93,35.49a8,8,0,0,0,1.55-15.85v0a7.25,7.25,0,1,0-14.43-1,6.79,6.79,0,0,0,.57,2.76h0a7,7,0,0,0-5.93,7,7.12,7.12,0,0,0,7.12,7.13H135" style="fill:#7d66d1;stroke:#4f4f4f;stroke-linecap:round;stroke-linejoin:round"/><rect x="129.14" y="35.49" width="2.58" height="7.17" transform="translate(260.86 78.15) rotate(-180)" style="fill:#fff;stroke:#4f4f4f;stroke-linejoin:round"/><rect x="129.14" y="40.49" width="2.58" height="7.16" transform="translate(174.5 -86.36) rotate(90)" style="fill:#fff;stroke:#4f4f4f;stroke-linejoin:round"/><path d="M254,35.49a8,8,0,0,0,1.55-15.85v0a7.25,7.25,0,1,0-14.43-1,6.79,6.79,0,0,0,.57,2.76h0a7,7,0,0,0-5.93,7,7.12,7.12,0,0,0,7.12,7.13h11.16" style="fill:#9b8ce5;stroke:#4f4f4f;stroke-linejoin:round"/><rect x="248.26" y="35.49" width="2.58" height="7.17" transform="translate(499.1 78.15) rotate(-180)" style="fill:#fff;stroke:#4f4f4f;stroke-linejoin:round"/><rect x="248.26" y="40.49" width="2.58" height="7.16" transform="translate(293.62 -205.47) rotate(90)" style="fill:#fff;stroke:#4f4f4f;stroke-linejoin:round"/><path d="M252,35.49a8,8,0,0,0,1.55-15.85v0a7.25,7.25,0,1,0-14.43-1,6.79,6.79,0,0,0,.57,2.76h0a7,7,0,0,0-5.93,7,7.12,7.12,0,0,0,7.12,7.13h11.16" style="fill:#7d66d1;stroke:#4f4f4f;stroke-linecap:round;stroke-linejoin:round"/><rect x="246.26" y="35.49" width="2.58" height="7.17" transform="translate(495.1 78.15) rotate(-180)" style="fill:#fff;stroke:#4f4f4f;stroke-linejoin:round"/><rect x="246.26" y="40.49" width="2.58" height="7.16" transform="translate(291.62 -203.47) rotate(90)" style="fill:#fff;stroke:#4f4f4f;stroke-linejoin:round"/><path d="M369.37,36.36a8,8,0,0,0,1.55-15.85v0a7.25,7.25,0,1,0-14.43-1,6.79,6.79,0,0,0,.57,2.76h0a7,7,0,0,0-5.93,7,7.12,7.12,0,0,0,7.12,7.13h11.16" style="fill:#9b8ce5;stroke:#4f4f4f;stroke-linejoin:round"/><rect x="363.58" y="36.36" width="2.58" height="7.17" transform="translate(729.74 79.88) rotate(-180)" style="fill:#fff;stroke:#4f4f4f;stroke-linejoin:round"/><rect x="363.58" y="41.36" width="2.58" height="7.16" transform="translate(409.81 -319.93) rotate(90)" style="fill:#fff;stroke:#4f4f4f;stroke-linejoin:round"/><path d="M367.37,36.36a8,8,0,0,0,1.55-15.85v0a7.25,7.25,0,1,0-14.43-1,6.79,6.79,0,0,0,.57,2.76h0a7,7,0,0,0-5.93,7,7.12,7.12,0,0,0,7.12,7.13h11.16" style="fill:#7d66d1;stroke:#4f4f4f;stroke-linecap:round;stroke-linejoin:round"/><rect x="361.58" y="36.36" width="2.58" height="7.17" transform="translate(725.74 79.88) rotate(-180)" style="fill:#fff;stroke:#4f4f4f;stroke-linejoin:round"/><rect x="361.58" y="41.36" width="2.58" height="7.16" transform="translate(407.81 -317.93) rotate(90)" style="fill:#fff;stroke:#4f4f4f;stroke-linejoin:round"/><path d="M500.17,35.64a8,8,0,0,0,1.55-15.85v0a7.25,7.25,0,1,0-14.43-1,6.79,6.79,0,0,0,.57,2.76h0a7,7,0,0,0-5.93,7,7.12,7.12,0,0,0,7.12,7.13h11.16" style="fill:#9b8ce5;stroke:#4f4f4f;stroke-linejoin:round"/><rect x="494.39" y="35.64" width="2.58" height="7.17" transform="translate(991.35 78.45) rotate(-180)" style="fill:#fff;stroke:#4f4f4f;stroke-linejoin:round"/><rect x="494.39" y="40.64" width="2.58" height="7.16" transform="translate(539.9 -451.45) rotate(90)" style="fill:#fff;stroke:#4f4f4f;stroke-linejoin:round"/><path d="M498.17,35.64a8,8,0,0,0,1.55-15.85v0a7.25,7.25,0,1,0-14.43-1,6.79,6.79,0,0,0,.57,2.76h0a7,7,0,0,0-5.93,7,7.12,7.12,0,0,0,7.12,7.13h11.16" style="fill:#7d66d1;stroke:#4f4f4f;stroke-linecap:round;stroke-linejoin:round"/><rect x="492.39" y="35.64" width="2.58" height="7.17" transform="translate(987.36 78.45) rotate(-180)" style="fill:#fff;stroke:#4f4f4f;stroke-linejoin:round"/><rect x="492.39" y="40.64" width="2.58" height="7.16" transform="translate(537.9 -449.45) rotate(90)" style="fill:#fff;stroke:#4f4f4f;stroke-linejoin:round"/><path d="M617.72,35.31a8,8,0,0,0,1.55-15.85v0a7.25,7.25,0,1,0-14.43-1,6.79,6.79,0,0,0,.57,2.76h0a7,7,0,0,0-5.93,7,7.12,7.12,0,0,0,7.12,7.12h11.16" style="fill:#9b8ce5;stroke:#4f4f4f;stroke-linejoin:round"/><rect x="611.94" y="35.31" width="2.58" height="7.17" transform="translate(1226.45 77.79) rotate(-180)" style="fill:#fff;stroke:#4f4f4f;stroke-linejoin:round"/><rect x="611.93" y="40.31" width="2.58" height="7.16" transform="translate(657.12 -569.33) rotate(90)" style="fill:#fff;stroke:#4f4f4f;stroke-linejoin:round"/><path d="M615.72,35.31a8,8,0,0,0,1.55-15.85v0a7.25,7.25,0,1,0-14.43-1,6.79,6.79,0,0,0,.57,2.76h0a7,7,0,0,0-5.93,7,7.12,7.12,0,0,0,7.12,7.12h11.16" style="fill:#7d66d1;stroke:#4f4f4f;stroke-linecap:round;stroke-linejoin:round"/><rect x="609.94" y="35.31" width="2.58" height="7.17" transform="translate(1222.45 77.79) rotate(-180)" style="fill:#fff;stroke:#4f4f4f;stroke-linejoin:round"/><rect x="609.94" y="40.31" width="2.58" height="7.16" transform="translate(655.12 -567.33) rotate(90)" style="fill:#fff;stroke:#4f4f4f;stroke-linejoin:round"/><path d="M739.35,35.31a8,8,0,0,0,1.55-15.85v0a7.25,7.25,0,1,0-14.43-1,6.79,6.79,0,0,0,.57,2.76h0a7,7,0,0,0-5.93,7,7.12,7.12,0,0,0,7.12,7.12h11.16" style="fill:#9b8ce5;stroke:#4f4f4f;stroke-linejoin:round"/><rect x="733.56" y="35.31" width="2.58" height="7.17" transform="translate(1469.7 77.79) rotate(-180)" style="fill:#fff;stroke:#4f4f4f;stroke-linejoin:round"/><rect x="733.56" y="40.31" width="2.58" height="7.16" transform="translate(778.75 -690.95) rotate(90)" style="fill:#fff;stroke:#4f4f4f;stroke-linejoin:round"/><path d="M737.35,35.31a8,8,0,0,0,1.55-15.85v0a7.25,7.25,0,1,0-14.43-1,6.79,6.79,0,0,0,.57,2.76h0a7,7,0,0,0-5.93,7,7.12,7.12,0,0,0,7.12,7.12h11.16" style="fill:#7d66d1;stroke:#4f4f4f;stroke-linecap:round;stroke-linejoin:round"/><rect x="731.56" y="35.31" width="2.58" height="7.17" transform="translate(1465.7 77.79) rotate(-180)" style="fill:#fff;stroke:#4f4f4f;stroke-linejoin:round"/><rect x="731.56" y="40.31" width="2.58" height="7.16" transform="translate(776.75 -688.95) rotate(90)" style="fill:#fff;stroke:#4f4f4f;stroke-linejoin:round"/><path d="M857.3,35.31a8,8,0,0,0,1.55-15.85v0a7.25,7.25,0,1,0-14.43-1A6.79,6.79,0,0,0,845,21.2h0a7,7,0,0,0-5.93,7,7.12,7.12,0,0,0,7.12,7.12h11.16" style="fill:#9b8ce5;stroke:#4f4f4f;stroke-linejoin:round"/><rect x="851.51" y="35.31" width="2.58" height="7.17" transform="translate(1705.6 77.79) rotate(-180)" style="fill:#fff;stroke:#4f4f4f;stroke-linejoin:round"/><rect x="851.51" y="40.31" width="2.58" height="7.16" transform="translate(896.7 -808.9) rotate(90)" style="fill:#fff;stroke:#4f4f4f;stroke-linejoin:round"/><path d="M855.3,35.31a8,8,0,0,0,1.55-15.85v0a7.25,7.25,0,1,0-14.43-1A6.79,6.79,0,0,0,843,21.2h0a7,7,0,0,0-5.93,7,7.12,7.12,0,0,0,7.12,7.12h11.16" style="fill:#7d66d1;stroke:#4f4f4f;stroke-linecap:round;stroke-linejoin:round"/><rect x="849.51" y="35.31" width="2.58" height="7.17" transform="translate(1701.6 77.79) rotate(-180)" style="fill:#fff;stroke:#4f4f4f;stroke-linejoin:round"/><rect x="849.51" y="40.31" width="2.58" height="7.16" transform="translate(894.7 -806.9) rotate(90)" style="fill:#fff;stroke:#4f4f4f;stroke-linejoin:round"/><path d="M965.78,35.5a8,8,0,0,0,1.55-15.85v0a7.25,7.25,0,1,0-14.43-1,6.79,6.79,0,0,0,.57,2.76h0a7,7,0,0,0-5.93,7,7.12,7.12,0,0,0,7.12,7.13h11.16" style="fill:#9b8ce5;stroke:#4f4f4f;stroke-linejoin:round"/><rect x="960" y="35.5" width="2.58" height="7.17" transform="translate(1922.58 78.16) rotate(-180)" style="fill:#fff;stroke:#4f4f4f;stroke-linejoin:round"/><rect x="960" y="40.5" width="2.58" height="7.16" transform="translate(1005.37 -917.21) rotate(90)" style="fill:#fff;stroke:#4f4f4f;stroke-linejoin:round"/><path d="M963.79,35.5a8,8,0,0,0,1.55-15.85v0a7.25,7.25,0,1,0-14.43-1,6.79,6.79,0,0,0,.57,2.76h0a7,7,0,0,0-5.93,7,7.12,7.12,0,0,0,7.12,7.13h11.16" style="fill:#7d66d1;stroke:#4f4f4f;stroke-linecap:round;stroke-linejoin:round"/><rect x="958" y="35.5" width="2.58" height="7.17" transform="translate(1918.58 78.16) rotate(-180)" style="fill:#fff;stroke:#4f4f4f;stroke-linejoin:round"/><rect x="958" y="40.5" width="2.58" height="7.16" transform="translate(1003.37 -915.21) rotate(90)" style="fill:#fff;stroke:#4f4f4f;stroke-linejoin:round"/><path d="M1135.78,38.4a8,8,0,0,0,1.55-15.85v0a7.25,7.25,0,1,0-14.43-1,6.79,6.79,0,0,0,.57,2.76h0a7,7,0,0,0-5.93,7,7.12,7.12,0,0,0,7.12,7.13h11.16" style="fill:#9b8ce5;stroke:#4f4f4f;stroke-linejoin:round"/><rect x="1129.99" y="38.4" width="2.58" height="7.17" transform="translate(2262.56 83.97) rotate(-180)" style="fill:#fff;stroke:#4f4f4f;stroke-linejoin:round"/><rect x="1129.99" y="43.4" width="2.58" height="7.16" transform="translate(1178.27 -1084.3) rotate(90)" style="fill:#fff;stroke:#4f4f4f;stroke-linejoin:round"/><path d="M1133.78,38.4a8,8,0,0,0,1.55-15.85v0a7.25,7.25,0,1,0-14.43-1,6.79,6.79,0,0,0,.57,2.76h0a7,7,0,0,0-5.93,7,7.12,7.12,0,0,0,7.12,7.13h11.16" style="fill:#7d66d1;stroke:#4f4f4f;stroke-linecap:round;stroke-linejoin:round"/><rect x="1127.99" y="38.4" width="2.58" height="7.17" transform="translate(2258.56 83.97) rotate(-180)" style="fill:#fff;stroke:#4f4f4f;stroke-linejoin:round"/><rect x="1127.99" y="43.4" width="2.58" height="7.16" transform="translate(1176.27 -1082.3) rotate(90)" style="fill:#fff;stroke:#4f4f4f;stroke-linejoin:round"/></g></g></svg>