<svg xmlns="http://www.w3.org/2000/svg" viewBox="0 0 721.58 314.22"><title>white logo</title><g id="Слой_2" data-name="Слой 2"><g id="MERIDIAN_LOGO_2" data-name="MERIDIAN LOGO 2"><path d="M565.94.06,516.55,130.12c11.1-10.48,40-37.69,69.06-64.2Z" style="fill:#fff"/><polygon points="664.54 0.05 647.91 65.87 720.42 130.13 664.54 0.05" style="fill:#fff"/><path d="M515.58,135.16,615,173.23,586.52,69.15C554.67,98.26,523.19,128,515.58,135.16Z" style="fill:#fff"/><polygon points="619.48 40.67 626.94 47.28 645.39 63.63 661.43 0.13 619.48 40.67" style="fill:#fff"/><polygon points="619.46 173.27 721.58 135.17 647.06 69.13 627.93 141.31 619.46 173.27" style="fill:#fff"/><path d="M589.25,62.65l1.58-1.39L593,59.42l1.47-1.26,2.41-2,1.16-1,3.46-2.87,3.59-3,1.11-.93,2.48-2.08L610,45.16l2.19-1.9L613.59,42,615,40.73,569.06,0l16.08,53.84,2.94,9.85Z" style="fill:#fff"/><path d="M617.29,42.74c-.53.48-1.06.94-1.59,1.42l-1.44,1.28L612,47.37l-1.33,1.14-2.59,2.18-1,.86-3.67,3-3.63,3-.93.78-2.76,2.32-1.25,1.08-2.46,2.12L591,65.13l-2,1.77,28.23,103,1.2-4.54,26.1-98.49Z" style="fill:#fff"/><path d="M80.89,162.15h20.3l20.23,83.08,41.21-83.08h19.29l1.62,119.23H162.63l-1-71.33-35.39,71.33H109.18L91,206.49,72,281.38H50.59Z" style="fill:#fff"/><path d="M252.28,255.57l19,9.87a44.18,44.18,0,0,1-17,13.31,55.21,55.21,0,0,1-23.47,4.9q-20.18,0-31.81-11.35t-11.63-30.15q0-21.48,14.55-36.35a47.36,47.36,0,0,1,35.14-14.87,44.39,44.39,0,0,1,22.09,5.43,38.68,38.68,0,0,1,15.28,15.81,46.74,46.74,0,0,1,5.59,22.53,57.94,57.94,0,0,1-.81,8.92H208.91q.32,9.2,6,14.65t15.77,5.45A32,32,0,0,0,252.28,255.57Zm5.51-27.85q-2.43-8.1-8.11-12.28a22.48,22.48,0,0,0-13.7-4.17,25.18,25.18,0,0,0-14.35,4.3,26.73,26.73,0,0,0-9.73,12.16Z" style="fill:#fff"/><path d="M292,193.19h19.29l-1.54,12q8.67-14.26,20.83-14.27a13.8,13.8,0,0,1,6.08,1.55l-7.92,19.68a12.25,12.25,0,0,0-3.62-.89q-6.33,0-11.3,7.34T306,248.23l-4.28,33.15H280Z" style="fill:#fff"/><path d="M339.76,193.19h21.43l-11.89,88.19h-21.6Zm14.86-36.07a13.42,13.42,0,1,1-9.44,3.93A12.88,12.88,0,0,1,354.62,157.12Z" style="fill:#fff"/><path d="M444.42,159.15h21.67L449.14,281.38H427.72l1.29-9.47q-7.06,6.56-13.19,9.15a35,35,0,0,1-13.75,2.59q-17.53,0-27.88-12.89a46.49,46.49,0,0,1-10.35-30,50,50,0,0,1,6.62-24.84,48.51,48.51,0,0,1,17.78-18.4,45.16,45.16,0,0,1,23.34-6.61,31.08,31.08,0,0,1,15.08,3.75,30.64,30.64,0,0,1,11.4,10.93ZM407.23,264.36a26.58,26.58,0,0,0,13.92-3.56q5.94-3.56,10-11.17a32.84,32.84,0,0,0,4-15.54q0-10.48-6.07-16.85t-16-6.38a26,26,0,0,0-19.63,8.51q-8.06,8.51-8.06,22,0,10.38,6.11,16.7T407.23,264.36Z" style="fill:#fff"/><path d="M474.2,193.19h21.43l-11.89,88.19h-21.6Zm14.86-36.07a13.42,13.42,0,1,1-9.44,3.93A12.88,12.88,0,0,1,489.07,157.12Z" style="fill:#fff"/><path d="M574.21,193.19h21.67l-12.29,88.19H562.16l1.29-9.47q-7.06,6.56-13.19,9.15a35,35,0,0,1-13.75,2.59q-17.53,0-27.88-12.89a46.5,46.5,0,0,1-10.35-30,50,50,0,0,1,6.62-24.84,48.52,48.52,0,0,1,17.78-18.4A45.16,45.16,0,0,1,546,190.92a31.08,31.08,0,0,1,15.08,3.75,30.63,30.63,0,0,1,11.4,10.93Zm-32.5,71.17a26.66,26.66,0,0,0,13.95-3.56q6-3.56,10-11.17a32.79,32.79,0,0,0,4-15.54q0-10.48-6.08-16.86t-16-6.38a26.08,26.08,0,0,0-19.66,8.51q-8.07,8.51-8.07,22,0,10.38,6.12,16.7T541.71,264.36Z" style="fill:#fff"/><path d="M611.57,193.19h21.59l-1.22,8.95q12.41-11.22,25.81-11.22,11.44,0,18.74,7.26t7.3,18.3a128.13,128.13,0,0,1-1.38,15.5l-6.75,49.4h-21.6l6.59-48.23a94.84,94.84,0,0,0,1-11.19q0-5.35-3-8.23t-8.66-2.88a19.08,19.08,0,0,0-10.9,3.77,24.12,24.12,0,0,0-8.38,10.46q-2.93,6.69-5.37,25.09l-4.15,31.21h-21.6Z" style="fill:#fff"/><path d="M672.17,314.22H89a89,89,0,1,1,0-178H460.17v2H89a87,87,0,0,0,0,174H672.17Z" style="fill:#fff"/></g></g></svg>