<svg xmlns="http://www.w3.org/2000/svg" viewBox="0 0 1200 99.81"><title>1</title><g id="Слой_2" data-name="Слой 2"><g id="Слой_1-2" data-name="Слой 1"><path d="M1154.29,13.51c7.23-3.42,16,2,16.16,6.83l2-.07a7.67,7.67,0,0,1,6.66,5.31,4.8,4.8,0,0,1,6.22,3.46,8,8,0,0,1,8.49-6.3c2.93.25,4,2.16,5.2,4.63l.06,71.4-3,.14H1063.54l-5.37.22a3.84,3.84,0,0,1-.17-5.79,4.45,4.45,0,0,1,1.12-.81c-.14-.12-.29-.24-.42-.38a7.67,7.67,0,0,1,8.25-12.57,4.8,4.8,0,0,1,6.64-2.57,8,8,0,0,1,8.22-12.7,12.16,12.16,0,0,1,19.68-13.52l-.09-.14a5.83,5.83,0,0,1,11-1,4.5,4.5,0,0,1,2.23-6,4.45,4.45,0,0,1,1.34-.35c-.09-.17-.18-.33-.26-.5a7.67,7.67,0,0,1,12.2-8.78,4.8,4.8,0,0,1,7.12,0,8,8,0,0,1,12.22-8.92,12.16,12.16,0,0,1,23.22-5.58h0a12.16,12.16,0,0,0-16.11-6" style="fill:#292830"/><path d="M1058.17,99.63a.5.5,0,0,1-.35-.14,4.35,4.35,0,0,1-.18-6.49,4.48,4.48,0,0,1,.64-.54,8.17,8.17,0,0,1,8.39-13.5,5.3,5.3,0,0,1,5.7-2.86A8.49,8.49,0,0,1,1081,63.66a12.66,12.66,0,0,1,11.84-16.85,12.39,12.39,0,0,1,8.29,3,6.34,6.34,0,0,1,10.32-2.29,5,5,0,0,1,2.92-4.28,4.44,4.44,0,0,1,.79-.27,8.17,8.17,0,0,1,12.67-9.6,5.29,5.29,0,0,1,6.35-.63,8.49,8.49,0,0,1,12.5-8.53,12.61,12.61,0,0,1,7.4-11.15,11.72,11.72,0,0,1,3.73-1.05,12.54,12.54,0,0,1,1.5-.09h0a12.75,12.75,0,0,1,6.31,1.68l.65.37a9.81,9.81,0,0,1,4.46,5.08l.13.28a.5.5,0,0,1,0,.21.49.49,0,0,1,0,.15l0,.14,1.57-.05a8.16,8.16,0,0,1,7,5.2,5.37,5.37,0,0,1,1.67-.12,5.3,5.3,0,0,1,4.17,2.69,8.51,8.51,0,0,1,8.59-5.29c3.14.26,4.35,2.29,5.61,4.91a.49.49,0,0,1,0,.22l.06,71.4a.5.5,0,0,1-.48.5l-3,.14H1063.54l-5.35.22Zm5.89-20.1a7.17,7.17,0,0,0-5,12.28c.13.12.26.24.4.35a.5.5,0,0,1-.09.82,4,4,0,0,0-1,.72,3.3,3.3,0,0,0,0,4.93l5.15-.22h132.59l2.51-.12-.06-70.81c-1.17-2.42-2.16-4-4.74-4.24a7.5,7.5,0,0,0-8,5.91.5.5,0,0,1-.48.4.54.54,0,0,1-.49-.38,4.3,4.3,0,0,0-5.57-3.11.5.5,0,0,1-.64-.32,7.15,7.15,0,0,0-6.22-5l-2,.07h0a.5.5,0,0,1-.5-.48,4,4,0,0,0-.16-.93,11.6,11.6,0,0,0-4.65-5,12.44,12.44,0,0,0-7.22-1.47,11.66,11.66,0,0,0-10.24,12.09.5.5,0,0,1-.79.43,7.49,7.49,0,0,0-11.45,8.36.5.5,0,0,1-.84.49,4.3,4.3,0,0,0-6.38,0,.5.5,0,0,1-.35.17.53.53,0,0,1-.36-.13,7.17,7.17,0,0,0-11.41,8.21c.07.16.15.3.24.45a.51.51,0,0,1,0,.48.5.5,0,0,1-.38.28,3.93,3.93,0,0,0-1.19.31,4,4,0,0,0-2,5.3h0a.5.5,0,1,1-.91.41h0a5.33,5.33,0,0,0-10,.72.5.5,0,0,1-.8.57,11.59,11.59,0,0,0-8.18-3.35h-.1a11.66,11.66,0,0,0-10.6,16.31.5.5,0,0,1-.58.68,7.49,7.49,0,0,0-7.7,11.9.5.5,0,0,1-.61.76,4.3,4.3,0,0,0-5.95,2.3.5.5,0,0,1-.65.28A7.18,7.18,0,0,0,1064.06,79.53Z" style="fill:#1e1e1e"/><polygon points="1138.72 4.33 1166.37 31.67 1110.97 31.61 1135.71 4.36 1138.72 4.33" style="fill:#232129"/><path d="M1166.37,32.17h0l-55.4-.06a.5.5,0,0,1-.37-.84L1135.34,4a.5.5,0,0,1,.37-.16l3,0h0a.5.5,0,0,1,.35.14l27.65,27.34a.5.5,0,0,1-.35.86Zm-54.27-1.06,53,.06L1138.51,4.83l-2.58,0Z" style="fill:#1e1e1e"/><rect x="1115.72" y="31.83" width="45.66" height="51.99" style="fill:#232129"/><path d="M1161.38,84.32h-45.66a.5.5,0,0,1-.5-.5v-52a.5.5,0,0,1,.5-.5h45.66a.5.5,0,0,1,.5.5v52A.5.5,0,0,1,1161.38,84.32Zm-45.16-1h44.66v-51h-44.66Z" style="fill:#1e1e1e"/><rect x="1150.3" y="11.59" width="4" height="10.5" style="fill:#232129"/><path d="M1154.3,22.58h-4a.5.5,0,0,1-.5-.5V11.59a.5.5,0,0,1,.5-.5h4a.5.5,0,0,1,.5.5v10.5A.5.5,0,0,1,1154.3,22.58Zm-3.5-1h3v-9.5h-3Z" style="fill:#1e1e1e"/><rect x="1147.3" y="11.59" width="4" height="10.5" style="fill:#36344c"/><path d="M1151.3,22.58h-4a.5.5,0,0,1-.5-.5V11.59a.5.5,0,0,1,.5-.5h4a.5.5,0,0,1,.5.5v10.5A.5.5,0,0,1,1151.3,22.58Zm-3.5-1h3v-9.5h-3Z" style="fill:#1e1e1e"/><polygon points="1135.72 4.33 1163.37 31.67 1108.07 31.67 1135.72 4.33" style="fill:#2c2a33"/><path d="M1163.37,32.17h-55.3a.5.5,0,0,1-.35-.86L1135.37,4a.5.5,0,0,1,.7,0l27.65,27.34a.5.5,0,0,1-.35.86Zm-54.09-1h52.87L1135.72,5Z" style="fill:#1e1e1e"/><rect x="1112.72" y="31.83" width="45.66" height="51.99" style="fill:#2c2a33"/><path d="M1158.38,84.32h-45.66a.5.5,0,0,1-.5-.5v-52a.5.5,0,0,1,.5-.5h45.66a.5.5,0,0,1,.5.5v52A.5.5,0,0,1,1158.38,84.32Zm-45.16-1h44.66v-51h-44.66Z" style="fill:#1e1e1e"/><rect x="1112.72" y="48.62" width="45.66" height="8.07" style="fill:#232129"/><path d="M1158.38,57.19h-45.66a.5.5,0,0,1-.5-.5V48.62a.5.5,0,0,1,.5-.5h45.66a.5.5,0,0,1,.5.5v8.07A.5.5,0,0,1,1158.38,57.19Zm-45.16-1h44.66V49.12h-44.66Z" style="fill:#1e1e1e"/><rect x="1112.72" y="51.92" width="45.66" height="4.76" style="fill:#36344c"/><path d="M1158.38,57.19h-45.66a.5.5,0,0,1-.5-.5V51.92a.5.5,0,0,1,.5-.5h45.66a.5.5,0,0,1,.5.5v4.76A.5.5,0,0,1,1158.38,57.19Zm-45.16-1h44.66V52.42h-44.66Z" style="fill:#1e1e1e"/><rect x="1123.3" y="37.01" width="7" height="11.6" style="fill:#36344c"/><path d="M1130.29,49.12h-7a.5.5,0,0,1-.5-.5V37a.5.5,0,0,1,.5-.5h7a.5.5,0,0,1,.5.5v11.6A.5.5,0,0,1,1130.29,49.12Zm-6.5-1h6V37.51h-6Z" style="fill:#1e1e1e"/><rect x="1132.46" y="16.85" width="7" height="8.32" style="fill:#36344c"/><path d="M1139.46,25.67h-7a.5.5,0,0,1-.5-.5V16.85a.5.5,0,0,1,.5-.5h7a.5.5,0,0,1,.5.5v8.32A.5.5,0,0,1,1139.46,25.67Zm-6.5-1h6V17.35h-6Z" style="fill:#1e1e1e"/><rect x="1141.79" y="37.01" width="7" height="11.6" style="fill:#36344c"/><path d="M1148.79,49.12h-7a.5.5,0,0,1-.5-.5V37a.5.5,0,0,1,.5-.5h7a.5.5,0,0,1,.5.5v11.6A.5.5,0,0,1,1148.79,49.12Zm-6.5-1h6V37.51h-6Z" style="fill:#1e1e1e"/><rect x="1123.3" y="62.68" width="7" height="11.6" style="fill:#9b8ce5"/><path d="M1130.29,74.78h-7a.5.5,0,0,1-.5-.5V62.68a.5.5,0,0,1,.5-.5h7a.5.5,0,0,1,.5.5v11.6A.5.5,0,0,1,1130.29,74.78Zm-6.5-1h6V63.18h-6Z" style="fill:#3a3a3a"/><rect x="1141.79" y="62.68" width="7" height="11.6" style="fill:#9b8ce5"/><path d="M1148.79,74.78h-7a.5.5,0,0,1-.5-.5V62.68a.5.5,0,0,1,.5-.5h7a.5.5,0,0,1,.5.5v11.6A.5.5,0,0,1,1148.79,74.78Zm-6.5-1h6V63.18h-6Z" style="fill:#3a3a3a"/><path d="M1075,98.2a9.89,9.89,0,0,1,12.47-9.57,6.32,6.32,0,0,1,9.54-1.06,4,4,0,0,1,5.88,0,6.62,6.62,0,0,1,1.95-6.93A8.25,8.25,0,0,1,1116.6,72a10,10,0,0,1,2.27-1.44c4.48-2.12,9.65-.12,12,2.68a10.92,10.92,0,0,1,.85-2.45,3.72,3.72,0,1,1,5.31-5.21,11,11,0,0,1,15.27,12.73,6.61,6.61,0,0,1,4.64,3.61,10.07,10.07,0,0,1,7.75-5.45h-.11a4.82,4.82,0,0,1,6.74-6.11,3.72,3.72,0,0,1-1.49-5,3.68,3.68,0,0,1,.71-.9l-.42-.2a6.34,6.34,0,0,1,3.7-11.87,4,4,0,0,1,4.69-3.55,6.6,6.6,0,0,1,3.65-12,10.05,10.05,0,0,1,12.43-15.3l.14.08a9.09,9.09,0,0,0-5.12-1.26h0A4.13,4.13,0,0,1,1191,14.7a4.09,4.09,0,0,1,1.94-.58,5.5,5.5,0,0,1,6-7.76c-.2-1.9-1.16-3.83.58-4.88l-.26,97.65H1075Z" style="fill:#36344c"/><path d="M1199.24,99.63H1075a.5.5,0,0,1-.36-.15.5.5,0,0,1-.14-.36l0-.91a10.38,10.38,0,0,1,12.76-10.13,6.82,6.82,0,0,1,9.73-1.17,4.46,4.46,0,0,1,5.15-.57,7.11,7.11,0,0,1,2.18-5.89,8.16,8.16,0,0,1-.06-1A8.78,8.78,0,0,1,1113,70.7a8.66,8.66,0,0,1,3.5.74,10.54,10.54,0,0,1,2.14-1.31,11.1,11.1,0,0,1,12,2.14,11.53,11.53,0,0,1,.51-1.35,4.18,4.18,0,0,1-1.06-2.79,4.24,4.24,0,0,1,4.23-4.23,4.17,4.17,0,0,1,2.85,1.12,11.38,11.38,0,0,1,4.5-.92A11.48,11.48,0,0,1,1152.94,78a7.16,7.16,0,0,1,4,3,10.53,10.53,0,0,1,7-4.82,5.29,5.29,0,0,1,.43-4.05,5.34,5.34,0,0,1,5.16-2.75,4.24,4.24,0,0,1-.45-1,4.19,4.19,0,0,1,.34-3.21,3.71,3.71,0,0,1,.33-.51,6.84,6.84,0,0,1,3.66-12.75,4.46,4.46,0,0,1,3.77-3.54,7.1,7.1,0,0,1,4.06-11.85A10.54,10.54,0,0,1,1188.85,20a4.63,4.63,0,0,1,1.89-5.7,4.42,4.42,0,0,1,1.49-.57,6,6,0,0,1,6.1-7.92c0-.21-.08-.42-.12-.63-.28-1.46-.61-3.11,1-4.1a.5.5,0,0,1,.76.43l-.26,97.65A.5.5,0,0,1,1199.24,99.63Zm-123.76-1h123.26L1199,6.85h-.16a5,5,0,0,0-5.44,7.05.5.5,0,0,1-.43.71,3.62,3.62,0,0,0-3.06,5.24h.09a9.42,9.42,0,0,1,5.06,1.35.5.5,0,0,1-.53.85l-.13-.07a9.55,9.55,0,0,0-11.81,14.54.5.5,0,0,1-.37.82,6.1,6.1,0,0,0-3.37,11.05.5.5,0,0,1-.38.9,3.47,3.47,0,0,0-4.1,3.11.5.5,0,0,1-.55.45,5.84,5.84,0,0,0-3.41,10.93l.34.17a.55.55,0,0,1,.31.38.51.51,0,0,1-.12.46,3.2,3.2,0,0,0,.67,5.14.5.5,0,0,1-.48.88h0a4.32,4.32,0,0,0-6.12,5.27.5.5,0,0,1-.21.92,9.54,9.54,0,0,0-7.36,5.18.49.49,0,0,1-.45.27.5.5,0,0,1-.45-.28,6.14,6.14,0,0,0-4.29-3.34.5.5,0,0,1-.38-.61,10.49,10.49,0,0,0-10.18-13.12,10.4,10.4,0,0,0-4.4,1,.5.5,0,0,1-.58-.12,3.2,3.2,0,0,0-2.37-1.05,3.23,3.23,0,0,0-3.23,3.23,3.2,3.2,0,0,0,1,2.33.5.5,0,0,1,.11.58,10.56,10.56,0,0,0-.81,2.34.5.5,0,0,1-.87.22A10,10,0,0,0,1119.08,71a9.55,9.55,0,0,0-2.17,1.37.5.5,0,0,1-.54.07,7.7,7.7,0,0,0-3.36-.77,7.71,7.71,0,0,0-7.68,8.85.5.5,0,0,1-.17.45,6.11,6.11,0,0,0-1.8,6.4.5.5,0,0,1-.84.49,3.47,3.47,0,0,0-5.15,0,.5.5,0,0,1-.35.17.51.51,0,0,1-.36-.13,5.82,5.82,0,0,0-8.79,1,.51.51,0,0,1-.54.2,9.38,9.38,0,0,0-11.84,9.09v.42Zm-.49-.42h0ZM1199,3a3.13,3.13,0,0,0,0,.68Z" style="fill:#1e1e1e"/><path d="M1075,99.12" style="fill:#9b8ce5;stroke:#3a3a3a;stroke-linecap:round;stroke-linejoin:round"/><rect x="952.79" y="46.61" width="111.73" height="52.69" style="fill:#2c2a33"/><path d="M1064.52,99.8H952.79a.5.5,0,0,1-.5-.5V46.61a.5.5,0,0,1,.5-.5h111.73a.5.5,0,0,1,.5.5V99.3A.5.5,0,0,1,1064.52,99.8Zm-111.23-1H1064V47.11H953.29Z" style="fill:#1e1e1e"/><polygon points="1062.52 24.14 960.79 24.14 950.79 46.61 1072.52 46.61 1062.52 24.14" style="fill:#232129"/><path d="M1072.52,47.11H950.79a.5.5,0,0,1-.46-.7l10-22.47a.5.5,0,0,1,.46-.3h101.73a.5.5,0,0,1,.46.3l10,22.47a.5.5,0,0,1-.46.7Zm-121-1h120.19l-9.55-21.47H961.12Z" style="fill:#1e1e1e"/><polygon points="1059.52 24.14 957.79 24.14 947.79 46.61 1069.52 46.61 1059.52 24.14" style="fill:#2c2a33"/><path d="M1069.52,47.11H947.79a.5.5,0,0,1-.46-.7l10-22.47a.5.5,0,0,1,.46-.3h101.73a.5.5,0,0,1,.46.3l10,22.47a.5.5,0,0,1-.46.7Zm-121-1h120.19l-9.55-21.47H958.12Z" style="fill:#1e1e1e"/><path d="M1017.68,33a7.74,7.74,0,0,0-14.18,0h-5.4V99.3h24.72V33Z" style="fill:#232129"/><path d="M1022.83,99.8H998.11a.5.5,0,0,1-.5-.5V33a.5.5,0,0,1,.5-.5h5.08a8.24,8.24,0,0,1,14.81,0h4.83a.5.5,0,0,1,.5.5V99.3A.5.5,0,0,1,1022.83,99.8Zm-24.22-1h23.72V33.49h-4.65a.5.5,0,0,1-.46-.3,7.24,7.24,0,0,0-13.26,0,.5.5,0,0,1-.46.3h-4.9Z" style="fill:#1e1e1e"/><path d="M1015.68,33a7.74,7.74,0,0,0-14.18,0h-5.4V99.3h24.72V33Z" style="fill:#2c2a33"/><path d="M1020.83,99.8H996.11a.5.5,0,0,1-.5-.5V33a.5.5,0,0,1,.5-.5h5.08a8.24,8.24,0,0,1,14.81,0h4.83a.5.5,0,0,1,.5.5V99.3A.5.5,0,0,1,1020.83,99.8Zm-24.22-1h23.72V33.49h-4.65a.5.5,0,0,1-.46-.3,7.24,7.24,0,0,0-13.26,0,.5.5,0,0,1-.46.3h-4.9Z" style="fill:#1e1e1e"/><line x1="1001.44" y1="32.99" x2="1001.44" y2="99.3" style="fill:#2c2a33"/><path d="M1001.44,99.8a.5.5,0,0,1-.5-.5V33a.5.5,0,1,1,1,0V99.3A.5.5,0,0,1,1001.44,99.8Z" style="fill:#1e1e1e"/><line x1="1016.03" y1="33.11" x2="1016.03" y2="99.3" style="fill:#2c2a33"/><path d="M1016,99.8a.5.5,0,0,1-.5-.5V33.11a.5.5,0,1,1,1,0V99.3A.5.5,0,0,1,1016,99.8Z" style="fill:#1e1e1e"/><circle cx="1008.47" cy="39.11" r="3.62" style="fill:#36344c"/><path d="M1008.47,43.24a4.12,4.12,0,1,1,4.13-4.12A4.13,4.13,0,0,1,1008.47,43.24Zm0-7.25a3.12,3.12,0,1,0,3.13,3.13A3.13,3.13,0,0,0,1008.47,36Z" style="fill:#1e1e1e"/><rect x="1005.78" y="53.48" width="5.62" height="10" style="fill:#36344c"/><path d="M1011.41,64h-5.62a.5.5,0,0,1-.5-.5v-10a.5.5,0,0,1,.5-.5h5.62a.5.5,0,0,1,.5.5v10A.5.5,0,0,1,1011.41,64Zm-5.12-1h4.62V54h-4.62Z" style="fill:#1e1e1e"/><rect x="1005.78" y="75.48" width="5.62" height="10" style="fill:#9b8ce5"/><path d="M1011.41,86h-5.62a.5.5,0,0,1-.5-.5v-10a.5.5,0,0,1,.5-.5h5.62a.5.5,0,0,1,.5.5v10A.5.5,0,0,1,1011.41,86Zm-5.12-1h4.62V76h-4.62Z" style="fill:#3a3a3a"/><path d="M983.06,33a7.74,7.74,0,0,0-14.18,0h-5.4V99.3h24.72V33Z" style="fill:#232129"/><path d="M988.21,99.8H963.49a.5.5,0,0,1-.5-.5V33a.5.5,0,0,1,.5-.5h5.08a8.24,8.24,0,0,1,14.81,0h4.83a.5.5,0,0,1,.5.5V99.3A.5.5,0,0,1,988.21,99.8ZM964,98.8h23.72V33.49h-4.65a.5.5,0,0,1-.46-.3,7.24,7.24,0,0,0-13.26,0,.5.5,0,0,1-.46.3H964Z" style="fill:#1e1e1e"/><path d="M981.06,33a7.74,7.74,0,0,0-14.18,0h-5.4V99.3h24.72V33Z" style="fill:#2c2a33"/><path d="M986.21,99.8H961.49a.5.5,0,0,1-.5-.5V33a.5.5,0,0,1,.5-.5h5.08a8.24,8.24,0,0,1,14.81,0h4.83a.5.5,0,0,1,.5.5V99.3A.5.5,0,0,1,986.21,99.8ZM962,98.8h23.72V33.49h-4.65a.5.5,0,0,1-.46-.3,7.24,7.24,0,0,0-13.26,0,.5.5,0,0,1-.46.3H962Z" style="fill:#1e1e1e"/><line x1="966.83" y1="32.99" x2="966.83" y2="99.3" style="fill:#2c2a33"/><path d="M966.83,99.8a.5.5,0,0,1-.5-.5V33a.5.5,0,0,1,1,0V99.3A.5.5,0,0,1,966.83,99.8Z" style="fill:#1e1e1e"/><line x1="981.41" y1="33.11" x2="981.41" y2="99.3" style="fill:#2c2a33"/><path d="M981.41,99.8a.5.5,0,0,1-.5-.5V33.11a.5.5,0,0,1,1,0V99.3A.5.5,0,0,1,981.41,99.8Z" style="fill:#1e1e1e"/><circle cx="973.85" cy="39.11" r="3.62" style="fill:#36344c"/><path d="M973.85,43.24A4.12,4.12,0,1,1,978,39.11,4.13,4.13,0,0,1,973.85,43.24Zm0-7.25A3.12,3.12,0,1,0,977,39.11,3.13,3.13,0,0,0,973.85,36Z" style="fill:#1e1e1e"/><rect x="971.16" y="53.48" width="5.62" height="10" style="fill:#36344c"/><path d="M976.79,64h-5.62a.5.5,0,0,1-.5-.5v-10a.5.5,0,0,1,.5-.5h5.62a.5.5,0,0,1,.5.5v10A.5.5,0,0,1,976.79,64Zm-5.12-1h4.62V54h-4.62Z" style="fill:#1e1e1e"/><rect x="971.16" y="75.48" width="5.62" height="10" style="fill:#9b8ce5"/><path d="M976.79,86h-5.62a.5.5,0,0,1-.5-.5v-10a.5.5,0,0,1,.5-.5h5.62a.5.5,0,0,1,.5.5v10A.5.5,0,0,1,976.79,86Zm-5.12-1h4.62V76h-4.62Z" style="fill:#3a3a3a"/><path d="M1051.3,33a7.74,7.74,0,0,0-14.18,0h-5.4V99.3h24.72V33Z" style="fill:#232129"/><path d="M1056.45,99.8h-24.72a.5.5,0,0,1-.5-.5V33a.5.5,0,0,1,.5-.5h5.08a8.24,8.24,0,0,1,14.81,0h4.83a.5.5,0,0,1,.5.5V99.3A.5.5,0,0,1,1056.45,99.8Zm-24.22-1H1056V33.49h-4.65a.5.5,0,0,1-.46-.3,7.24,7.24,0,0,0-13.26,0,.5.5,0,0,1-.46.3h-4.9Z" style="fill:#1e1e1e"/><path d="M1049.3,33a7.74,7.74,0,0,0-14.18,0h-5.4V99.3h24.72V33Z" style="fill:#2c2a33"/><path d="M1054.45,99.8h-24.72a.5.5,0,0,1-.5-.5V33a.5.5,0,0,1,.5-.5h5.08a8.24,8.24,0,0,1,14.81,0h4.83a.5.5,0,0,1,.5.5V99.3A.5.5,0,0,1,1054.45,99.8Zm-24.22-1H1054V33.49h-4.65a.5.5,0,0,1-.46-.3,7.24,7.24,0,0,0-13.26,0,.5.5,0,0,1-.46.3h-4.9Z" style="fill:#1e1e1e"/><line x1="1035.06" y1="32.99" x2="1035.06" y2="99.3" style="fill:#2c2a33"/><path d="M1035.06,99.8a.5.5,0,0,1-.5-.5V33a.5.5,0,1,1,1,0V99.3A.5.5,0,0,1,1035.06,99.8Z" style="fill:#1e1e1e"/><line x1="1049.65" y1="33.11" x2="1049.65" y2="99.3" style="fill:#2c2a33"/><path d="M1049.65,99.8a.5.5,0,0,1-.5-.5V33.11a.5.5,0,1,1,1,0V99.3A.5.5,0,0,1,1049.65,99.8Z" style="fill:#1e1e1e"/><circle cx="1042.09" cy="39.11" r="3.62" style="fill:#36344c"/><path d="M1042.09,43.24a4.12,4.12,0,1,1,4.13-4.12A4.13,4.13,0,0,1,1042.09,43.24Zm0-7.25a3.12,3.12,0,1,0,3.13,3.13A3.13,3.13,0,0,0,1042.09,36Z" style="fill:#1e1e1e"/><rect x="1039.4" y="53.48" width="5.62" height="10" style="fill:#9b8ce5"/><path d="M1045,64h-5.62a.5.5,0,0,1-.5-.5v-10a.5.5,0,0,1,.5-.5H1045a.5.5,0,0,1,.5.5v10A.5.5,0,0,1,1045,64Zm-5.12-1h4.62V54h-4.62Z" style="fill:#3a3a3a"/><rect x="1039.4" y="75.48" width="5.62" height="10" style="fill:#acdcee"/><path d="M1045,86h-5.62a.5.5,0,0,1-.5-.5v-10a.5.5,0,0,1,.5-.5H1045a.5.5,0,0,1,.5.5v10A.5.5,0,0,1,1045,86Zm-5.12-1h4.62V76h-4.62Z" style="fill:#3a3a3a"/><polygon points="179.71 36.17 207.36 63.51 151.97 63.45 176.7 36.2 179.71 36.17" style="fill:#232129"/><path d="M207.36,64h0L152,64a.5.5,0,0,1-.37-.84l24.73-27.25a.5.5,0,0,1,.37-.16l3,0h0a.5.5,0,0,1,.35.14l27.65,27.34a.5.5,0,0,1-.35.86ZM153.1,63l53,.06L179.51,36.68l-2.58,0Z" style="fill:#1e1e1e"/><rect x="156.72" y="63.67" width="45.66" height="35.47" style="fill:#232129"/><path d="M202.38,99.65H156.72a.5.5,0,0,1-.5-.5V63.67a.5.5,0,0,1,.5-.5h45.66a.5.5,0,0,1,.5.5V99.15A.5.5,0,0,1,202.38,99.65Zm-45.16-1h44.66V64.17H157.22Z" style="fill:#1e1e1e"/><rect x="191.29" y="43.43" width="4" height="10.5" style="fill:#232129"/><path d="M195.29,54.43h-4a.5.5,0,0,1-.5-.5V43.43a.5.5,0,0,1,.5-.5h4a.5.5,0,0,1,.5.5v10.5A.5.5,0,0,1,195.29,54.43Zm-3.5-1h3v-9.5h-3Z" style="fill:#1e1e1e"/><rect x="188.29" y="43.43" width="4" height="10.5" style="fill:#36344c"/><path d="M192.29,54.43h-4a.5.5,0,0,1-.5-.5V43.43a.5.5,0,0,1,.5-.5h4a.5.5,0,0,1,.5.5v10.5A.5.5,0,0,1,192.29,54.43Zm-3.5-1h3v-9.5h-3Z" style="fill:#1e1e1e"/><polygon points="176.71 36.17 204.36 63.51 149.06 63.51 176.71 36.17" style="fill:#2c2a33"/><path d="M204.36,64h-55.3a.5.5,0,0,1-.35-.86l27.65-27.34a.5.5,0,0,1,.7,0l27.65,27.34a.5.5,0,0,1-.35.86Zm-54.09-1h52.87L176.71,36.88Z" style="fill:#1e1e1e"/><rect x="153.72" y="63.67" width="45.66" height="35.47" style="fill:#2c2a33"/><path d="M199.38,99.65H153.72a.5.5,0,0,1-.5-.5V63.67a.5.5,0,0,1,.5-.5h45.66a.5.5,0,0,1,.5.5V99.15A.5.5,0,0,1,199.38,99.65Zm-45.16-1h44.66V64.17H154.22Z" style="fill:#1e1e1e"/><rect x="153.72" y="80.46" width="45.66" height="8.07" style="fill:#fff"/><path d="M199.38,89H153.72a.5.5,0,0,1-.5-.5V80.46a.5.5,0,0,1,.5-.5h45.66a.5.5,0,0,1,.5.5v8.07A.5.5,0,0,1,199.38,89Zm-45.16-1h44.66V81H154.22Z" style="fill:#1e1e1e"/><rect x="153.72" y="83.77" width="45.66" height="4.76" style="fill:#9b8ce5"/><path d="M199.38,89H153.72a.5.5,0,0,1-.5-.5V83.77a.5.5,0,0,1,.5-.5h45.66a.5.5,0,0,1,.5.5v4.76A.5.5,0,0,1,199.38,89Zm-45.16-1h44.66V84.27H154.22Z" style="fill:#1e1e1e"/><rect x="164.29" y="68.86" width="7" height="11.6" style="fill:#9b8ce5"/><path d="M171.29,81h-7a.5.5,0,0,1-.5-.5V68.86a.5.5,0,0,1,.5-.5h7a.5.5,0,0,1,.5.5v11.6A.5.5,0,0,1,171.29,81Zm-6.5-1h6V69.36h-6Z" style="fill:#1e1e1e"/><rect x="173.46" y="48.69" width="7" height="8.32" style="fill:#36344c"/><path d="M180.45,57.52h-7a.5.5,0,0,1-.5-.5V48.69a.5.5,0,0,1,.5-.5h7a.5.5,0,0,1,.5.5V57A.5.5,0,0,1,180.45,57.52Zm-6.5-1h6V49.19h-6Z" style="fill:#1e1e1e"/><rect x="182.79" y="68.86" width="7" height="11.6" style="fill:#9b8ce5"/><path d="M189.78,81h-7a.5.5,0,0,1-.5-.5V68.86a.5.5,0,0,1,.5-.5h7a.5.5,0,0,1,.5.5v11.6A.5.5,0,0,1,189.78,81Zm-6.5-1h6V69.36h-6Z" style="fill:#1e1e1e"/><rect x="234.46" y="53.24" width="80.74" height="45.91" style="fill:#2c2a33"/><path d="M315.2,99.65H234.46a.5.5,0,0,1-.5-.5V53.24a.5.5,0,0,1,.5-.5H315.2a.5.5,0,0,1,.5.5V99.15A.5.5,0,0,1,315.2,99.65Zm-80.24-1H314.7V53.74H235Z" style="fill:#1e1e1e"/><rect x="315.2" y="53.24" width="2.48" height="45.91" transform="translate(632.88 152.38) rotate(180)" style="fill:#232129"/><path d="M317.68,99.65H315.2a.5.5,0,0,1-.5-.5V53.24a.5.5,0,0,1,.5-.5h2.48a.5.5,0,0,1,.5.5V99.15A.5.5,0,0,1,317.68,99.65Zm-2-1h1.48V53.74H315.7Z" style="fill:#1e1e1e"/><rect x="238.88" y="53.24" width="27.91" height="45.91" style="fill:#2c2a33"/><path d="M266.79,99.65H238.88a.5.5,0,0,1-.5-.5V53.24a.5.5,0,0,1,.5-.5h27.91a.5.5,0,0,1,.5.5V99.15A.5.5,0,0,1,266.79,99.65Zm-27.41-1h26.91V53.74H239.38Z" style="fill:#1e1e1e"/><rect x="266.79" y="53.24" width="1.88" height="45.91" transform="translate(535.47 152.38) rotate(180)" style="fill:#232129"/><path d="M268.68,99.65h-1.88a.5.5,0,0,1-.5-.5V53.24a.5.5,0,0,1,.5-.5h1.88a.5.5,0,0,1,.5.5V99.15A.5.5,0,0,1,268.68,99.65Zm-1.38-1h.88V53.74h-.88Z" style="fill:#1e1e1e"/><polygon points="242.9 37.91 312.77 37.91 322.77 53.24 232.9 53.24 242.9 37.91" style="fill:#232129"/><path d="M322.77,53.74H232.9a.5.5,0,0,1-.42-.77l10-15.33a.5.5,0,0,1,.42-.23h69.87a.5.5,0,0,1,.42.23l10,15.33a.5.5,0,0,1-.42.77Zm-88.95-1h88L312.5,38.41H243.17Z" style="fill:#1e1e1e"/><polygon points="239.9 37.91 309.77 37.91 319.77 53.24 229.9 53.24 239.9 37.91" style="fill:#2c2a33"/><path d="M319.77,53.74H229.9a.5.5,0,0,1-.42-.77l10-15.33a.5.5,0,0,1,.42-.23h69.87a.5.5,0,0,1,.42.23l10,15.33a.5.5,0,0,1-.42.77Zm-88.95-1h88L309.5,38.41H240.17Z" style="fill:#1e1e1e"/><polygon points="255.46 41.21 269.46 53.24 241.46 53.24 252.46 41.21 255.46 41.21" style="fill:#232129"/><path d="M269.46,53.75h-28a.5.5,0,0,1-.37-.84l11-12a.5.5,0,0,1,.37-.16h3a.5.5,0,0,1,.33.12l14,12a.5.5,0,0,1-.33.88Zm-26.86-1h25.51l-12.83-11h-2.59Z" style="fill:#1e1e1e"/><polygon points="252.46 41.21 266.46 53.24 238.46 53.24 252.46 41.21" style="fill:#2c2a33"/><path d="M266.46,53.75h-28a.5.5,0,0,1-.33-.88l14-12a.5.5,0,0,1,.65,0l14,12a.5.5,0,0,1-.33.88Zm-26.64-1h25.3L252.46,41.87Z" style="fill:#1e1e1e"/><rect x="244.46" y="59.99" width="5" height="10.12" style="fill:#9b8ce5"/><path d="M249.46,70.61h-5a.5.5,0,0,1-.5-.5V60a.5.5,0,0,1,.5-.5h5a.5.5,0,0,1,.5.5V70.11A.5.5,0,0,1,249.46,70.61Zm-4.5-1h4V60.49h-4Z" style="fill:#1e1e1e"/><rect x="255.46" y="59.99" width="5" height="10.12" style="fill:#36344c"/><path d="M260.46,70.61h-5a.5.5,0,0,1-.5-.5V60a.5.5,0,0,1,.5-.5h5a.5.5,0,0,1,.5.5V70.11A.5.5,0,0,1,260.46,70.61Zm-4.5-1h4V60.49h-4Z" style="fill:#1e1e1e"/><path d="M252.46,46.37h0a2.5,2.5,0,0,1,2.5,2.5v0a2.42,2.42,0,0,1-2.42,2.42h-.15A2.42,2.42,0,0,1,250,48.86v0A2.5,2.5,0,0,1,252.46,46.37Z" style="fill:#36344c"/><path d="M252.54,51.79h-.15a2.93,2.93,0,0,1-2.92-2.92,3,3,0,1,1,6,0A2.93,2.93,0,0,1,252.54,51.79Zm-.08-4.92a2,2,0,0,0-2,2,1.92,1.92,0,0,0,1.92,1.92h.15a1.92,1.92,0,0,0,1.92-1.92A2,2,0,0,0,252.46,46.87Z" style="fill:#1e1e1e"/><rect x="244.46" y="77.99" width="5" height="10.12" style="fill:#9b8ce5"/><path d="M249.46,88.61h-5a.5.5,0,0,1-.5-.5V78a.5.5,0,0,1,.5-.5h5a.5.5,0,0,1,.5.5V88.11A.5.5,0,0,1,249.46,88.61Zm-4.5-1h4V78.49h-4Z" style="fill:#1e1e1e"/><rect x="255.46" y="77.99" width="5" height="10.12" style="fill:#9b8ce5"/><path d="M260.46,88.61h-5a.5.5,0,0,1-.5-.5V78a.5.5,0,0,1,.5-.5h5a.5.5,0,0,1,.5.5V88.11A.5.5,0,0,1,260.46,88.61Zm-4.5-1h4V78.49h-4Z" style="fill:#1e1e1e"/><rect x="282.75" y="53.24" width="27.91" height="45.91" style="fill:#2c2a33"/><path d="M310.66,99.65H282.75a.5.5,0,0,1-.5-.5V53.24a.5.5,0,0,1,.5-.5h27.91a.5.5,0,0,1,.5.5V99.15A.5.5,0,0,1,310.66,99.65Zm-27.41-1h26.91V53.74H283.25Z" style="fill:#1e1e1e"/><rect x="310.66" y="53.24" width="1.88" height="45.91" transform="translate(623.2 152.38) rotate(180)" style="fill:#232129"/><path d="M312.54,99.65h-1.88a.5.5,0,0,1-.5-.5V53.24a.5.5,0,0,1,.5-.5h1.88a.5.5,0,0,1,.5.5V99.15A.5.5,0,0,1,312.54,99.65Zm-1.38-1H312V53.74h-.88Z" style="fill:#1e1e1e"/><polygon points="299.33 41.21 313.32 53.24 285.33 53.24 296.33 41.21 299.33 41.21" style="fill:#232129"/><path d="M313.32,53.75h-28a.5.5,0,0,1-.37-.84l11-12a.5.5,0,0,1,.37-.16h3a.5.5,0,0,1,.33.12l14,12a.5.5,0,0,1-.33.88Zm-26.86-1H312l-12.83-11h-2.59Z" style="fill:#1e1e1e"/><polygon points="296.33 41.21 310.32 53.24 282.33 53.24 296.33 41.21" style="fill:#2c2a33"/><path d="M310.33,53.75h-28a.5.5,0,0,1-.33-.88l14-12a.5.5,0,0,1,.65,0l14,12a.5.5,0,0,1-.33.88Zm-26.65-1H309L296.33,41.87Z" style="fill:#1e1e1e"/><rect x="288.33" y="59.99" width="5" height="10.12" style="fill:#36344c"/><path d="M293.33,70.61h-5a.5.5,0,0,1-.5-.5V60a.5.5,0,0,1,.5-.5h5a.5.5,0,0,1,.5.5V70.11A.5.5,0,0,1,293.33,70.61Zm-4.5-1h4V60.49h-4Z" style="fill:#1e1e1e"/><rect x="299.33" y="59.99" width="5" height="10.12" style="fill:#36344c"/><path d="M304.33,70.61h-5a.5.5,0,0,1-.5-.5V60a.5.5,0,0,1,.5-.5h5a.5.5,0,0,1,.5.5V70.11A.5.5,0,0,1,304.33,70.61Zm-4.5-1h4V60.49h-4Z" style="fill:#1e1e1e"/><path d="M296.33,46.37h0a2.5,2.5,0,0,1,2.5,2.5v0a2.42,2.42,0,0,1-2.42,2.42h-.15a2.42,2.42,0,0,1-2.42-2.42v0a2.5,2.5,0,0,1,2.5-2.5Z" style="fill:#36344c"/><path d="M296.41,51.79h-.15a2.93,2.93,0,0,1-2.92-2.92,3,3,0,1,1,6,0A2.93,2.93,0,0,1,296.41,51.79Zm-.08-4.92a2,2,0,0,0-2,2,1.92,1.92,0,0,0,1.92,1.92h.15a1.92,1.92,0,0,0,1.92-1.92A2,2,0,0,0,296.33,46.87Z" style="fill:#1e1e1e"/><path d="M281.71,41.62h0a2.5,2.5,0,0,1,2.5,2.5v2.42a0,0,0,0,1,0,0h-5a0,0,0,0,1,0,0V44.12a2.5,2.5,0,0,1,2.5-2.5Z" style="fill:#36344c"/><path d="M284.21,47h-5a.5.5,0,0,1-.5-.5V44.12a3,3,0,0,1,6,0v2.42A.5.5,0,0,1,284.21,47Zm-4.5-1h4V44.12a2,2,0,0,0-4,0Z" style="fill:#1e1e1e"/><path d="M271.71,41.62h0a2.5,2.5,0,0,1,2.5,2.5v2.42a0,0,0,0,1,0,0h-5a0,0,0,0,1,0,0V44.12A2.5,2.5,0,0,1,271.71,41.62Z" style="fill:#36344c"/><path d="M274.21,47h-5a.5.5,0,0,1-.5-.5V44.12a3,3,0,0,1,6,0v2.42A.5.5,0,0,1,274.21,47Zm-4.5-1h4V44.12a2,2,0,0,0-4,0Z" style="fill:#1e1e1e"/><rect x="288.33" y="77.99" width="5" height="10.12" style="fill:#36344c"/><path d="M293.33,88.61h-5a.5.5,0,0,1-.5-.5V78a.5.5,0,0,1,.5-.5h5a.5.5,0,0,1,.5.5V88.11A.5.5,0,0,1,293.33,88.61Zm-4.5-1h4V78.49h-4Z" style="fill:#1e1e1e"/><rect x="299.33" y="77.99" width="5" height="10.12" style="fill:#36344c"/><path d="M304.33,88.61h-5a.5.5,0,0,1-.5-.5V78a.5.5,0,0,1,.5-.5h5a.5.5,0,0,1,.5.5V88.11A.5.5,0,0,1,304.33,88.61Zm-4.5-1h4V78.49h-4Z" style="fill:#1e1e1e"/><rect x="288.33" y="94.99" width="5" height="4.16" style="fill:#36344c"/><path d="M293.33,99.65h-5a.5.5,0,0,1-.5-.5V95a.5.5,0,0,1,.5-.5h5a.5.5,0,0,1,.5.5v4.16A.5.5,0,0,1,293.33,99.65Zm-4.5-1h4V95.49h-4Z" style="fill:#1e1e1e"/><rect x="299.33" y="94.99" width="5" height="4.16" style="fill:#36344c"/><path d="M304.33,99.65h-5a.5.5,0,0,1-.5-.5V95a.5.5,0,0,1,.5-.5h5a.5.5,0,0,1,.5.5v4.16A.5.5,0,0,1,304.33,99.65Zm-4.5-1h4V95.49h-4Z" style="fill:#1e1e1e"/><rect x="271.46" y="59.99" width="8.25" height="10.12" style="fill:#36344c"/><path d="M279.71,70.61h-8.25a.5.5,0,0,1-.5-.5V60a.5.5,0,0,1,.5-.5h8.25a.5.5,0,0,1,.5.5V70.11A.5.5,0,0,1,279.71,70.61Zm-7.75-1h7.25V60.49H272Z" style="fill:#1e1e1e"/><rect x="271.46" y="77.99" width="8.25" height="10.12" style="fill:#36344c"/><path d="M279.71,88.61h-8.25a.5.5,0,0,1-.5-.5V78a.5.5,0,0,1,.5-.5h8.25a.5.5,0,0,1,.5.5V88.11A.5.5,0,0,1,279.71,88.61Zm-7.75-1h7.25V78.49H272Z" style="fill:#1e1e1e"/><rect x="271.46" y="94.99" width="8.25" height="4.16" style="fill:#36344c"/><path d="M279.71,99.65h-8.25a.5.5,0,0,1-.5-.5V95a.5.5,0,0,1,.5-.5h8.25a.5.5,0,0,1,.5.5v4.16A.5.5,0,0,1,279.71,99.65Zm-7.75-1h7.25V95.49H272Z" style="fill:#1e1e1e"/><rect x="299.04" y="29.66" width="4" height="8.25" style="fill:#232129"/><path d="M303,38.41h-4a.5.5,0,0,1-.5-.5V29.66a.5.5,0,0,1,.5-.5h4a.5.5,0,0,1,.5.5v8.25A.5.5,0,0,1,303,38.41Zm-3.5-1h3V30.16h-3Z" style="fill:#1e1e1e"/><rect x="296.04" y="29.66" width="4" height="8.25" style="fill:#36344c"/><path d="M300,38.41h-4a.5.5,0,0,1-.5-.5V29.66a.5.5,0,0,1,.5-.5h4a.5.5,0,0,1,.5.5v8.25A.5.5,0,0,1,300,38.41Zm-3.5-1h3V30.16h-3Z" style="fill:#1e1e1e"/><rect x="289.04" y="29.66" width="4" height="8.25" style="fill:#232129"/><path d="M293,38.41h-4a.5.5,0,0,1-.5-.5V29.66a.5.5,0,0,1,.5-.5h4a.5.5,0,0,1,.5.5v8.25A.5.5,0,0,1,293,38.41Zm-3.5-1h3V30.16h-3Z" style="fill:#1e1e1e"/><rect x="286.04" y="29.66" width="4" height="8.25" style="fill:#36344c"/><path d="M290,38.41h-4a.5.5,0,0,1-.5-.5V29.66a.5.5,0,0,1,.5-.5h4a.5.5,0,0,1,.5.5v8.25A.5.5,0,0,1,290,38.41Zm-3.5-1h3V30.16h-3Z" style="fill:#1e1e1e"/><rect x="1126.25" y="53.34" width="73.07" height="45.96" style="fill:#2c2a33"/><path d="M1199.31,99.8h-73.07a.5.5,0,0,1-.5-.5v-46a.5.5,0,0,1,.5-.5h73.07a.5.5,0,0,1,.5.5v46A.5.5,0,0,1,1199.31,99.8Zm-72.57-1h72.07v-45h-72.07Z" style="fill:#1e1e1e"/><rect x="1130.66" y="53.34" width="27.91" height="45.96" style="fill:#2c2a33"/><path d="M1158.58,99.8h-27.91a.5.5,0,0,1-.5-.5v-46a.5.5,0,0,1,.5-.5h27.91a.5.5,0,0,1,.5.5v46A.5.5,0,0,1,1158.58,99.8Zm-27.41-1h26.91v-45h-26.91Z" style="fill:#1e1e1e"/><rect x="1158.57" y="53.34" width="1.88" height="45.96" transform="translate(2319.03 152.64) rotate(180)" style="fill:#232129"/><path d="M1160.46,99.8h-1.88a.5.5,0,0,1-.5-.5v-46a.5.5,0,0,1,.5-.5h1.88a.5.5,0,0,1,.5.5v46A.5.5,0,0,1,1160.46,99.8Zm-1.38-1h.88v-45h-.88Z" style="fill:#1e1e1e"/><polygon points="1134.68 38.01 1199.3 38.01 1199.36 53.34 1128.72 53.34 1134.68 38.01" style="fill:#7d66d1"/><path d="M1199.36,53.84h-70.64a.5.5,0,0,1-.47-.68l6-15.33a.5.5,0,0,1,.47-.32h64.62a.5.5,0,0,1,.5.5l.06,15.33a.5.5,0,0,1-.5.5Zm-69.91-1h69.41l-.06-14.33H1135Z" style="fill:#3a3a3a"/><polygon points="1131.68 38.01 1199.3 38.01 1199.36 53.34 1121.68 53.34 1131.68 38.01" style="fill:#2c2a33"/><path d="M1199.36,53.84h-77.68a.5.5,0,0,1-.42-.77l10-15.33a.5.5,0,0,1,.42-.23h67.62a.5.5,0,0,1,.5.5l.06,15.33a.5.5,0,0,1-.5.5Zm-76.76-1h76.26l-.06-14.33h-66.85Z" style="fill:#1e1e1e"/><polygon points="1147.24 41.31 1161.24 53.34 1133.25 53.34 1144.24 41.31 1147.24 41.31" style="fill:#232129"/><path d="M1161.24,53.84h-28a.5.5,0,0,1-.37-.84l11-12a.5.5,0,0,1,.37-.16h3a.5.5,0,0,1,.33.12l14,12a.5.5,0,0,1-.33.88Zm-26.86-1h25.51l-12.83-11h-2.59Z" style="fill:#1e1e1e"/><polygon points="1144.24 41.31 1158.24 53.34 1130.25 53.34 1144.24 41.31" style="fill:#2c2a33"/><path d="M1158.24,53.84h-28a.5.5,0,0,1-.33-.88l14-12a.5.5,0,0,1,.65,0l14,12a.5.5,0,0,1-.33.88Zm-26.65-1h25.3L1144.24,42Z" style="fill:#1e1e1e"/><rect x="1136.24" y="60.09" width="5" height="10.12" style="fill:#36344c"/><path d="M1141.24,70.71h-5a.5.5,0,0,1-.5-.5V60.09a.5.5,0,0,1,.5-.5h5a.5.5,0,0,1,.5.5V70.21A.5.5,0,0,1,1141.24,70.71Zm-4.5-1h4V60.59h-4Z" style="fill:#1e1e1e"/><rect x="1147.24" y="60.09" width="5" height="10.12" style="fill:#36344c"/><path d="M1152.24,70.71h-5a.5.5,0,0,1-.5-.5V60.09a.5.5,0,0,1,.5-.5h5a.5.5,0,0,1,.5.5V70.21A.5.5,0,0,1,1152.24,70.71Zm-4.5-1h4V60.59h-4Z" style="fill:#1e1e1e"/><path d="M1144.24,46.47h0a2.5,2.5,0,0,1,2.5,2.5v0a2.42,2.42,0,0,1-2.42,2.42h-.15a2.42,2.42,0,0,1-2.42-2.42v0a2.5,2.5,0,0,1,2.5-2.5Z" style="fill:#36344c"/><path d="M1144.32,51.89h-.15a2.93,2.93,0,0,1-2.92-2.92,3,3,0,1,1,6,0A2.93,2.93,0,0,1,1144.32,51.89Zm-.08-4.92a2,2,0,0,0-2,2,1.92,1.92,0,0,0,1.92,1.92h.15a1.92,1.92,0,0,0,1.92-1.92A2,2,0,0,0,1144.24,47Z" style="fill:#1e1e1e"/><rect x="1136.24" y="78.09" width="5" height="10.12" style="fill:#9b8ce5"/><path d="M1141.24,88.71h-5a.5.5,0,0,1-.5-.5V78.09a.5.5,0,0,1,.5-.5h5a.5.5,0,0,1,.5.5V88.21A.5.5,0,0,1,1141.24,88.71Zm-4.5-1h4V78.59h-4Z" style="fill:#3a3a3a"/><rect x="1147.24" y="78.09" width="5" height="10.12" style="fill:#36344c"/><path d="M1152.24,88.71h-5a.5.5,0,0,1-.5-.5V78.09a.5.5,0,0,1,.5-.5h5a.5.5,0,0,1,.5.5V88.21A.5.5,0,0,1,1152.24,88.71Zm-4.5-1h4V78.59h-4Z" style="fill:#1e1e1e"/><rect x="1147.24" y="95.09" width="5" height="4.21" style="fill:#36344c"/><path d="M1152.24,99.8h-5a.5.5,0,0,1-.5-.5V95.08a.5.5,0,0,1,.5-.5h5a.5.5,0,0,1,.5.5V99.3A.5.5,0,0,1,1152.24,99.8Zm-4.5-1h4V95.58h-4Z" style="fill:#1e1e1e"/><rect x="1174.53" y="53.34" width="24.78" height="45.96" style="fill:#2c2a33"/><path d="M1199.31,99.8h-24.78a.5.5,0,0,1-.5-.5v-46a.5.5,0,0,1,.5-.5h24.78a.5.5,0,0,1,.5.5v46A.5.5,0,0,1,1199.31,99.8Zm-24.28-1h23.78v-45H1175Z" style="fill:#1e1e1e"/><polygon points="1191.11 41.31 1199.13 48.2 1199.36 53.34 1177.11 53.34 1188.11 41.31 1191.11 41.31" style="fill:#232129"/><path d="M1199.36,53.84h-22.25a.5.5,0,0,1-.37-.84l11-12a.5.5,0,0,1,.37-.16h3a.5.5,0,0,1,.33.12l8,6.89a.5.5,0,0,1,.17.36l.24,5.14a.5.5,0,0,1-.5.52Zm-21.12-1h20.59l-.2-4.4-7.71-6.63h-2.59Z" style="fill:#1e1e1e"/><polygon points="1188.11 41.31 1199.35 50.98 1199.36 53.34 1174.11 53.34 1188.11 41.31" style="fill:#2c2a33"/><path d="M1199.36,53.84h-25.25a.5.5,0,0,1-.33-.88l14-12a.5.5,0,0,1,.65,0l11.24,9.67a.5.5,0,0,1,.17.38v2.37a.5.5,0,0,1-.5.5Zm-23.9-1h23.4V51.21L1188.11,42Z" style="fill:#1e1e1e"/><rect x="1180.11" y="60.09" width="5" height="10.12" style="fill:#36344c"/><path d="M1185.11,70.71h-5a.5.5,0,0,1-.5-.5V60.09a.5.5,0,0,1,.5-.5h5a.5.5,0,0,1,.5.5V70.21A.5.5,0,0,1,1185.11,70.71Zm-4.5-1h4V60.59h-4Z" style="fill:#1e1e1e"/><rect x="1191.11" y="60.09" width="5" height="10.12" style="fill:#36344c"/><path d="M1196.11,70.71h-5a.5.5,0,0,1-.5-.5V60.09a.5.5,0,0,1,.5-.5h5a.5.5,0,0,1,.5.5V70.21A.5.5,0,0,1,1196.11,70.71Zm-4.5-1h4V60.59h-4Z" style="fill:#1e1e1e"/><path d="M1188.11,46.47h0a2.5,2.5,0,0,1,2.5,2.5v0a2.42,2.42,0,0,1-2.42,2.42H1188a2.42,2.42,0,0,1-2.42-2.42v0a2.5,2.5,0,0,1,2.5-2.5Z" style="fill:#36344c"/><path d="M1188.19,51.89H1188a2.93,2.93,0,0,1-2.92-2.92,3,3,0,1,1,6,0A2.93,2.93,0,0,1,1188.19,51.89Zm-.08-4.92a2,2,0,0,0-2,2,1.92,1.92,0,0,0,1.92,1.92h.15a1.92,1.92,0,0,0,1.92-1.92A2,2,0,0,0,1188.11,47Z" style="fill:#1e1e1e"/><path d="M1173.49,41.72h0a2.5,2.5,0,0,1,2.5,2.5v2.42a0,0,0,0,1,0,0h-5a0,0,0,0,1,0,0V44.22A2.5,2.5,0,0,1,1173.49,41.72Z" style="fill:#36344c"/><path d="M1176,47.14h-5a.5.5,0,0,1-.5-.5V44.22a3,3,0,1,1,6,0v2.42A.5.5,0,0,1,1176,47.14Zm-4.5-1h4V44.22a2,2,0,1,0-4,0Z" style="fill:#1e1e1e"/><path d="M1163.49,41.72h0a2.5,2.5,0,0,1,2.5,2.5v2.42a0,0,0,0,1,0,0h-5a0,0,0,0,1,0,0V44.22A2.5,2.5,0,0,1,1163.49,41.72Z" style="fill:#36344c"/><path d="M1166,47.14h-5a.5.5,0,0,1-.5-.5V44.22a3,3,0,1,1,6,0v2.42A.5.5,0,0,1,1166,47.14Zm-4.5-1h4V44.22a2,2,0,1,0-4,0Z" style="fill:#1e1e1e"/><rect x="1180.11" y="78.09" width="5" height="10.12" style="fill:#36344c"/><path d="M1185.11,88.71h-5a.5.5,0,0,1-.5-.5V78.09a.5.5,0,0,1,.5-.5h5a.5.5,0,0,1,.5.5V88.21A.5.5,0,0,1,1185.11,88.71Zm-4.5-1h4V78.59h-4Z" style="fill:#1e1e1e"/><rect x="1191.11" y="78.09" width="5" height="10.12" style="fill:#36344c"/><path d="M1196.11,88.71h-5a.5.5,0,0,1-.5-.5V78.09a.5.5,0,0,1,.5-.5h5a.5.5,0,0,1,.5.5V88.21A.5.5,0,0,1,1196.11,88.71Zm-4.5-1h4V78.59h-4Z" style="fill:#1e1e1e"/><rect x="1180.11" y="95.09" width="5" height="4.21" style="fill:#36344c"/><path d="M1185.11,99.79h-5a.5.5,0,0,1-.5-.5V95.08a.5.5,0,0,1,.5-.5h5a.5.5,0,0,1,.5.5v4.21A.5.5,0,0,1,1185.11,99.79Zm-4.5-1h4V95.58h-4Z" style="fill:#1e1e1e"/><rect x="1191.11" y="95.09" width="5" height="4.21" style="fill:#36344c"/><path d="M1196.11,99.8h-5a.5.5,0,0,1-.5-.5V95.08a.5.5,0,0,1,.5-.5h5a.5.5,0,0,1,.5.5V99.3A.5.5,0,0,1,1196.11,99.8Zm-4.5-1h4V95.58h-4Z" style="fill:#1e1e1e"/><rect x="1163.25" y="60.09" width="8.25" height="10.12" style="fill:#36344c"/><path d="M1171.49,70.71h-8.25a.5.5,0,0,1-.5-.5V60.09a.5.5,0,0,1,.5-.5h8.25a.5.5,0,0,1,.5.5V70.21A.5.5,0,0,1,1171.49,70.71Zm-7.75-1H1171V60.59h-7.25Z" style="fill:#1e1e1e"/><rect x="1163.25" y="78.09" width="8.25" height="10.12" style="fill:#36344c"/><path d="M1171.49,88.71h-8.25a.5.5,0,0,1-.5-.5V78.09a.5.5,0,0,1,.5-.5h8.25a.5.5,0,0,1,.5.5V88.21A.5.5,0,0,1,1171.49,88.71Zm-7.75-1H1171V78.59h-7.25Z" style="fill:#1e1e1e"/><rect x="1163.25" y="95.09" width="8.25" height="4.21" style="fill:#36344c"/><path d="M1171.49,99.8h-8.25a.5.5,0,0,1-.5-.5V95.08a.5.5,0,0,1,.5-.5h8.25a.5.5,0,0,1,.5.5V99.3A.5.5,0,0,1,1171.49,99.8Zm-7.75-1H1171V95.58h-7.25Z" style="fill:#1e1e1e"/><rect x="1190.82" y="29.76" width="4" height="8.25" style="fill:#232129"/><path d="M1194.82,38.51h-4a.5.5,0,0,1-.5-.5V29.76a.5.5,0,0,1,.5-.5h4a.5.5,0,0,1,.5.5V38A.5.5,0,0,1,1194.82,38.51Zm-3.5-1h3V30.26h-3Z" style="fill:#1e1e1e"/><rect x="1187.82" y="29.76" width="4" height="8.25" style="fill:#36344c"/><path d="M1191.82,38.51h-4a.5.5,0,0,1-.5-.5V29.76a.5.5,0,0,1,.5-.5h4a.5.5,0,0,1,.5.5V38A.5.5,0,0,1,1191.82,38.51Zm-3.5-1h3V30.26h-3Z" style="fill:#1e1e1e"/><rect x="1180.82" y="29.76" width="4" height="8.25" style="fill:#232129"/><path d="M1184.82,38.51h-4a.5.5,0,0,1-.5-.5V29.76a.5.5,0,0,1,.5-.5h4a.5.5,0,0,1,.5.5V38A.5.5,0,0,1,1184.82,38.51Zm-3.5-1h3V30.26h-3Z" style="fill:#1e1e1e"/><rect x="1177.82" y="29.76" width="4" height="8.25" style="fill:#36344c"/><path d="M1181.82,38.51h-4a.5.5,0,0,1-.5-.5V29.76a.5.5,0,0,1,.5-.5h4a.5.5,0,0,1,.5.5V38A.5.5,0,0,1,1181.82,38.51Zm-3.5-1h3V30.26h-3Z" style="fill:#1e1e1e"/><polygon points="245.61 86.31 109.13 86.31 116.13 66.82 245.55 66.82 245.61 86.31" style="fill:#2c2a33"/><path d="M245.61,86.81H109.13a.5.5,0,0,1-.47-.67l7-19.5a.5.5,0,0,1,.47-.33H245.55a.5.5,0,0,1,.5.5l.06,19.5a.5.5,0,0,1-.5.5Zm-135.77-1H245.11l-.06-18.5H116.48Z" style="fill:#1e1e1e"/><rect x="115.77" y="86.31" width="129.84" height="12.83" style="fill:#2c2a33"/><path d="M245.61,99.65H115.77a.5.5,0,0,1-.5-.5V86.31a.5.5,0,0,1,.5-.5H245.61a.5.5,0,0,1,.5.5V99.15A.5.5,0,0,1,245.61,99.65Zm-129.34-1H245.11V86.81H116.27Z" style="fill:#1e1e1e"/><rect x="207.84" y="93.07" width="7.55" height="6.08" style="fill:#36344c"/><path d="M215.39,99.65h-7.54a.5.5,0,0,1-.5-.5V93.07a.5.5,0,0,1,.5-.5h7.54a.5.5,0,0,1,.5.5v6.08A.5.5,0,0,1,215.39,99.65Zm-7-1h6.54V93.57h-6.54Z" style="fill:#1e1e1e"/><rect x="187.84" y="93.07" width="7.55" height="6.08" style="fill:#36344c"/><path d="M195.39,99.65h-7.54a.5.5,0,0,1-.5-.5V93.07a.5.5,0,0,1,.5-.5h7.54a.5.5,0,0,1,.5.5v6.08A.5.5,0,0,1,195.39,99.65Zm-7-1h6.54V93.57h-6.54Z" style="fill:#1e1e1e"/><path d="M207.62,78.48a4,4,0,1,1,8,0Z" style="fill:#36344c"/><path d="M215.62,79h-8a.5.5,0,0,1-.5-.5,4.5,4.5,0,0,1,9,0A.5.5,0,0,1,215.62,79Zm-7.46-1h6.93a3.5,3.5,0,0,0-6.93,0Z" style="fill:#1e1e1e"/><path d="M177.62,78.48a4,4,0,1,1,8,0Z" style="fill:#36344c"/><path d="M185.62,79h-8a.5.5,0,0,1-.5-.5,4.5,4.5,0,0,1,9,0A.5.5,0,0,1,185.62,79Zm-7.46-1h6.93a3.5,3.5,0,0,0-6.93,0Z" style="fill:#1e1e1e"/><path d="M147.62,78.48a4,4,0,0,1,8,0Z" style="fill:#9b8ce5"/><path d="M155.62,79h-8a.5.5,0,0,1-.5-.5,4.5,4.5,0,0,1,9,0A.5.5,0,0,1,155.62,79Zm-7.46-1h6.93a3.5,3.5,0,0,0-6.93,0Z" style="fill:#1e1e1e"/><path d="M237.61,78.48a4,4,0,1,1,8,0Z" style="fill:#9b8ce5"/><path d="M245.61,79h-8a.5.5,0,0,1-.5-.5,4.5,4.5,0,0,1,9,0A.5.5,0,0,1,245.61,79Zm-7.46-1h6.93a3.5,3.5,0,0,0-6.93,0Z" style="fill:#1e1e1e"/><path d="M153.8,99c-.35-.69-.46-.64-1-1.22a7.67,7.67,0,0,0-8.34-1.73,4.8,4.8,0,0,0-6.64-2.57,8,8,0,0,0-2.46-12,8.58,8.58,0,0,0-4.15-8.94A4.51,4.51,0,0,0,127,66.34l-.23,0a4.49,4.49,0,0,0-7.44-2.52h-.21a4.51,4.51,0,0,0-9,.69l0-1.12A12,12,0,0,0,95.06,51.83a7.65,7.65,0,0,0-11.55-1.28,4.8,4.8,0,0,0-7.12,0A8,8,0,0,0,74,42.14a10,10,0,0,0-14.22-10.4A12.13,12.13,0,0,0,57.08,30c-5.42-2.56-11.68-.15-14.56,3.25a13.21,13.21,0,0,0-1-3A4.5,4.5,0,1,0,35.07,24,13.29,13.29,0,0,0,16.59,39.37,8,8,0,0,0,11,43.75a12.19,12.19,0,0,0-9.37-6.59l.13,0a5.82,5.82,0,0,0-.24-5.06C0,29.25,3.7,28.12.87,29.66V66.82" style="fill:#292830"/><path d="M153.8,99.54a.5.5,0,0,1-.45-.27,1.88,1.88,0,0,0-.53-.71l-.4-.39a7.15,7.15,0,0,0-7.79-1.62.5.5,0,0,1-.65-.28A4.3,4.3,0,0,0,138,94a.5.5,0,0,1-.61-.76A7.46,7.46,0,0,0,135.1,82a.5.5,0,0,1-.25-.52A8.08,8.08,0,0,0,130.94,73a.5.5,0,0,1-.21-.62,4,4,0,0,0-3.7-5.57l-.21,0a.48.48,0,0,1-.52-.41,4,4,0,0,0-6.62-2.24.51.51,0,0,1-.37.13h-.13a.58.58,0,0,1-.54-.43,4,4,0,0,0-8,.61.5.5,0,0,1-.49.5.47.47,0,0,1-.51-.48l0-1.12A11.46,11.46,0,0,0,95.19,52.31a.51.51,0,0,1-.54-.2,7.15,7.15,0,0,0-10.79-1.19.53.53,0,0,1-.36.13.5.5,0,0,1-.35-.17,4.3,4.3,0,0,0-6.38,0,.5.5,0,0,1-.84-.49,7.5,7.5,0,0,0-2.21-7.86.5.5,0,0,1-.17-.44,9.43,9.43,0,0,0-9.4-10.82,9.4,9.4,0,0,0-4.11.94.5.5,0,0,1-.54-.07,11.71,11.71,0,0,0-2.64-1.67c-5.06-2.39-11.08-.3-14,3.11a.5.5,0,0,1-.87-.22,12.78,12.78,0,0,0-1-2.85.5.5,0,0,1,.1-.58A4,4,0,0,0,42.39,27a4,4,0,0,0-4-4,4,4,0,0,0-2.94,1.3.5.5,0,0,1-.58.12,12.7,12.7,0,0,0-5.36-1.19,12.78,12.78,0,0,0-12.42,16,.5.5,0,0,1-.38.61A7.53,7.53,0,0,0,11.43,44a.5.5,0,0,1-.45.28.55.55,0,0,1-.45-.27,11.64,11.64,0,0,0-9-6.32.5.5,0,0,1-.17-.05V66.82a.5.5,0,0,1-1,0V29.66a.5.5,0,0,1,.26-.44c.42-.23.67-.38.81-.48a1.45,1.45,0,0,1,.27-.21.52.52,0,0,1,.69.2c.21.38-.11.64-.33.79a1.85,1.85,0,0,0-.14,2.32,6.29,6.29,0,0,1,.47,4.93A12.63,12.63,0,0,1,11,42.71,8.56,8.56,0,0,1,16,39a13.69,13.69,0,0,1-.33-2.92A13.85,13.85,0,0,1,29.5,22.25,13.67,13.67,0,0,1,35,23.38,4.94,4.94,0,0,1,38.38,22a5,5,0,0,1,5,5,5,5,0,0,1-1.3,3.36,13.79,13.79,0,0,1,.69,1.85c3.33-3.28,9.38-5.12,14.52-2.69a12.63,12.63,0,0,1,2.61,1.61,10.37,10.37,0,0,1,4.25-.91,10.51,10.51,0,0,1,10.5,10.5,9.86,9.86,0,0,1-.08,1.2,8.5,8.5,0,0,1,2.62,7.29,5.29,5.29,0,0,1,6.35.63,8.15,8.15,0,0,1,11.73,1.4,12.45,12.45,0,0,1,15.26,10.47,5,5,0,0,1,9,1.37,5,5,0,0,1,7.7,2.75,5,5,0,0,1,4.62,6.55A9.2,9.2,0,0,1,136,80.07a8.89,8.89,0,0,1-.09,1.21,8.39,8.39,0,0,1,1.69,1.32,8.51,8.51,0,0,1,1.42,10,5.3,5.3,0,0,1,5.7,2.86,8.14,8.14,0,0,1,8.43,2l.37.35a2.8,2.8,0,0,1,.75,1,.5.5,0,0,1-.45.73ZM1.37,33V36.7A5.3,5.3,0,0,0,1.37,33Z" style="fill:#1e1e1e"/><path d="M3.74,1A3.6,3.6,0,0,1,5.44,4.48,3.89,3.89,0,0,1,9.67,10a2.89,2.89,0,0,1,1.37.41,2.92,2.92,0,0,1,1,4h0a6.42,6.42,0,0,0-3.62.89l.1-.05A7.11,7.11,0,0,1,17.26,26a4.67,4.67,0,0,1,2.58,8.45A2.81,2.81,0,0,1,23.15,37a4.48,4.48,0,0,1,2.61,8.39l-.3.14a2.6,2.6,0,0,1,.5.63,2.63,2.63,0,0,1-1.05,3.57A3.41,3.41,0,0,1,29.68,54h-.08a7.11,7.11,0,0,0-7.95,7.65,7.11,7.11,0,0,1,13.42-3.8,4.67,4.67,0,0,1,8.78,1,2.81,2.81,0,0,1,3.63-2,4.48,4.48,0,0,1,3.89-3.1l1.19,0a2.68,2.68,0,0,1,.12-.64,7.07,7.07,0,0,1,2.61-2.9,7.79,7.79,0,0,1,4.28-1.06h0c.21,0,.41,0,.62.07l.33.06.3.08.47.13a6.4,6.4,0,0,1,.69.27,7.11,7.11,0,0,1,4.15,6.78,4.67,4.67,0,0,1,7.14,5.21,2.81,2.81,0,0,1,4.16,0A4.48,4.48,0,0,1,84.6,67c0,.1-.1.2-.15.29a2.6,2.6,0,0,1,.78.21A2.63,2.63,0,0,1,86.53,71a3.41,3.41,0,0,1,6.41.59l-.05.08a7.11,7.11,0,0,1,11.5,7.9,4.67,4.67,0,0,1,4.8,7.42,2.81,2.81,0,0,1,3.88,1.5,4.48,4.48,0,0,1,4.82,7.34l-.25.22a2.6,2.6,0,0,1,.65.47c1,1,1.42,1.61.38,2.63l-3.67.17H.5L.55.75A3.59,3.59,0,0,1,3.74,1Z" style="fill:#36344c"/><path d="M.5,99.81a.5.5,0,0,1-.5-.5L0,.75A.5.5,0,0,1,.36.29,4.07,4.07,0,0,1,4,.6,4.12,4.12,0,0,1,6,3.92a4.39,4.39,0,0,1,4.4,5.64,3.28,3.28,0,0,1,.94.39,3.43,3.43,0,0,1,1.46,4,7.59,7.59,0,0,1,5.41,11.66A5.16,5.16,0,0,1,21.07,34a3.3,3.3,0,0,1,2.19,1.64,3.25,3.25,0,0,1,.31.81,5,5,0,0,1,2.68,9.21,2.81,2.81,0,0,1,.15.25,3.13,3.13,0,0,1,.05,2.89,4,4,0,0,1,1.19.16,3.9,3.9,0,0,1,2.68,4.7,7.59,7.59,0,0,1,4.75,3.25,5.16,5.16,0,0,1,8.84.71,3.3,3.3,0,0,1,2.39-1.34,3.26,3.26,0,0,1,.87,0,5,5,0,0,1,4.16-3l.8,0c0-.09,0-.18.07-.27A7.59,7.59,0,0,1,55,49.89a8.37,8.37,0,0,1,4.57-1.13c.24,0,.47,0,.69.08l.36.06.26.06v.52L61,49l.44.13a6.92,6.92,0,0,1,.74.29,7.57,7.57,0,0,1,4.42,6.38,5.16,5.16,0,0,1,7.36,5,3.3,3.3,0,0,1,2.74,0,3.27,3.27,0,0,1,.74.46,5,5,0,0,1,7.68,5.74l.27.1a3.13,3.13,0,0,1,1.78,2.28,3.92,3.92,0,0,1,4-.48,3.88,3.88,0,0,1,1.92,1.9,7.61,7.61,0,0,1,12,8.19,5.16,5.16,0,0,1,5.1,7.26,3.35,3.35,0,0,1,2.56,1,3.29,3.29,0,0,1,.52.69A5,5,0,0,1,118.43,96l.21.19c.87.88,1.85,1.88.38,3.34a.49.49,0,0,1-.33.14l-3.67.17Zm.5-1H115l3.45-.16c.54-.57.43-.82-.52-1.79a2.11,2.11,0,0,0-.53-.38.5.5,0,0,1-.09-.83l.22-.19a4,4,0,0,0-4.28-6.52.5.5,0,0,1-.65-.28,2.31,2.31,0,0,0-3.19-1.23.5.5,0,0,1-.61-.76A4.17,4.17,0,0,0,104.5,80a.5.5,0,0,1-.58-.68A6.61,6.61,0,0,0,93.23,72a.5.5,0,0,1-.83-.49A2.91,2.91,0,0,0,87,71.19h0a.5.5,0,1,1-.91-.41h0A2.13,2.13,0,0,0,85,68a2.16,2.16,0,0,0-.63-.17.5.5,0,0,1-.38-.74c.05-.1.1-.18.14-.26a4,4,0,0,0-6.33-4.56.63.63,0,0,1-.36.13.5.5,0,0,1-.35-.17,2.31,2.31,0,0,0-3.42,0,.5.5,0,0,1-.84-.49,4.17,4.17,0,0,0-6.38-4.65.5.5,0,0,1-.79-.43,6.58,6.58,0,0,0-3.86-6.3,6,6,0,0,0-.64-.25L60.8,50l-.13,0-.21-.05-.24,0c-.26,0-.46-.07-.65-.08a7.34,7.34,0,0,0-4,1,6.57,6.57,0,0,0-2.41,2.69,2.53,2.53,0,0,0-.07.45.5.5,0,0,1-.5.48h0l-1.19,0A4,4,0,0,0,48,57.07a.5.5,0,0,1-.64.32,2.28,2.28,0,0,0-.93-.11,2.31,2.31,0,0,0-2.05,1.78.51.51,0,0,1-.49.38.5.5,0,0,1-.48-.4,4.17,4.17,0,0,0-7.84-.93.5.5,0,0,1-.45.28.47.47,0,0,1-.45-.27,6.6,6.6,0,0,0-5.09-3.58h0a6.68,6.68,0,0,0-1.16,0h-.2a6.62,6.62,0,0,0-6.05,6.58c0,.18,0,.37,0,.56,0,0,0,0,0,0a.5.5,0,0,1-.46.5.51.51,0,0,1-.54-.46q0-.33,0-.64a7.62,7.62,0,0,1,8.2-7.58,2.91,2.91,0,0,0-4.18-3.36h0a.5.5,0,1,1-.48-.88h0a2.13,2.13,0,0,0,.85-2.89,2.05,2.05,0,0,0-.41-.51.5.5,0,0,1,.14-.82l.27-.13a4,4,0,0,0-2.32-7.45.5.5,0,0,1-.55-.45A2.3,2.3,0,0,0,19.93,35a.5.5,0,0,1-.38-.9,4.17,4.17,0,0,0-2.3-7.55.5.5,0,0,1-.37-.82,6.61,6.61,0,0,0-8.17-10l0,0h0A.55.55,0,0,1,8,15.5a.46.46,0,0,1,.09-.64,6.81,6.81,0,0,1,3.63-1,2.4,2.4,0,0,0-2.08-3.41.5.5,0,0,1-.43-.71A3.39,3.39,0,0,0,5.53,5a.52.52,0,0,1-.43-.12.5.5,0,0,1-.16-.42,3.12,3.12,0,0,0-1.47-3h0A3.08,3.08,0,0,0,1,1.11Z" style="fill:#1e1e1e"/><rect x="0.69" y="45.55" width="42.24" height="53.59" style="fill:#2c2a33"/><path d="M42.94,99.65H.69a.5.5,0,0,1-.5-.5V45.55a.5.5,0,0,1,.5-.5H42.94a.5.5,0,0,1,.5.5V99.15A.5.5,0,0,1,42.94,99.65Zm-41.75-1H42.44V46.05H1.19Z" style="fill:#1e1e1e"/><rect x="42.94" y="45.55" width="2.48" height="53.59" transform="translate(88.35 144.7) rotate(180)" style="fill:#232129"/><path d="M45.41,99.65H42.94a.5.5,0,0,1-.5-.5V45.55a.5.5,0,0,1,.5-.5h2.48a.5.5,0,0,1,.5.5V99.15A.5.5,0,0,1,45.41,99.65Zm-2-1h1.48V46.05H43.44Z" style="fill:#1e1e1e"/><rect x="0.55" y="45.55" width="15.98" height="53.59" style="fill:#2c2a33"/><path d="M16.53,99.65H.55a.5.5,0,0,1-.5-.5V45.55a.5.5,0,0,1,.5-.5h16a.5.5,0,0,1,.5.5V99.15A.5.5,0,0,1,16.53,99.65ZM1,98.65H16V46.05H1Z" style="fill:#1e1e1e"/><rect x="16.53" y="45.55" width="1.88" height="53.59" transform="translate(34.94 144.7) rotate(180)" style="fill:#232129"/><path d="M18.41,99.65H16.53a.5.5,0,0,1-.5-.5V45.55a.5.5,0,0,1,.5-.5h1.88a.5.5,0,0,1,.5.5V99.15A.5.5,0,0,1,18.41,99.65Zm-1.38-1h.88V46.05H17Z" style="fill:#1e1e1e"/><polygon points="0.55 30.23 40.51 30.23 50.51 45.55 0.55 45.6 0.55 30.23" style="fill:#232129"/><path d="M.55,46.1a.5.5,0,0,1-.5-.5V30.23a.5.5,0,0,1,.5-.5h40a.5.5,0,0,1,.42.23l10,15.33a.5.5,0,0,1-.42.77l-50,0ZM1,30.73V45.1l48.54,0L40.24,30.73Z" style="fill:#1e1e1e"/><polygon points="0.55 30.23 37.51 30.23 47.51 45.55 0.55 45.6 0.55 30.23" style="fill:#2c2a33"/><path d="M.55,46.1a.5.5,0,0,1-.5-.5V30.23a.5.5,0,0,1,.5-.5h37a.5.5,0,0,1,.42.23l10,15.33a.5.5,0,0,1-.42.77l-47,0ZM1,30.73V45.1l45.54,0L37.24,30.73Z" style="fill:#1e1e1e"/><polygon points="5.2 33.53 19.19 45.56 0.55 45.6 2.19 33.53 5.2 33.53" style="fill:#232129"/><path d="M.55,46.1a.5.5,0,0,1-.5-.57L1.7,33.46A.5.5,0,0,1,2.2,33h3a.5.5,0,0,1,.33.12l14,12a.5.5,0,0,1-.33.88L.55,46.1ZM2.63,34,1.12,45.1l16.73,0L5,34Z" style="fill:#1e1e1e"/><polygon points="2.19 33.53 16.19 45.56 0.55 45.6 0.55 34.94 0.55 34.94 2.19 33.53" style="fill:#2c2a33"/><path d="M.55,46.1a.5.5,0,0,1-.5-.5V34.94a.5.5,0,0,1,.17-.38l1.65-1.42a.5.5,0,0,1,.65,0l14,12a.5.5,0,0,1-.33.88L.55,46.1ZM1,35.17V45.1l13.8,0L2.2,34.19Z" style="fill:#1e1e1e"/><line x1="15.57" y1="25.43" x2="15.57" y2="32.43" style="fill:#fff"/><path d="M15.57,32.93a.5.5,0,0,1-.5-.5v-7a.5.5,0,0,1,1,0v7A.5.5,0,0,1,15.57,32.93Z" style="fill:#1e1e1e"/><rect x="5.2" y="52.3" width="5" height="10.12" style="fill:#36344c"/><path d="M10.19,62.92h-5a.5.5,0,0,1-.5-.5V52.3a.5.5,0,0,1,.5-.5h5a.5.5,0,0,1,.5.5V62.42A.5.5,0,0,1,10.19,62.92Zm-4.5-1h4V52.8h-4Z" style="fill:#1e1e1e"/><path d="M3.37,40.68h0a2.5,2.5,0,0,1,2.5,2.5V45.6a0,0,0,0,1,0,0h-5a0,0,0,0,1,0,0V43.18A2.5,2.5,0,0,1,3.37,40.68Z" style="fill:#36344c"/><path d="M5.87,46.1h-5a.5.5,0,0,1-.5-.5V43.18a3,3,0,1,1,6,0V45.6A.5.5,0,0,1,5.87,46.1Zm-4.5-1h4V43.18a2,2,0,1,0-4,0Z" style="fill:#1e1e1e"/><rect x="5.2" y="70.3" width="5" height="10.12" style="fill:#36344c"/><path d="M10.19,80.92h-5a.5.5,0,0,1-.5-.5V70.3a.5.5,0,0,1,.5-.5h5a.5.5,0,0,1,.5.5V80.42A.5.5,0,0,1,10.19,80.92Zm-4.5-1h4V70.8h-4Z" style="fill:#1e1e1e"/><rect x="5.2" y="87.3" width="5" height="10.12" style="fill:#232129"/><path d="M10.19,97.92h-5a.5.5,0,0,1-.5-.5V87.3a.5.5,0,0,1,.5-.5h5a.5.5,0,0,1,.5.5V97.42A.5.5,0,0,1,10.19,97.92Zm-4.5-1h4V87.8h-4Z" style="fill:#1e1e1e"/><rect x="21.45" y="52.3" width="10.99" height="10.12" style="fill:#9b8ce5"/><path d="M32.44,62.92h-11a.5.5,0,0,1-.5-.5V52.3a.5.5,0,0,1,.5-.5h11a.5.5,0,0,1,.5.5V62.42A.5.5,0,0,1,32.44,62.92Zm-10.49-1h10V52.8h-10Z" style="fill:#1e1e1e"/><rect x="32.45" y="52.3" width="5" height="10.12" style="fill:#9b8ce5"/><path d="M37.45,62.92h-5a.5.5,0,0,1-.5-.5V52.3a.5.5,0,0,1,.5-.5h5a.5.5,0,0,1,.5.5V62.42A.5.5,0,0,1,37.45,62.92Zm-4.5-1h4V52.8h-4Z" style="fill:#1e1e1e"/><rect x="21.45" y="70.3" width="11" height="10.12" style="fill:#9b8ce5"/><path d="M32.45,80.92h-11a.5.5,0,0,1-.5-.5V70.3a.5.5,0,0,1,.5-.5h11a.5.5,0,0,1,.5.5V80.42A.5.5,0,0,1,32.45,80.92Zm-10.5-1h10V70.8h-10Z" style="fill:#1e1e1e"/><rect x="32.45" y="70.3" width="5" height="10.12" style="fill:#9b8ce5"/><path d="M37.45,80.92h-5a.5.5,0,0,1-.5-.5V70.3a.5.5,0,0,1,.5-.5h5a.5.5,0,0,1,.5.5V80.42A.5.5,0,0,1,37.45,80.92Zm-4.5-1h4V70.8h-4Z" style="fill:#1e1e1e"/><rect x="21.45" y="87.3" width="11" height="10.12" style="fill:#9b8ce5"/><path d="M32.45,97.92h-11a.5.5,0,0,1-.5-.5V87.3a.5.5,0,0,1,.5-.5h11a.5.5,0,0,1,.5.5V97.42A.5.5,0,0,1,32.45,97.92Zm-10.5-1h10V87.8h-10Z" style="fill:#1e1e1e"/><rect x="32.45" y="87.3" width="5" height="10.12" style="fill:#9b8ce5"/><path d="M37.45,97.92h-5a.5.5,0,0,1-.5-.5V87.3a.5.5,0,0,1,.5-.5h5a.5.5,0,0,1,.5.5V97.42A.5.5,0,0,1,37.45,97.92Zm-4.5-1h4V87.8h-4Z" style="fill:#1e1e1e"/><rect x="141.76" y="74.25" width="34.92" height="24.9" style="fill:#232129"/><path d="M176.68,99.65H141.76a.5.5,0,0,1-.5-.5V74.25a.5.5,0,0,1,.5-.5h34.92a.5.5,0,0,1,.5.5v24.9A.5.5,0,0,1,176.68,99.65Zm-34.42-1h33.92V74.75H142.26Z" style="fill:#1e1e1e"/><rect x="144.02" y="49.5" width="30.39" height="20.34" style="fill:#232129"/><path d="M174.41,70.34H144a.5.5,0,0,1-.5-.5V49.5a.5.5,0,0,1,.5-.5h30.39a.5.5,0,0,1,.5.5V69.84A.5.5,0,0,1,174.41,70.34Zm-29.89-1h29.39V50H144.52Z" style="fill:#1e1e1e"/><rect x="145.93" y="39.27" width="26.58" height="10.24" style="fill:#232129"/><path d="M172.51,50H145.93a.5.5,0,0,1-.5-.5V39.27a.5.5,0,0,1,.5-.5h26.58a.5.5,0,0,1,.5.5V49.5A.5.5,0,0,1,172.51,50Zm-26.08-1H172V39.77H146.43Z" style="fill:#1e1e1e"/><rect x="146.8" y="34.02" width="24.83" height="5.25" style="fill:#232129"/><path d="M171.63,39.77H146.8a.5.5,0,0,1-.5-.5V34a.5.5,0,0,1,.5-.5h24.83a.5.5,0,0,1,.5.5v5.25A.5.5,0,0,1,171.63,39.77Zm-24.33-1h23.83V34.52H147.3Z" style="fill:#1e1e1e"/><path d="M151.14,28H167.3a6,6,0,0,1,6,6v0a0,0,0,0,1,0,0H145.14a0,0,0,0,1,0,0v0a6,6,0,0,1,6-6Z" style="fill:#232129"/><path d="M173.3,34.52H145.14a.5.5,0,0,1-.5-.5,6.51,6.51,0,0,1,6.5-6.5H167.3a6.51,6.51,0,0,1,6.5,6.5A.5.5,0,0,1,173.3,34.52Zm-27.64-1h27.12a5.51,5.51,0,0,0-5.48-5H151.14A5.51,5.51,0,0,0,145.66,33.52Z" style="fill:#1e1e1e"/><rect x="138.27" y="69.92" width="41.9" height="4.29" style="fill:#232129"/><path d="M180.17,74.72h-41.9a.5.5,0,0,1-.5-.5V69.92a.5.5,0,0,1,.5-.5h41.9a.5.5,0,0,1,.5.5v4.29A.5.5,0,0,1,180.17,74.72Zm-41.4-1h40.9V70.42h-40.9Z" style="fill:#1e1e1e"/><rect x="138.76" y="74.25" width="34.92" height="24.9" style="fill:#2c2a33"/><path d="M173.68,99.65H138.76a.5.5,0,0,1-.5-.5V74.25a.5.5,0,0,1,.5-.5h34.92a.5.5,0,0,1,.5.5v24.9A.5.5,0,0,1,173.68,99.65Zm-34.42-1h33.92V74.75H139.26Z" style="fill:#1e1e1e"/><rect x="141.02" y="49.5" width="30.39" height="20.34" style="fill:#2c2a33"/><path d="M171.41,70.34H141a.5.5,0,0,1-.5-.5V49.5a.5.5,0,0,1,.5-.5h30.39a.5.5,0,0,1,.5.5V69.84A.5.5,0,0,1,171.41,70.34Zm-29.89-1h29.39V50H141.52Z" style="fill:#1e1e1e"/><rect x="142.93" y="39.27" width="26.58" height="10.24" style="fill:#2c2a33"/><path d="M169.51,50H142.93a.5.5,0,0,1-.5-.5V39.27a.5.5,0,0,1,.5-.5h26.58a.5.5,0,0,1,.5.5V49.5A.5.5,0,0,1,169.51,50Zm-26.08-1H169V39.77H143.43Z" style="fill:#1e1e1e"/><rect x="143.8" y="34.02" width="24.83" height="5.25" style="fill:#2c2a33"/><path d="M168.63,39.77H143.8a.5.5,0,0,1-.5-.5V34a.5.5,0,0,1,.5-.5h24.83a.5.5,0,0,1,.5.5v5.25A.5.5,0,0,1,168.63,39.77Zm-24.33-1h23.83V34.52H144.3Z" style="fill:#1e1e1e"/><path d="M148.14,28H164.3a6,6,0,0,1,6,6v0a0,0,0,0,1,0,0H142.14a0,0,0,0,1,0,0v0a6,6,0,0,1,6-6Z" style="fill:#2c2a33"/><path d="M170.3,34.52H142.14a.5.5,0,0,1-.5-.5,6.51,6.51,0,0,1,6.5-6.5H164.3a6.51,6.51,0,0,1,6.5,6.5A.5.5,0,0,1,170.3,34.52Zm-27.64-1h27.12a5.51,5.51,0,0,0-5.48-5H148.14A5.51,5.51,0,0,0,142.66,33.52Z" style="fill:#1e1e1e"/><rect x="135.27" y="69.92" width="41.9" height="4.29" style="fill:#2c2a33"/><path d="M177.17,74.72h-41.9a.5.5,0,0,1-.5-.5V69.92a.5.5,0,0,1,.5-.5h41.9a.5.5,0,0,1,.5.5v4.29A.5.5,0,0,1,177.17,74.72Zm-41.4-1h40.9V70.42h-40.9Z" style="fill:#1e1e1e"/><line x1="139.46" y1="49.53" x2="172.92" y2="49.53" style="fill:#5e55a0"/><path d="M172.92,50H139.46a.5.5,0,0,1,0-1h33.47a.5.5,0,0,1,0,1Z" style="fill:#1e1e1e"/><path d="M140.8,39.74a.5.5,0,0,1,0-1l30.89,0h0a.5.5,0,0,1,0,1l-30.89,0Z" style="fill:#1e1e1e"/><path d="M156.27,28.16a.5.5,0,0,1-.5-.5l0-6.31a.5.5,0,0,1,.5-.5h0a.5.5,0,0,1,.5.5l0,6.31a.5.5,0,0,1-.5.5Z" style="fill:#1e1e1e"/><path d="M144.14,69.72V62a3.67,3.67,0,0,1,3.67-3.67h0A3.67,3.67,0,0,1,151.47,62v7.75Z" style="fill:#36344c"/><path d="M151.47,70.22h-7.33a.5.5,0,0,1-.5-.5V62A4.17,4.17,0,1,1,152,62v7.75A.5.5,0,0,1,151.47,70.22Zm-6.83-1H151V62a3.17,3.17,0,1,0-6.33,0Z" style="fill:#1e1e1e"/><path d="M161.14,69.72V62a3.67,3.67,0,0,1,3.67-3.67h0A3.67,3.67,0,0,1,168.47,62v7.75Z" style="fill:#36344c"/><path d="M168.47,70.22h-7.33a.5.5,0,0,1-.5-.5V62A4.17,4.17,0,1,1,169,62v7.75A.5.5,0,0,1,168.47,70.22Zm-6.83-1H168V62a3.17,3.17,0,1,0-6.33,0Z" style="fill:#1e1e1e"/><polygon points="192.13 99.15 176.44 99.15 176.76 92.92 182.44 92.92 192.13 99.15" style="fill:#232129"/><path d="M192.13,99.65H176.45a.5.5,0,0,1-.5-.53l.31-6.22a.5.5,0,0,1,.5-.47h5.69a.5.5,0,0,1,.27.08l9.69,6.22a.5.5,0,0,1-.27.92Zm-15.16-1h13.46l-8.13-5.22h-5.06Z" style="fill:#1e1e1e"/><polygon points="189.13 99.15 173.45 99.15 173.76 92.92 179.44 92.92 189.13 99.15" style="fill:#2c2a33"/><path d="M189.13,99.65H173.45a.5.5,0,0,1-.5-.53l.31-6.22a.5.5,0,0,1,.5-.47h5.69a.5.5,0,0,1,.27.08l9.69,6.22a.5.5,0,0,1-.27.92Zm-15.16-1h13.46l-8.13-5.22h-5.06Z" style="fill:#1e1e1e"/><rect x="101.59" y="56.43" width="28.66" height="20.39" style="fill:#2c2a33"/><path d="M130.25,77.32H101.59a.5.5,0,0,1-.5-.5V56.43a.5.5,0,0,1,.5-.5h28.66a.5.5,0,0,1,.5.5V76.82A.5.5,0,0,1,130.25,77.32Zm-28.16-1h27.66V56.93H102.09Z" style="fill:#1e1e1e"/><rect x="118.67" y="60.8" width="5.07" height="10.15" style="fill:#36344c"/><path d="M123.74,71.44h-5.07a.5.5,0,0,1-.5-.5V60.8a.5.5,0,0,1,.5-.5h5.07a.5.5,0,0,1,.5.5V70.94A.5.5,0,0,1,123.74,71.44Zm-4.57-1h4.07V61.3h-4.07Z" style="fill:#1e1e1e"/><rect x="130.25" y="56.43" width="2.2" height="20.39" transform="translate(262.71 133.24) rotate(180)" style="fill:#232129"/><path d="M132.46,77.32h-2.2a.5.5,0,0,1-.5-.5V56.43a.5.5,0,0,1,.5-.5h2.2a.5.5,0,0,1,.5.5V76.82A.5.5,0,0,1,132.46,77.32Zm-1.7-1H132V56.93h-1.2Z" style="fill:#1e1e1e"/><polygon points="118.32 41.95 136.02 56.42 133.73 56.4 115.9 41.95 118.32 41.95" style="fill:#232129"/><path d="M136,56.92h0l-2.29,0a.5.5,0,0,1-.31-.11L115.58,42.34a.5.5,0,0,1,.31-.89h2.43a.5.5,0,0,1,.32.11L136.34,56a.5.5,0,0,1-.32.89Zm-2.11-1h.7L118.14,42.45h-.84Z" style="fill:#1e1e1e"/><polygon points="115.9 41.95 133.59 56.42 98.2 56.42 115.9 41.95" style="fill:#2c2a33"/><path d="M133.59,56.92H98.2a.5.5,0,0,1-.32-.89l17.7-14.47a.5.5,0,0,1,.63,0L133.91,56a.5.5,0,0,1-.32.89Zm-34-1h32.59L115.9,42.59Z" style="fill:#1e1e1e"/><rect x="106.67" y="60.8" width="5.07" height="10.15" style="fill:#36344c"/><path d="M111.74,71.44h-5.08a.5.5,0,0,1-.5-.5V60.8a.5.5,0,0,1,.5-.5h5.08a.5.5,0,0,1,.5.5V70.94A.5.5,0,0,1,111.74,71.44Zm-4.58-1h4.08V61.3h-4.08Z" style="fill:#1e1e1e"/><rect x="14.61" y="56.43" width="28.66" height="20.39" style="fill:#2c2a33"/><path d="M43.27,77.32H14.61a.5.5,0,0,1-.5-.5V56.43a.5.5,0,0,1,.5-.5H43.27a.5.5,0,0,1,.5.5V76.82A.5.5,0,0,1,43.27,77.32Zm-28.16-1H42.77V56.93H15.11Z" style="fill:#1e1e1e"/><rect x="31.68" y="60.8" width="5.07" height="10.15" style="fill:#36344c"/><path d="M36.75,71.44H31.68a.5.5,0,0,1-.5-.5V60.8a.5.5,0,0,1,.5-.5h5.07a.5.5,0,0,1,.5.5V70.94A.5.5,0,0,1,36.75,71.44Zm-4.57-1h4.07V61.3H32.18Z" style="fill:#1e1e1e"/><rect x="43.27" y="56.43" width="2.2" height="20.39" transform="translate(88.74 133.24) rotate(180)" style="fill:#232129"/><path d="M45.47,77.32h-2.2a.5.5,0,0,1-.5-.5V56.43a.5.5,0,0,1,.5-.5h2.2a.5.5,0,0,1,.5.5V76.82A.5.5,0,0,1,45.47,77.32Zm-1.7-1H45V56.93h-1.2Z" style="fill:#1e1e1e"/><rect x="41.27" y="76.53" width="63.99" height="22.61" style="fill:#2c2a33"/><path d="M105.26,99.65h-64a.5.5,0,0,1-.5-.5V76.53a.5.5,0,0,1,.5-.5h64a.5.5,0,0,1,.5.5V99.15A.5.5,0,0,1,105.26,99.65Zm-63.49-1h63V77h-63Z" style="fill:#1e1e1e"/><rect x="111.13" y="84.69" width="54.99" height="7.62" style="fill:#2c2a33"/><path d="M166.12,92.82h-55a.5.5,0,0,1-.5-.5V84.69a.5.5,0,0,1,.5-.5h55a.5.5,0,0,1,.5.5v7.62A.5.5,0,0,1,166.12,92.82Zm-54.49-1h54V85.19h-54Z" style="fill:#1e1e1e"/><polygon points="121.63 77.07 140.88 77.07 178.28 84.69 121.63 84.69 121.63 77.07" style="fill:#232129"/><path d="M178.28,85.19H121.63a.5.5,0,0,1-.5-.5V77.07a.5.5,0,0,1,.5-.5H141l37.4,7.62a.5.5,0,0,1-.1,1Zm-56.15-1h51.19l-32.5-6.62h-18.7Z" style="fill:#1e1e1e"/><polygon points="113.63 77.07 132.88 77.07 170.28 84.69 113.63 84.69 113.63 77.07" style="fill:#2c2a33"/><path d="M170.28,85.19H113.63a.5.5,0,0,1-.5-.5V77.07a.5.5,0,0,1,.5-.5H133l37.41,7.62a.5.5,0,0,1-.1,1Zm-56.15-1h51.19l-32.5-6.62h-18.7Z" style="fill:#1e1e1e"/><rect x="142.97" y="92.27" width="9.25" height="4.88" style="fill:#232129"/><path d="M152.21,97.66H143a.5.5,0,0,1-.5-.5V92.27a.5.5,0,0,1,.5-.5h9.25a.5.5,0,0,1,.5.5v4.88A.5.5,0,0,1,152.21,97.66Zm-8.75-1h8.25V92.77h-8.25Z" style="fill:#1e1e1e"/><rect x="144.59" y="97.08" width="6.09" height="2.07" style="fill:#232129"/><path d="M150.67,99.65h-6.09a.5.5,0,0,1-.5-.5V97.08a.5.5,0,0,1,.5-.5h6.09a.5.5,0,0,1,.5.5v2.07A.5.5,0,0,1,150.67,99.65Zm-5.59-1h5.09V97.58h-5.09Z" style="fill:#1e1e1e"/><rect x="135.01" y="92.29" width="6.09" height="6.85" style="fill:#232129"/><path d="M141.09,99.65H135a.5.5,0,0,1-.5-.5V92.29a.5.5,0,0,1,.5-.5h6.09a.5.5,0,0,1,.5.5v6.85A.5.5,0,0,1,141.09,99.65Zm-5.59-1h5.09V92.79h-5.09Z" style="fill:#1e1e1e"/><rect x="155.71" y="92.27" width="9.25" height="4.88" style="fill:#232129"/><path d="M165,97.66h-9.25a.5.5,0,0,1-.5-.5V92.27a.5.5,0,0,1,.5-.5H165a.5.5,0,0,1,.5.5v4.88A.5.5,0,0,1,165,97.66Zm-8.75-1h8.25V92.77h-8.25Z" style="fill:#1e1e1e"/><rect x="157.34" y="97.08" width="6.09" height="2.07" style="fill:#232129"/><path d="M163.42,99.65h-6.09a.5.5,0,0,1-.5-.5V97.08a.5.5,0,0,1,.5-.5h6.09a.5.5,0,0,1,.5.5v2.07A.5.5,0,0,1,163.42,99.65Zm-5.59-1h5.09V97.58h-5.09Z" style="fill:#1e1e1e"/><rect x="140.97" y="92.27" width="9.25" height="4.88" style="fill:#2c2a33"/><path d="M150.21,97.66H141a.5.5,0,0,1-.5-.5V92.27a.5.5,0,0,1,.5-.5h9.25a.5.5,0,0,1,.5.5v4.88A.5.5,0,0,1,150.21,97.66Zm-8.75-1h8.25V92.77h-8.25Z" style="fill:#1e1e1e"/><rect x="142.59" y="97.08" width="6.09" height="2.07" style="fill:#2c2a33"/><path d="M148.67,99.65h-6.09a.5.5,0,0,1-.5-.5V97.08a.5.5,0,0,1,.5-.5h6.09a.5.5,0,0,1,.5.5v2.07A.5.5,0,0,1,148.67,99.65Zm-5.59-1h5.09V97.58h-5.09Z" style="fill:#1e1e1e"/><rect x="153.71" y="92.27" width="9.25" height="4.88" style="fill:#2c2a33"/><path d="M163,97.66h-9.25a.5.5,0,0,1-.5-.5V92.27a.5.5,0,0,1,.5-.5H163a.5.5,0,0,1,.5.5v4.88A.5.5,0,0,1,163,97.66Zm-8.75-1h8.25V92.77h-8.25Z" style="fill:#1e1e1e"/><rect x="155.34" y="97.08" width="6.09" height="2.07" style="fill:#2c2a33"/><path d="M161.42,99.65h-6.09a.5.5,0,0,1-.5-.5V97.08a.5.5,0,0,1,.5-.5h6.09a.5.5,0,0,1,.5.5v2.07A.5.5,0,0,1,161.42,99.65Zm-5.59-1h5.09V97.58h-5.09Z" style="fill:#1e1e1e"/><rect x="110.13" y="92.32" width="28.99" height="6.83" style="fill:#2c2a33"/><path d="M139.13,99.65h-29a.5.5,0,0,1-.5-.5V92.32a.5.5,0,0,1,.5-.5h29a.5.5,0,0,1,.5.5v6.83A.5.5,0,0,1,139.13,99.65Zm-28.5-1h28V92.82h-28Z" style="fill:#1e1e1e"/><rect x="0.55" y="84.57" width="34.01" height="7.62" transform="translate(35.1 176.76) rotate(-180)" style="fill:#2c2a33"/><path d="M34.56,92.69H.55a.5.5,0,0,1-.5-.5V84.57a.5.5,0,0,1,.5-.5h34a.5.5,0,0,1,.5.5v7.62A.5.5,0,0,1,34.56,92.69ZM1,91.69h33V85.07H1Z" style="fill:#1e1e1e"/><polygon points="32.06 76.94 12.81 76.94 0.55 79.44 0.61 84.57 32.06 84.57 32.06 76.94" style="fill:#2c2a33"/><path d="M32.06,85.07H.61a.5.5,0,0,1-.5-.49L0,79.45a.5.5,0,0,1,.4-.5l12.26-2.5H32.06a.5.5,0,0,1,.5.5v7.62A.5.5,0,0,1,32.06,85.07Zm-31-1H31.56V77.44H12.86L1.05,79.85Z" style="fill:#1e1e1e"/><rect x="6.56" y="92.19" width="28.99" height="6.96" transform="translate(42.12 191.34) rotate(-180)" style="fill:#2c2a33"/><path d="M35.56,99.65h-29a.5.5,0,0,1-.5-.5v-7a.5.5,0,0,1,.5-.5h29a.5.5,0,0,1,.5.5v7A.5.5,0,0,1,35.56,99.65Zm-28.5-1h28v-6h-28Z" style="fill:#1e1e1e"/><rect x="87.78" y="73.28" width="26" height="11.25" style="fill:#232129"/><path d="M113.78,85h-26a.5.5,0,0,1-.5-.5V73.28a.5.5,0,0,1,.5-.5h26a.5.5,0,0,1,.5.5V84.53A.5.5,0,0,1,113.78,85Zm-25.5-1h25V73.78h-25Z" style="fill:#1e1e1e"/><rect x="31.95" y="73.32" width="26" height="11.25" style="fill:#232129"/><path d="M58,85.07H32a.5.5,0,0,1-.5-.5V73.32a.5.5,0,0,1,.5-.5H58a.5.5,0,0,1,.5.5V84.57A.5.5,0,0,1,58,85.07Zm-25.5-1h25V73.82h-25Z" style="fill:#1e1e1e"/><rect x="31.95" y="73.32" width="23.84" height="11.25" style="fill:#2c2a33"/><path d="M55.8,85.07H32a.5.5,0,0,1-.5-.5V73.32a.5.5,0,0,1,.5-.5H55.8a.5.5,0,0,1,.5.5V84.57A.5.5,0,0,1,55.8,85.07Zm-23.34-1H55.3V73.82H32.46Z" style="fill:#1e1e1e"/><rect x="87.76" y="73.32" width="23.84" height="11.25" style="fill:#2c2a33"/><path d="M111.6,85.07H87.76a.5.5,0,0,1-.5-.5V73.32a.5.5,0,0,1,.5-.5H111.6a.5.5,0,0,1,.5.5V84.57A.5.5,0,0,1,111.6,85.07Zm-23.34-1H111.1V73.82H88.26Z" style="fill:#1e1e1e"/><polygon points="78.95 53.01 122.69 73.35 117.03 73.32 72.95 53.01 78.95 53.01" style="fill:#232129"/><path d="M122.69,73.85h0l-5.66,0a.48.48,0,0,1-.21,0L72.74,53.47a.5.5,0,0,1,.21-1h6a.49.49,0,0,1,.21,0L122.9,72.9a.5.5,0,0,1-.21,1Zm-5.55-1,3.26,0L78.84,53.51H75.23Z" style="fill:#1e1e1e"/><polygon points="72.95 53.01 116.69 73.35 29.21 73.35 72.95 53.01" style="fill:#2c2a33"/><path d="M116.69,73.85H29.21a.5.5,0,0,1-.21-1L72.74,52.56a.5.5,0,0,1,.42,0L116.9,72.9a.5.5,0,0,1-.21,1Zm-85.21-1h83L73,53.56Z" style="fill:#1e1e1e"/><polygon points="31.34 41.95 49.03 56.42 46.74 56.4 28.91 41.95 31.34 41.95" style="fill:#232129"/><path d="M49,56.92h0l-2.29,0a.5.5,0,0,1-.31-.11L28.6,42.34a.5.5,0,0,1,.31-.89h2.43a.5.5,0,0,1,.32.11L49.35,56a.5.5,0,0,1-.32.89Zm-2.11-1h.69L31.16,42.45h-.84Z" style="fill:#1e1e1e"/><polygon points="28.91 41.95 46.61 56.42 11.21 56.42 28.91 41.95" style="fill:#2c2a33"/><path d="M46.61,56.92H11.21A.5.5,0,0,1,10.9,56l17.7-14.47a.5.5,0,0,1,.63,0L46.92,56a.5.5,0,0,1-.32.89Zm-34-1H45.21L28.91,42.59Z" style="fill:#1e1e1e"/><polygon points="69.46 84.55 57.9 84.55 57.9 73.38 87.8 73.38 87.8 84.55 76.6 84.55 69.46 84.55" style="fill:#2c2a33"/><path d="M87.8,85H57.9a.5.5,0,0,1-.5-.5V73.38a.5.5,0,0,1,.5-.5H87.8a.5.5,0,0,1,.5.5V84.55A.5.5,0,0,1,87.8,85ZM58.4,84H87.3V73.88H58.4Z" style="fill:#1e1e1e"/><line x1="55.27" y1="97.81" x2="91.13" y2="97.81" style="fill:#fff"/><path d="M91.13,98.31H55.27a.5.5,0,1,1,0-1H91.13a.5.5,0,0,1,0,1Z" style="fill:#1e1e1e"/><rect x="34.52" y="84.57" width="9.25" height="5.12" style="fill:#232129"/><path d="M43.77,90.19H34.52a.5.5,0,0,1-.5-.5V84.57a.5.5,0,0,1,.5-.5h9.25a.5.5,0,0,1,.5.5v5.12A.5.5,0,0,1,43.77,90.19Zm-8.75-1h8.25V85.07H35Z" style="fill:#1e1e1e"/><rect x="36.1" y="89.69" width="6.09" height="9.45" style="fill:#232129"/><path d="M42.19,99.65H36.1a.5.5,0,0,1-.5-.5V89.69a.5.5,0,0,1,.5-.5h6.09a.5.5,0,0,1,.5.5v9.45A.5.5,0,0,1,42.19,99.65Zm-5.59-1h5.09V90.19H36.6Z" style="fill:#1e1e1e"/><rect x="48.52" y="84.57" width="9.25" height="5.12" style="fill:#232129"/><path d="M57.77,90.19H48.52a.5.5,0,0,1-.5-.5V84.57a.5.5,0,0,1,.5-.5h9.25a.5.5,0,0,1,.5.5v5.12A.5.5,0,0,1,57.77,90.19Zm-8.75-1h8.25V85.07H49Z" style="fill:#1e1e1e"/><rect x="50.1" y="89.69" width="6.09" height="9.45" style="fill:#232129"/><path d="M56.19,99.65H50.1a.5.5,0,0,1-.5-.5V89.69a.5.5,0,0,1,.5-.5h6.09a.5.5,0,0,1,.5.5v9.45A.5.5,0,0,1,56.19,99.65Zm-5.59-1h5.09V90.19H50.6Z" style="fill:#1e1e1e"/><rect x="90.52" y="84.57" width="9.25" height="5.12" style="fill:#232129"/><path d="M99.76,90.19H90.52a.5.5,0,0,1-.5-.5V84.57a.5.5,0,0,1,.5-.5h9.25a.5.5,0,0,1,.5.5v5.12A.5.5,0,0,1,99.76,90.19Zm-8.75-1h8.25V85.07H91Z" style="fill:#1e1e1e"/><rect x="92.1" y="89.69" width="6.09" height="9.45" style="fill:#232129"/><path d="M98.18,99.65H92.1a.5.5,0,0,1-.5-.5V89.69a.5.5,0,0,1,.5-.5h6.09a.5.5,0,0,1,.5.5v9.45A.5.5,0,0,1,98.18,99.65Zm-5.59-1h5.09V90.19H92.6Z" style="fill:#1e1e1e"/><rect x="104.51" y="84.57" width="9.25" height="5.12" style="fill:#232129"/><path d="M113.76,90.19h-9.25a.5.5,0,0,1-.5-.5V84.57a.5.5,0,0,1,.5-.5h9.25a.5.5,0,0,1,.5.5v5.12A.5.5,0,0,1,113.76,90.19Zm-8.75-1h8.25V85.07H105Z" style="fill:#1e1e1e"/><rect x="106.1" y="89.69" width="6.09" height="9.45" style="fill:#232129"/><path d="M112.18,99.65h-6.09a.5.5,0,0,1-.5-.5V89.69a.5.5,0,0,1,.5-.5h6.09a.5.5,0,0,1,.5.5v9.45A.5.5,0,0,1,112.18,99.65Zm-5.59-1h5.09V90.19h-5.09Z" style="fill:#1e1e1e"/><rect x="32.52" y="84.57" width="9.25" height="5.12" style="fill:#2c2a33"/><path d="M41.77,90.19H32.52a.5.5,0,0,1-.5-.5V84.57a.5.5,0,0,1,.5-.5h9.25a.5.5,0,0,1,.5.5v5.12A.5.5,0,0,1,41.77,90.19Zm-8.75-1h8.25V85.07H33Z" style="fill:#1e1e1e"/><rect x="34.1" y="89.69" width="6.09" height="9.45" style="fill:#2c2a33"/><path d="M40.19,99.65H34.1a.5.5,0,0,1-.5-.5V89.69a.5.5,0,0,1,.5-.5h6.09a.5.5,0,0,1,.5.5v9.45A.5.5,0,0,1,40.19,99.65Zm-5.59-1h5.09V90.19H34.6Z" style="fill:#1e1e1e"/><rect x="46.52" y="84.57" width="9.25" height="5.12" style="fill:#2c2a33"/><path d="M55.77,90.19H46.52a.5.5,0,0,1-.5-.5V84.57a.5.5,0,0,1,.5-.5h9.25a.5.5,0,0,1,.5.5v5.12A.5.5,0,0,1,55.77,90.19Zm-8.75-1h8.25V85.07H47Z" style="fill:#1e1e1e"/><rect x="48.1" y="89.69" width="6.09" height="9.45" style="fill:#2c2a33"/><path d="M54.19,99.65H48.1a.5.5,0,0,1-.5-.5V89.69a.5.5,0,0,1,.5-.5h6.09a.5.5,0,0,1,.5.5v9.45A.5.5,0,0,1,54.19,99.65Zm-5.59-1h5.09V90.19H48.6Z" style="fill:#1e1e1e"/><rect x="88.52" y="84.57" width="9.25" height="5.12" style="fill:#2c2a33"/><path d="M97.76,90.19H88.52a.5.5,0,0,1-.5-.5V84.57a.5.5,0,0,1,.5-.5h9.25a.5.5,0,0,1,.5.5v5.12A.5.5,0,0,1,97.76,90.19Zm-8.75-1h8.25V85.07H89Z" style="fill:#1e1e1e"/><rect x="90.1" y="89.69" width="6.09" height="9.45" style="fill:#2c2a33"/><path d="M96.18,99.65H90.1a.5.5,0,0,1-.5-.5V89.69a.5.5,0,0,1,.5-.5h6.09a.5.5,0,0,1,.5.5v9.45A.5.5,0,0,1,96.18,99.65Zm-5.59-1h5.09V90.19H90.6Z" style="fill:#1e1e1e"/><rect x="102.51" y="84.57" width="9.25" height="5.12" style="fill:#2c2a33"/><path d="M111.76,90.19h-9.25a.5.5,0,0,1-.5-.5V84.57a.5.5,0,0,1,.5-.5h9.25a.5.5,0,0,1,.5.5v5.12A.5.5,0,0,1,111.76,90.19Zm-8.75-1h8.25V85.07H103Z" style="fill:#1e1e1e"/><rect x="104.1" y="89.69" width="6.09" height="9.45" style="fill:#2c2a33"/><path d="M110.18,99.65H104.1a.5.5,0,0,1-.5-.5V89.69a.5.5,0,0,1,.5-.5h6.09a.5.5,0,0,1,.5.5v9.45A.5.5,0,0,1,110.18,99.65Zm-5.59-1h5.09V90.19H104.6Z" style="fill:#1e1e1e"/><rect x="65.73" y="79.91" width="7.13" height="13.35" style="fill:#36344c"/><path d="M72.87,93.76H65.73a.5.5,0,0,1-.5-.5V79.91a.5.5,0,0,1,.5-.5h7.13a.5.5,0,0,1,.5.5V93.26A.5.5,0,0,1,72.87,93.76Zm-6.63-1h6.13V80.41H66.23Z" style="fill:#1e1e1e"/><rect x="73.66" y="79.91" width="7.13" height="13.35" style="fill:#36344c"/><path d="M80.79,93.76H73.66a.5.5,0,0,1-.5-.5V79.91a.5.5,0,0,1,.5-.5h7.14a.5.5,0,0,1,.5.5V93.26A.5.5,0,0,1,80.79,93.76Zm-6.64-1h6.14V80.41H74.16Z" style="fill:#1e1e1e"/><rect x="113.84" y="73.38" width="2.49" height="3.75" style="fill:#232129"/><path d="M116.33,77.63h-2.49a.5.5,0,0,1-.5-.5V73.38a.5.5,0,0,1,.5-.5h2.49a.5.5,0,0,1,.5.5v3.75A.5.5,0,0,1,116.33,77.63Zm-2-1h1.49V73.88h-1.49Z" style="fill:#1e1e1e"/><rect x="166.21" y="84.79" width="2.4" height="7.51" style="fill:#232129"/><path d="M168.61,92.8h-2.4a.5.5,0,0,1-.5-.5v-7.5a.5.5,0,0,1,.5-.5h2.4a.5.5,0,0,1,.5.5v7.5A.5.5,0,0,1,168.61,92.8Zm-1.9-1h1.4v-6.5h-1.4Z" style="fill:#1e1e1e"/><rect x="19.68" y="60.8" width="5.07" height="10.15" style="fill:#36344c"/><path d="M24.76,71.44H19.68a.5.5,0,0,1-.5-.5V60.8a.5.5,0,0,1,.5-.5h5.07a.5.5,0,0,1,.5.5V70.94A.5.5,0,0,1,24.76,71.44Zm-4.57-1h4.07V61.3H20.18Z" style="fill:#1e1e1e"/><polygon points="249.71 56.17 277.36 83.51 221.96 83.45 246.7 56.2 249.71 56.17" style="fill:#232129"/><path d="M277.36,84h0L222,83.95a.5.5,0,0,1-.37-.84l24.74-27.25a.5.5,0,0,1,.37-.16l3,0h0a.5.5,0,0,1,.35.14l27.65,27.34a.5.5,0,0,1-.35.86ZM223.09,83l53.05.06L249.5,56.67l-2.58,0Z" style="fill:#1e1e1e"/><rect x="226.71" y="83.67" width="45.66" height="15.36" style="fill:#232129"/><path d="M272.37,99.54H226.71a.5.5,0,0,1-.5-.5V83.67a.5.5,0,0,1,.5-.5h45.66a.5.5,0,0,1,.5.5V99A.5.5,0,0,1,272.37,99.54Zm-45.16-1h44.66V84.17H227.21Z" style="fill:#1e1e1e"/><rect x="261.29" y="63.43" width="4" height="10.5" style="fill:#232129"/><path d="M265.29,74.42h-4a.5.5,0,0,1-.5-.5V63.43a.5.5,0,0,1,.5-.5h4a.5.5,0,0,1,.5.5v10.5A.5.5,0,0,1,265.29,74.42Zm-3.5-1h3v-9.5h-3Z" style="fill:#1e1e1e"/><rect x="258.29" y="63.43" width="4" height="10.5" style="fill:#36344c"/><path d="M262.29,74.42h-4a.5.5,0,0,1-.5-.5V63.43a.5.5,0,0,1,.5-.5h4a.5.5,0,0,1,.5.5v10.5A.5.5,0,0,1,262.29,74.42Zm-3.5-1h3v-9.5h-3Z" style="fill:#1e1e1e"/><polygon points="246.71 56.17 274.36 83.51 219.06 83.51 246.71 56.17" style="fill:#2c2a33"/><path d="M274.36,84h-55.3a.5.5,0,0,1-.35-.86l27.65-27.34a.5.5,0,0,1,.7,0l27.65,27.34a.5.5,0,0,1-.35.86Zm-54.09-1h52.87L246.71,56.87Z" style="fill:#1e1e1e"/><rect x="223.71" y="83.67" width="45.66" height="15.47" style="fill:#2c2a33"/><path d="M269.37,99.65H223.71a.5.5,0,0,1-.5-.5V83.67a.5.5,0,0,1,.5-.5h45.66a.5.5,0,0,1,.5.5V99.15A.5.5,0,0,1,269.37,99.65Zm-45.16-1h44.66V84.17H224.21Z" style="fill:#1e1e1e"/><rect x="234.29" y="88.85" width="7" height="10.29" style="fill:#36344c"/><path d="M241.28,99.65h-7a.5.5,0,0,1-.5-.5V88.85a.5.5,0,0,1,.5-.5h7a.5.5,0,0,1,.5.5V99.15A.5.5,0,0,1,241.28,99.65Zm-6.5-1h6V89.35h-6Z" style="fill:#1e1e1e"/><rect x="243.45" y="68.69" width="7" height="8.32" style="fill:#36344c"/><path d="M250.45,77.51h-7a.5.5,0,0,1-.5-.5V68.69a.5.5,0,0,1,.5-.5h7a.5.5,0,0,1,.5.5V77A.5.5,0,0,1,250.45,77.51Zm-6.5-1h6V69.19h-6Z" style="fill:#1e1e1e"/><rect x="252.78" y="88.85" width="7" height="10.29" style="fill:#36344c"/><path d="M259.78,99.65h-7a.5.5,0,0,1-.5-.5V88.85a.5.5,0,0,1,.5-.5h7a.5.5,0,0,1,.5.5V99.15A.5.5,0,0,1,259.78,99.65Zm-6.5-1h6V89.35h-6Z" style="fill:#1e1e1e"/><circle cx="157.34" cy="13.03" r="12.39" style="fill:#232129"/><path d="M157.34,25.92A12.89,12.89,0,1,1,170.23,13,12.91,12.91,0,0,1,157.34,25.92Zm0-24.78A11.89,11.89,0,1,0,169.23,13,11.91,11.91,0,0,0,157.34,1.13Z" style="fill:#1e1e1e"/><circle cx="155.34" cy="13.03" r="12.39" style="fill:#2c2a33"/><path d="M155.34,25.92A12.89,12.89,0,1,1,168.23,13,12.91,12.91,0,0,1,155.34,25.92Zm0-24.78A11.89,11.89,0,1,0,167.23,13,11.91,11.91,0,0,0,155.34,1.13Z" style="fill:#1e1e1e"/><polyline points="153.75 11.76 152.52 7.65 149.44 15.78" style="fill:#36344c;fill-rule:evenodd"/><path d="M149.44,16.28a.51.51,0,0,1-.18,0,.5.5,0,0,1-.29-.65l3.09-8.13a.46.46,0,0,1,.49-.32.5.5,0,0,1,.46.36l1.23,4.11a.5.5,0,0,1-1,.29l-.8-2.7L149.9,16A.5.5,0,0,1,149.44,16.28Z" style="fill:#1e1e1e"/><polygon points="161.69 15.78 158.2 7.65 157.16 11.76 161.69 15.78" style="fill:#36344c;fill-rule:evenodd"/><path d="M161.69,16.28a.5.5,0,0,1-.33-.13l-4.53-4a.5.5,0,0,1-.15-.5l1-4.11a.5.5,0,0,1,.94-.08l3.49,8.13a.5.5,0,0,1-.46.7Zm-4-4.69,2.63,2.33-2-4.72Z" style="fill:#1e1e1e"/><path d="M153.75,11.76c-2.17,2-4.32,4-4.32,4l6.05,2.32Z" style="fill:#36344c;fill-rule:evenodd"/><path d="M155.49,18.59a.49.49,0,0,1-.18,0l-6-2.32a.5.5,0,0,1-.17-.83s2.15-2,4.32-4a.51.51,0,0,1,.48-.11.5.5,0,0,1,.34.35L156,18a.5.5,0,0,1-.48.63Zm-5.13-3,4.38,1.68-1.26-4.59C152.22,13.84,151,15,150.36,15.59Z" style="fill:#1e1e1e"/><polygon points="155.49 10.27 157.16 11.76 158.2 7.65 155.49 10.27" style="fill:#36344c;fill-rule:evenodd"/><path d="M157.16,12.26a.5.5,0,0,1-.33-.13l-1.68-1.49a.5.5,0,0,1,0-.73l2.72-2.63a.5.5,0,0,1,.6-.07.5.5,0,0,1,.23.55l-1,4.11a.5.5,0,0,1-.34.36Zm-.94-2,.66.58.41-1.61Z" style="fill:#1e1e1e"/><polygon points="157.16 11.76 161.69 15.78 155.49 18.09 157.16 11.76" style="fill:#36344c;fill-rule:evenodd"/><path d="M155.49,18.59A.5.5,0,0,1,155,18l1.68-6.33a.5.5,0,0,1,.82-.25l4.53,4a.5.5,0,0,1-.16.84l-6.21,2.32A.52.52,0,0,1,155.49,18.59Zm2-5.92-1.22,4.61,4.52-1.69Z" style="fill:#1e1e1e"/><path d="M152.52,7.65l3,2.63c-.55.51-1.14.95-1.73,1.49Z" style="fill:#36344c;fill-rule:evenodd"/><path d="M153.75,12.26l-.13,0a.5.5,0,0,1-.35-.34L152,7.79a.5.5,0,0,1,.81-.52l3,2.63a.5.5,0,0,1,0,.74c-.29.26-.58.51-.88.76s-.57.47-.86.73A.5.5,0,0,1,153.75,12.26Zm-.25-3.08.5,1.69.3-.25.43-.36Z" style="fill:#1e1e1e"/><path d="M155.49,10.27l1.68,1.49-1.68,6.33-1.73-6.33C154.34,11.22,154.93,10.78,155.49,10.27Z" style="fill:#36344c;fill-rule:evenodd"/><path d="M155.49,18.59a.5.5,0,0,1-.48-.37l-1.74-6.33a.5.5,0,0,1,.15-.5c.3-.27.6-.52.89-.76s.57-.47.84-.72a.5.5,0,0,1,.67,0l1.68,1.49a.5.5,0,0,1,.15.5L156,18.22a.5.5,0,0,1-.48.37Zm-1.17-6.66,1.16,4.24,1.12-4.24-1.11-1-.54.46Z" style="fill:#1e1e1e"/><polygon points="1033.84 39.66 1061.49 67 1006.09 66.94 1030.83 39.69 1033.84 39.66" style="fill:#232129"/><path d="M1061.49,67.5h0l-55.4-.06a.5.5,0,0,1-.37-.84l24.73-27.25a.5.5,0,0,1,.37-.16l3,0h0a.5.5,0,0,1,.35.14l27.65,27.34a.5.5,0,0,1-.35.86Zm-54.27-1.06,53.05.06-26.64-26.34-2.58,0Z" style="fill:#1e1e1e"/><rect x="1045.42" y="46.92" width="4" height="10.5" style="fill:#232129"/><path d="M1049.42,57.92h-4a.5.5,0,0,1-.5-.5V46.92a.5.5,0,0,1,.5-.5h4a.5.5,0,0,1,.5.5v10.5A.5.5,0,0,1,1049.42,57.92Zm-3.5-1h3v-9.5h-3Z" style="fill:#1e1e1e"/><rect x="1042.42" y="46.92" width="4" height="10.5" style="fill:#36344c"/><path d="M1046.42,57.92h-4a.5.5,0,0,1-.5-.5V46.92a.5.5,0,0,1,.5-.5h4a.5.5,0,0,1,.5.5v10.5A.5.5,0,0,1,1046.42,57.92Zm-3.5-1h3v-9.5h-3Z" style="fill:#1e1e1e"/><polygon points="1030.84 39.66 1058.49 67 1003.19 67 1030.84 39.66" style="fill:#2c2a33"/><path d="M1058.49,67.5h-55.3a.5.5,0,0,1-.35-.86l27.65-27.34a.5.5,0,0,1,.7,0l27.65,27.34a.5.5,0,0,1-.35.86Zm-54.09-1h52.87l-26.43-26.14Z" style="fill:#1e1e1e"/><rect x="1007.84" y="67.16" width="45.66" height="32.08" style="fill:#2c2a33"/><path d="M1053.5,99.75h-45.66a.5.5,0,0,1-.5-.5V67.16a.5.5,0,0,1,.5-.5h45.66a.5.5,0,0,1,.5.5V99.25A.5.5,0,0,1,1053.5,99.75Zm-45.16-1H1053V67.66h-44.66Z" style="fill:#1e1e1e"/><rect x="1007.84" y="83.95" width="45.66" height="8.07" style="fill:#2c2a33"/><path d="M1053.5,92.52h-45.66a.5.5,0,0,1-.5-.5V83.95a.5.5,0,0,1,.5-.5h45.66a.5.5,0,0,1,.5.5V92A.5.5,0,0,1,1053.5,92.52Zm-45.16-1H1053V84.45h-44.66Z" style="fill:#1e1e1e"/><rect x="1007.84" y="87.26" width="45.66" height="4.76" style="fill:#36344c"/><path d="M1053.5,92.52h-45.66a.5.5,0,0,1-.5-.5V87.26a.5.5,0,0,1,.5-.5h45.66a.5.5,0,0,1,.5.5V92A.5.5,0,0,1,1053.5,92.52Zm-45.16-1H1053V87.76h-44.66Z" style="fill:#1e1e1e"/><rect x="1018.42" y="72.35" width="7" height="11.6" style="fill:#36344c"/><path d="M1025.41,84.45h-7a.5.5,0,0,1-.5-.5V72.35a.5.5,0,0,1,.5-.5h7a.5.5,0,0,1,.5.5v11.6A.5.5,0,0,1,1025.41,84.45Zm-6.5-1h6V72.85h-6Z" style="fill:#1e1e1e"/><rect x="1027.58" y="52.18" width="7" height="8.32" style="fill:#36344c"/><path d="M1034.58,61h-7a.5.5,0,0,1-.5-.5V52.18a.5.5,0,0,1,.5-.5h7a.5.5,0,0,1,.5.5v8.32A.5.5,0,0,1,1034.58,61Zm-6.5-1h6V52.68h-6Z" style="fill:#1e1e1e"/><rect x="1036.91" y="72.35" width="7" height="11.6" style="fill:#9b8ce5"/><path d="M1043.91,84.45h-7a.5.5,0,0,1-.5-.5V72.35a.5.5,0,0,1,.5-.5h7a.5.5,0,0,1,.5.5v11.6A.5.5,0,0,1,1043.91,84.45Zm-6.5-1h6V72.85h-6Z" style="fill:#3a3a3a"/><polygon points="844.84 49.11 872.5 76.45 817.1 76.39 841.83 49.13 844.84 49.11" style="fill:#232129"/><path d="M872.5,76.95h0l-55.4-.06a.5.5,0,0,1-.37-.84L841.46,48.8a.5.5,0,0,1,.37-.16l3,0h0a.5.5,0,0,1,.35.14l27.65,27.34a.5.5,0,0,1-.35.86Zm-54.27-1.06,53,.06L844.64,49.61l-2.58,0Z" style="fill:#1e1e1e"/><rect x="856.43" y="56.36" width="4" height="10.5" style="fill:#232129"/><path d="M860.42,67.36h-4a.5.5,0,0,1-.5-.5V56.36a.5.5,0,0,1,.5-.5h4a.5.5,0,0,1,.5.5v10.5A.5.5,0,0,1,860.42,67.36Zm-3.5-1h3v-9.5h-3Z" style="fill:#1e1e1e"/><rect x="853.43" y="56.36" width="4" height="10.5" style="fill:#36344c"/><path d="M857.43,67.36h-4a.5.5,0,0,1-.5-.5V56.36a.5.5,0,0,1,.5-.5h4a.5.5,0,0,1,.5.5v10.5A.5.5,0,0,1,857.43,67.36Zm-3.5-1h3v-9.5h-3Z" style="fill:#1e1e1e"/><polygon points="841.85 49.11 869.5 76.45 814.19 76.45 841.85 49.11" style="fill:#2c2a33"/><path d="M869.5,76.95h-55.3a.5.5,0,0,1-.35-.86l27.65-27.34a.5.5,0,0,1,.7,0l27.65,27.34a.5.5,0,0,1-.35.86Zm-54.09-1h52.87L841.84,49.81Z" style="fill:#1e1e1e"/><rect x="818.85" y="76.61" width="45.66" height="22.48" style="fill:#2c2a33"/><path d="M864.51,99.58H818.85a.5.5,0,0,1-.5-.5V76.61a.5.5,0,0,1,.5-.5h45.66a.5.5,0,0,1,.5.5V99.08A.5.5,0,0,1,864.51,99.58Zm-45.16-1H864V77.11H819.35Z" style="fill:#1e1e1e"/><rect x="818.85" y="93.39" width="45.66" height="5.81" style="fill:#2c2a33"/><path d="M864.51,99.7H818.85a.5.5,0,0,1-.5-.5V93.39a.5.5,0,0,1,.5-.5h45.66a.5.5,0,0,1,.5.5V99.2A.5.5,0,0,1,864.51,99.7Zm-45.16-1H864V93.89H819.35Z" style="fill:#1e1e1e"/><rect x="818.85" y="96.7" width="45.66" height="2.5" style="fill:#36344c"/><path d="M864.51,99.7H818.85a.5.5,0,0,1-.5-.5V96.7a.5.5,0,0,1,.5-.5h45.66a.5.5,0,0,1,.5.5v2.5A.5.5,0,0,1,864.51,99.7Zm-45.16-1H864V97.2H819.35Z" style="fill:#1e1e1e"/><rect x="829.42" y="81.79" width="7" height="11.6" style="fill:#36344c"/><path d="M836.42,93.89h-7a.5.5,0,0,1-.5-.5V81.79a.5.5,0,0,1,.5-.5h7a.5.5,0,0,1,.5.5v11.6A.5.5,0,0,1,836.42,93.89Zm-6.5-1h6V82.29h-6Z" style="fill:#1e1e1e"/><rect x="838.59" y="61.63" width="7" height="8.32" style="fill:#36344c"/><path d="M845.58,70.45h-7a.5.5,0,0,1-.5-.5V61.63a.5.5,0,0,1,.5-.5h7a.5.5,0,0,1,.5.5V70A.5.5,0,0,1,845.58,70.45Zm-6.5-1h6V62.13h-6Z" style="fill:#1e1e1e"/><rect x="1056.36" y="38.23" width="65.99" height="19.04" style="fill:#232129"/><path d="M1122.35,57.76h-66a.5.5,0,0,1-.5-.5v-19a.5.5,0,0,1,.5-.5h66a.5.5,0,0,1,.5.5v19A.5.5,0,0,1,1122.35,57.76Zm-65.49-1h65v-18h-65Z" style="fill:#1e1e1e"/><polygon points="1122.52 38.1 1056.53 38.1 1066.53 31.82 1112.52 31.82 1122.52 38.1" style="fill:#232129"/><path d="M1122.52,38.6h-66a.5.5,0,0,1-.27-.92l10-6.28a.5.5,0,0,1,.27-.08h46a.5.5,0,0,1,.27.08l10,6.28a.5.5,0,0,1-.27.92Zm-64.25-1h62.52l-8.41-5.28h-45.7Z" style="fill:#1e1e1e"/><rect x="1053.36" y="38.23" width="65.99" height="19.04" style="fill:#2c2a33"/><path d="M1119.35,57.76h-66a.5.5,0,0,1-.5-.5v-19a.5.5,0,0,1,.5-.5h66a.5.5,0,0,1,.5.5v19A.5.5,0,0,1,1119.35,57.76Zm-65.49-1h65v-18h-65Z" style="fill:#1e1e1e"/><polygon points="1119.52 38.1 1053.53 38.1 1063.53 31.82 1109.52 31.82 1119.52 38.1" style="fill:#2c2a33"/><path d="M1119.52,38.6h-66a.5.5,0,0,1-.27-.92l10-6.28a.5.5,0,0,1,.27-.08h46a.5.5,0,0,1,.27.08l10,6.28a.5.5,0,0,1-.27.92Zm-64.25-1h62.52l-8.41-5.28h-45.7Z" style="fill:#1e1e1e"/><polygon points="1086.11 9.27 1089.02 9.23 1093.11 14.23 1093.11 22.06 1085.19 22.06 1086.11 9.27" style="fill:#232129"/><path d="M1093.11,22.56h-7.92a.5.5,0,0,1-.5-.54l.92-12.79a.5.5,0,0,1,.49-.46l2.92,0h0a.5.5,0,0,1,.39.18l4.08,5a.5.5,0,0,1,.11.32v7.83A.5.5,0,0,1,1093.11,22.56Zm-7.38-1h6.88V14.41l-3.82-4.67-2.22,0Z" style="fill:#1e1e1e"/><polygon points="1093.85 22.14 1084.19 22.14 1074.19 31.73 1103.85 31.73 1093.85 22.14" style="fill:#232129"/><path d="M1103.85,32.23h-29.66a.5.5,0,0,1-.35-.86l10-9.58a.5.5,0,0,1,.35-.14h9.66a.5.5,0,0,1,.35.14l10,9.58a.5.5,0,0,1-.35.86Zm-28.42-1h27.17l-9-8.58h-9.26Z" style="fill:#1e1e1e"/><polygon points="1090.86 22.14 1081.19 22.14 1071.19 31.73 1100.85 31.73 1090.86 22.14" style="fill:#2c2a33"/><path d="M1100.85,32.23h-29.66a.5.5,0,0,1-.35-.86l10-9.58a.5.5,0,0,1,.35-.14h9.66a.5.5,0,0,1,.35.14l10,9.58a.5.5,0,0,1-.35.86Zm-28.42-1h27.17l-9-8.58h-9.26Z" style="fill:#1e1e1e"/><rect x="1033.42" y="61.43" width="105.26" height="37.87" style="fill:#2c2a33"/><path d="M1138.68,99.8H1033.42a.5.5,0,0,1-.5-.5V61.43a.5.5,0,0,1,.5-.5h105.26a.5.5,0,0,1,.5.5V99.3A.5.5,0,0,1,1138.68,99.8Zm-104.76-1h104.26V61.93H1033.92Z" style="fill:#1e1e1e"/><rect x="1138.68" y="61.43" width="3.08" height="37.87" transform="translate(2280.44 160.72) rotate(180)" style="fill:#232129"/><path d="M1141.76,99.79h-3.08a.5.5,0,0,1-.5-.5V61.43a.5.5,0,0,1,.5-.5h3.08a.5.5,0,0,1,.5.5V99.29A.5.5,0,0,1,1141.76,99.79Zm-2.58-1h2.08V61.93h-2.08Z" style="fill:#1e1e1e"/><rect x="1069.97" y="61.43" width="32.17" height="37.87" style="fill:#2c2a33"/><path d="M1102.13,99.8H1070a.5.5,0,0,1-.5-.5V61.43a.5.5,0,0,1,.5-.5h32.17a.5.5,0,0,1,.5.5V99.3A.5.5,0,0,1,1102.13,99.8Zm-31.67-1h31.17V61.93h-31.17Z" style="fill:#1e1e1e"/><rect x="1049.44" y="61.43" width="6.32" height="37.86" transform="translate(2105.2 160.72) rotate(180)" style="fill:#2c2a33"/><path d="M1055.76,99.79h-6.32a.5.5,0,0,1-.5-.5V61.43a.5.5,0,0,1,.5-.5h6.32a.5.5,0,0,1,.5.5V99.29A.5.5,0,0,1,1055.76,99.79Zm-5.82-1h5.32V61.93h-5.32Z" style="fill:#1e1e1e"/><rect x="1117.18" y="61.43" width="6.32" height="37.87" transform="translate(2240.67 160.73) rotate(180)" style="fill:#2c2a33"/><path d="M1123.49,99.8h-6.31a.5.5,0,0,1-.5-.5V61.43a.5.5,0,0,1,.5-.5h6.31a.5.5,0,0,1,.5.5V99.3A.5.5,0,0,1,1123.49,99.8Zm-5.81-1H1123V61.93h-5.31Z" style="fill:#1e1e1e"/><line x1="1033.53" y1="80.84" x2="1138.43" y2="80.93" style="fill:#232129"/><path d="M1138.43,81.43h0l-104.9-.08a.5.5,0,0,1,0-1h0l104.9.08a.5.5,0,0,1,0,1Z" style="fill:#1e1e1e"/><line x1="1046.39" y1="84.84" x2="1058.42" y2="84.84" style="fill:#232129"/><path d="M1058.42,85.34h-12a.5.5,0,0,1,0-1h12a.5.5,0,0,1,0,1Z" style="fill:#1e1e1e"/><line x1="1114.38" y1="84.84" x2="1126.42" y2="84.84" style="fill:#232129"/><path d="M1126.42,85.34h-12a.5.5,0,0,1,0-1h12a.5.5,0,0,1,0,1Z" style="fill:#1e1e1e"/><line x1="1096.77" y1="81.09" x2="1096.77" y2="99.3" style="fill:#232129"/><path d="M1096.77,99.8a.5.5,0,0,1-.5-.5V81.09a.5.5,0,1,1,1,0V99.3A.5.5,0,0,1,1096.77,99.8Z" style="fill:#1e1e1e"/><line x1="1075.69" y1="81.09" x2="1075.69" y2="99.3" style="fill:#232129"/><path d="M1075.69,99.8a.5.5,0,0,1-.5-.5V81.09a.5.5,0,1,1,1,0V99.3A.5.5,0,0,1,1075.69,99.8Z" style="fill:#1e1e1e"/><polygon points="1082.19 56.93 1086.02 51.93 1090.11 56.93 1090.11 77.76 1082.19 77.76 1082.19 56.93" style="fill:#36344c"/><path d="M1090.11,78.26h-7.92a.5.5,0,0,1-.5-.5V56.93a.5.5,0,0,1,.1-.3l3.83-5a.5.5,0,0,1,.39-.2.48.48,0,0,1,.4.18l4.08,5a.5.5,0,0,1,.11.32V77.76A.5.5,0,0,1,1090.11,78.26Zm-7.42-1h6.92V57.11L1086,52.74l-3.35,4.36Z" style="fill:#1e1e1e"/><polygon points="1082.19 14.23 1086.02 9.23 1090.11 14.23 1090.11 22.06 1082.19 22.06 1082.19 14.23" style="fill:#2c2a33"/><path d="M1090.11,22.56h-7.92a.5.5,0,0,1-.5-.5V14.23a.5.5,0,0,1,.1-.3l3.83-5a.5.5,0,0,1,.39-.2.57.57,0,0,1,.4.18l4.08,5a.5.5,0,0,1,.11.32v7.83A.5.5,0,0,1,1090.11,22.56Zm-7.42-1h6.92V14.41L1086,10l-3.35,4.36Z" style="fill:#1e1e1e"/><path d="M1063.24,86.59h0a3,3,0,0,1,3,3V99a0,0,0,0,1,0,0h-5.92a0,0,0,0,1,0,0V89.55a3,3,0,0,1,3-3Z" style="fill:#36344c"/><path d="M1066.19,99.5h-5.92a.5.5,0,0,1-.5-.5V89.55a3.46,3.46,0,1,1,6.92,0V99A.5.5,0,0,1,1066.19,99.5Zm-5.42-1h4.92v-9a2.46,2.46,0,1,0-4.92,0Z" style="fill:#1e1e1e"/><path d="M1073.4,45.1h0a3,3,0,0,1,3,3v9.46a0,0,0,0,1,0,0h-5.92a0,0,0,0,1,0,0V48.05a3,3,0,0,1,3-3Z" style="fill:#36344c"/><path d="M1076.36,58h-5.92a.5.5,0,0,1-.5-.5V48.05a3.46,3.46,0,1,1,6.92,0v9.46A.5.5,0,0,1,1076.36,58Zm-5.42-1h4.92v-9a2.46,2.46,0,1,0-4.92,0Z" style="fill:#1e1e1e"/><path d="M1063.4,45.1h0a3,3,0,0,1,3,3v9.46a0,0,0,0,1,0,0h-5.92a0,0,0,0,1,0,0V48.05A3,3,0,0,1,1063.4,45.1Z" style="fill:#36344c"/><path d="M1066.36,58h-5.92a.5.5,0,0,1-.5-.5V48.05a3.46,3.46,0,1,1,6.92,0v9.46A.5.5,0,0,1,1066.36,58Zm-5.42-1h4.92v-9a2.46,2.46,0,1,0-4.92,0Z" style="fill:#1e1e1e"/><path d="M1109.4,45.1h0a3,3,0,0,1,3,3v9.46a0,0,0,0,1,0,0h-5.92a0,0,0,0,1,0,0V48.05A3,3,0,0,1,1109.4,45.1Z" style="fill:#36344c"/><path d="M1112.36,58h-5.92a.5.5,0,0,1-.5-.5V48.05a3.46,3.46,0,0,1,6.92,0v9.46A.5.5,0,0,1,1112.36,58Zm-5.42-1h4.92v-9a2.46,2.46,0,0,0-4.92,0Z" style="fill:#1e1e1e"/><path d="M1099.4,45.1h0a3,3,0,0,1,3,3v9.46a0,0,0,0,1,0,0h-5.92a0,0,0,0,1,0,0V48.05a3,3,0,0,1,3-3Z" style="fill:#36344c"/><path d="M1102.36,58h-5.92a.5.5,0,0,1-.5-.5V48.05a3.46,3.46,0,1,1,6.92,0v9.46A.5.5,0,0,1,1102.36,58Zm-5.42-1h4.92v-9a2.46,2.46,0,1,0-4.92,0Z" style="fill:#1e1e1e"/><path d="M1042.24,86.59h0a3,3,0,0,1,3,3V99a0,0,0,0,1,0,0h-5.92a0,0,0,0,1,0,0V89.55A3,3,0,0,1,1042.24,86.59Z" style="fill:#36344c"/><path d="M1045.2,99.5h-5.92a.5.5,0,0,1-.5-.5V89.55a3.46,3.46,0,1,1,6.92,0V99A.5.5,0,0,1,1045.2,99.5Zm-5.42-1h4.92v-9a2.46,2.46,0,1,0-4.92,0Z" style="fill:#1e1e1e"/><rect x="1060.28" y="67.34" width="5.92" height="8.42" style="fill:#36344c"/><path d="M1066.19,76.26h-5.92a.5.5,0,0,1-.5-.5V67.34a.5.5,0,0,1,.5-.5h5.92a.5.5,0,0,1,.5.5v8.42A.5.5,0,0,1,1066.19,76.26Zm-5.42-1h4.92V67.84h-4.92Z" style="fill:#1e1e1e"/><rect x="1039.28" y="67.34" width="5.92" height="8.42" style="fill:#36344c"/><path d="M1045.2,76.26h-5.92a.5.5,0,0,1-.5-.5V67.34a.5.5,0,0,1,.5-.5h5.92a.5.5,0,0,1,.5.5v8.42A.5.5,0,0,1,1045.2,76.26Zm-5.42-1h4.92V67.84h-4.92Z" style="fill:#1e1e1e"/><path d="M1131.89,86.59h0a3,3,0,0,1,3,3V99a0,0,0,0,1,0,0h-5.92a0,0,0,0,1,0,0V89.55A3,3,0,0,1,1131.89,86.59Z" style="fill:#36344c"/><path d="M1134.85,99.5h-5.92a.5.5,0,0,1-.5-.5V89.55a3.46,3.46,0,1,1,6.92,0V99A.5.5,0,0,1,1134.85,99.5Zm-5.42-1h4.92v-9a2.46,2.46,0,1,0-4.92,0Z" style="fill:#1e1e1e"/><path d="M1110.89,86.59h0a3,3,0,0,1,3,3V99a0,0,0,0,1,0,0h-5.92a0,0,0,0,1,0,0V89.55a3,3,0,0,1,3-3Z" style="fill:#36344c"/><path d="M1113.85,99.5h-5.92a.5.5,0,0,1-.5-.5V89.55a3.46,3.46,0,1,1,6.92,0V99A.5.5,0,0,1,1113.85,99.5Zm-5.42-1h4.92v-9a2.46,2.46,0,1,0-4.92,0Z" style="fill:#1e1e1e"/><path d="M1081.89,86.59h0a3,3,0,0,1,3,3V99a0,0,0,0,1,0,0h-5.92a0,0,0,0,1,0,0V89.55A3,3,0,0,1,1081.89,86.59Z" style="fill:#36344c"/><path d="M1084.85,99.5h-5.92a.5.5,0,0,1-.5-.5V89.55a3.46,3.46,0,1,1,6.92,0V99A.5.5,0,0,1,1084.85,99.5Zm-5.42-1h4.92v-9a2.46,2.46,0,1,0-4.92,0Z" style="fill:#1e1e1e"/><path d="M1089.89,86.59h0a3,3,0,0,1,3,3V99a0,0,0,0,1,0,0h-5.92a0,0,0,0,1,0,0V89.55A3,3,0,0,1,1089.89,86.59Z" style="fill:#36344c"/><path d="M1092.85,99.5h-5.92a.5.5,0,0,1-.5-.5V89.55a3.46,3.46,0,1,1,6.92,0V99A.5.5,0,0,1,1092.85,99.5Zm-5.42-1h4.92v-9a2.46,2.46,0,1,0-4.92,0Z" style="fill:#1e1e1e"/><rect x="1128.93" y="67.34" width="5.92" height="8.42" style="fill:#36344c"/><path d="M1134.85,76.26h-5.92a.5.5,0,0,1-.5-.5V67.34a.5.5,0,0,1,.5-.5h5.92a.5.5,0,0,1,.5.5v8.42A.5.5,0,0,1,1134.85,76.26Zm-5.42-1h4.92V67.84h-4.92Z" style="fill:#1e1e1e"/><rect x="1107.93" y="67.34" width="5.92" height="8.42" style="fill:#36344c"/><path d="M1113.85,76.26h-5.92a.5.5,0,0,1-.5-.5V67.34a.5.5,0,0,1,.5-.5h5.92a.5.5,0,0,1,.5.5v8.42A.5.5,0,0,1,1113.85,76.26Zm-5.42-1h4.92V67.84h-4.92Z" style="fill:#1e1e1e"/><polygon points="1131.68 57.49 1046.42 57.49 1036.42 61.43 1141.68 61.43 1131.68 57.49" style="fill:#232129"/><path d="M1141.68,61.93H1036.42a.5.5,0,0,1-.18-1l10-3.94a.49.49,0,0,1,.18,0h85.26a.49.49,0,0,1,.18,0l10,3.94a.5.5,0,0,1-.18,1Zm-102.63-1h100L1131.59,58h-85.07Z" style="fill:#1e1e1e"/><polygon points="1128.68 57.49 1043.42 57.49 1033.42 61.43 1138.68 61.43 1128.68 57.49" style="fill:#2c2a33"/><path d="M1138.68,61.93H1033.42a.5.5,0,0,1-.18-1l10-3.94a.49.49,0,0,1,.18,0h85.26a.49.49,0,0,1,.18,0l10,3.94a.5.5,0,0,1-.18,1Zm-102.63-1h100L1128.59,58h-85.07Z" style="fill:#1e1e1e"/><rect x="892.43" y="64.43" width="63.99" height="34.77" style="fill:#2c2a33"/><path d="M956.42,99.7h-64a.5.5,0,0,1-.5-.5V64.43a.5.5,0,0,1,.5-.5h64a.5.5,0,0,1,.5.5V99.2A.5.5,0,0,1,956.42,99.7Zm-63.49-1h63V64.93h-63Z" style="fill:#1e1e1e"/><rect x="962.3" y="72.59" width="54.99" height="7.62" style="fill:#2c2a33"/><path d="M1017.29,80.72h-55a.5.5,0,0,1-.5-.5V72.59a.5.5,0,0,1,.5-.5h55a.5.5,0,0,1,.5.5v7.62A.5.5,0,0,1,1017.29,80.72Zm-54.49-1h54V73.09h-54Z" style="fill:#1e1e1e"/><polygon points="972.79 64.97 993.04 64.97 1030.45 72.59 972.79 72.59 972.79 64.97" style="fill:#232129"/><path d="M1030.45,73.09H972.79a.5.5,0,0,1-.5-.5V65a.5.5,0,0,1,.5-.5h20.35l37.4,7.62a.5.5,0,0,1-.1,1Zm-57.15-1h52.19L993,65.47h-19.7Z" style="fill:#1e1e1e"/><polygon points="964.8 64.97 984.04 64.97 1021.45 72.59 964.8 72.59 964.8 64.97" style="fill:#2c2a33"/><path d="M1021.45,73.09H964.8a.5.5,0,0,1-.5-.5V65a.5.5,0,0,1,.5-.5h19.35l37.41,7.62a.5.5,0,0,1-.1,1Zm-56.15-1h51.19L984,65.47H965.3Z" style="fill:#1e1e1e"/><rect x="994.13" y="80.17" width="9.25" height="4.88" style="fill:#232129"/><path d="M1003.38,85.56h-9.25a.5.5,0,0,1-.5-.5V80.17a.5.5,0,0,1,.5-.5h9.25a.5.5,0,0,1,.5.5v4.88A.5.5,0,0,1,1003.38,85.56Zm-8.75-1h8.25V80.67h-8.25Z" style="fill:#1e1e1e"/><rect x="995.75" y="84.98" width="6.09" height="14.32" style="fill:#232129"/><path d="M1001.84,99.8h-6.09a.5.5,0,0,1-.5-.5V85a.5.5,0,0,1,.5-.5h6.09a.5.5,0,0,1,.5.5V99.3A.5.5,0,0,1,1001.84,99.8Zm-5.59-1h5.09V85.48h-5.09Z" style="fill:#1e1e1e"/><rect x="986.17" y="80.04" width="6.09" height="19.2" style="fill:#232129"/><path d="M992.26,99.75h-6.09a.5.5,0,0,1-.5-.5V80a.5.5,0,0,1,.5-.5h6.09a.5.5,0,0,1,.5.5v19.2A.5.5,0,0,1,992.26,99.75Zm-5.59-1h5.09V80.54h-5.09Z" style="fill:#1e1e1e"/><rect x="1006.88" y="80.17" width="9.25" height="4.88" style="fill:#232129"/><path d="M1016.13,85.56h-9.25a.5.5,0,0,1-.5-.5V80.17a.5.5,0,0,1,.5-.5h9.25a.5.5,0,0,1,.5.5v4.88A.5.5,0,0,1,1016.13,85.56Zm-8.75-1h8.25V80.67h-8.25Z" style="fill:#1e1e1e"/><rect x="1008.5" y="84.98" width="6.09" height="14.32" style="fill:#232129"/><path d="M1014.59,99.8h-6.09a.5.5,0,0,1-.5-.5V85a.5.5,0,0,1,.5-.5h6.09a.5.5,0,0,1,.5.5V99.3A.5.5,0,0,1,1014.59,99.8Zm-5.59-1h5.09V85.48H1009Z" style="fill:#1e1e1e"/><rect x="992.13" y="80.17" width="9.25" height="4.88" style="fill:#2c2a33"/><path d="M1001.38,85.56h-9.25a.5.5,0,0,1-.5-.5V80.17a.5.5,0,0,1,.5-.5h9.25a.5.5,0,0,1,.5.5v4.88A.5.5,0,0,1,1001.38,85.56Zm-8.75-1h8.25V80.67h-8.25Z" style="fill:#1e1e1e"/><rect x="993.75" y="84.98" width="6.09" height="14.32" style="fill:#2c2a33"/><path d="M999.84,99.8h-6.09a.5.5,0,0,1-.5-.5V85a.5.5,0,0,1,.5-.5h6.09a.5.5,0,0,1,.5.5V99.3A.5.5,0,0,1,999.84,99.8Zm-5.59-1h5.09V85.48h-5.09Z" style="fill:#1e1e1e"/><rect x="1004.88" y="80.17" width="9.25" height="4.88" style="fill:#2c2a33"/><path d="M1014.13,85.56h-9.25a.5.5,0,0,1-.5-.5V80.17a.5.5,0,0,1,.5-.5h9.25a.5.5,0,0,1,.5.5v4.88A.5.5,0,0,1,1014.13,85.56Zm-8.75-1h8.25V80.67h-8.25Z" style="fill:#1e1e1e"/><rect x="1006.5" y="84.98" width="6.09" height="14.32" style="fill:#2c2a33"/><path d="M1012.59,99.8h-6.09a.5.5,0,0,1-.5-.5V85a.5.5,0,0,1,.5-.5h6.09a.5.5,0,0,1,.5.5V99.3A.5.5,0,0,1,1012.59,99.8Zm-5.59-1h5.09V85.48H1007Z" style="fill:#1e1e1e"/><rect x="961.3" y="80.22" width="28.99" height="18.92" style="fill:#2c2a33"/><path d="M990.29,99.64h-29a.5.5,0,0,1-.5-.5V80.22a.5.5,0,0,1,.5-.5h29a.5.5,0,0,1,.5.5V99.14A.5.5,0,0,1,990.29,99.64Zm-28.5-1h28V80.72h-28Z" style="fill:#1e1e1e"/><rect x="830.73" y="72.47" width="54.99" height="7.62" transform="translate(1716.45 152.56) rotate(-180)" style="fill:#2c2a33"/><path d="M885.72,80.59h-55a.5.5,0,0,1-.5-.5V72.47a.5.5,0,0,1,.5-.5h55a.5.5,0,0,1,.5.5v7.62A.5.5,0,0,1,885.72,80.59Zm-54.49-1h54V73h-54Z" style="fill:#1e1e1e"/><polygon points="883.22 64.84 863.98 64.84 826.57 72.47 883.22 72.47 883.22 64.84" style="fill:#2c2a33"/><path d="M883.22,73H826.57a.5.5,0,0,1-.1-1l37.41-7.62h19.35a.5.5,0,0,1,.5.5v7.62A.5.5,0,0,1,883.22,73Zm-51.69-1h51.19V65.34H864Z" style="fill:#1e1e1e"/><rect x="846.64" y="80.17" width="9.25" height="4.88" transform="translate(1702.52 165.23) rotate(-180)" style="fill:#232129"/><path d="M855.89,85.56h-9.25a.5.5,0,0,1-.5-.5V80.17a.5.5,0,0,1,.5-.5h9.25a.5.5,0,0,1,.5.5v4.88A.5.5,0,0,1,855.89,85.56Zm-8.75-1h8.25V80.67h-8.25Z" style="fill:#1e1e1e"/><rect x="848.18" y="85.02" width="6.09" height="14.28" transform="translate(1702.44 184.32) rotate(-180)" style="fill:#232129"/><path d="M854.26,99.8h-6.09a.5.5,0,0,1-.5-.5V85a.5.5,0,0,1,.5-.5h6.09a.5.5,0,0,1,.5.5V99.3A.5.5,0,0,1,854.26,99.8Zm-5.59-1h5.09V85.52h-5.09Z" style="fill:#1e1e1e"/><rect x="833.89" y="80.17" width="9.25" height="4.88" transform="translate(1677.03 165.23) rotate(-180)" style="fill:#232129"/><path d="M843.14,85.56h-9.25a.5.5,0,0,1-.5-.5V80.17a.5.5,0,0,1,.5-.5h9.25a.5.5,0,0,1,.5.5v4.88A.5.5,0,0,1,843.14,85.56Zm-8.75-1h8.25V80.67h-8.25Z" style="fill:#1e1e1e"/><rect x="835.43" y="85.02" width="6.09" height="14.28" transform="translate(1676.95 184.32) rotate(-180)" style="fill:#232129"/><path d="M841.52,99.8h-6.09a.5.5,0,0,1-.5-.5V85a.5.5,0,0,1,.5-.5h6.09a.5.5,0,0,1,.5.5V99.3A.5.5,0,0,1,841.52,99.8Zm-5.59-1H841V85.52h-5.09Z" style="fill:#1e1e1e"/><rect x="844.64" y="80.17" width="9.25" height="4.88" transform="translate(1698.53 165.23) rotate(-180)" style="fill:#2c2a33"/><path d="M853.89,85.56h-9.25a.5.5,0,0,1-.5-.5V80.17a.5.5,0,0,1,.5-.5h9.25a.5.5,0,0,1,.5.5v4.88A.5.5,0,0,1,853.89,85.56Zm-8.75-1h8.25V80.67h-8.25Z" style="fill:#1e1e1e"/><rect x="846.18" y="85.02" width="6.09" height="14.28" transform="translate(1698.44 184.32) rotate(-180)" style="fill:#2c2a33"/><path d="M852.26,99.8h-6.09a.5.5,0,0,1-.5-.5V85a.5.5,0,0,1,.5-.5h6.09a.5.5,0,0,1,.5.5V99.3A.5.5,0,0,1,852.26,99.8Zm-5.59-1h5.09V85.52h-5.09Z" style="fill:#1e1e1e"/><rect x="831.89" y="80.17" width="9.25" height="4.88" transform="translate(1673.03 165.23) rotate(-180)" style="fill:#2c2a33"/><path d="M841.14,85.56h-9.25a.5.5,0,0,1-.5-.5V80.17a.5.5,0,0,1,.5-.5h9.25a.5.5,0,0,1,.5.5v4.88A.5.5,0,0,1,841.14,85.56Zm-8.75-1h8.25V80.67h-8.25Z" style="fill:#1e1e1e"/><rect x="833.43" y="85.02" width="6.09" height="14.28" transform="translate(1672.95 184.32) rotate(-180)" style="fill:#2c2a33"/><path d="M839.52,99.8h-6.09a.5.5,0,0,1-.5-.5V85a.5.5,0,0,1,.5-.5h6.09a.5.5,0,0,1,.5.5V99.3A.5.5,0,0,1,839.52,99.8Zm-5.59-1H839V85.52h-5.09Z" style="fill:#1e1e1e"/><rect x="857.73" y="80.09" width="28.99" height="19.11" transform="translate(1744.45 179.29) rotate(-180)" style="fill:#2c2a33"/><path d="M886.72,99.7h-29a.5.5,0,0,1-.5-.5V80.09a.5.5,0,0,1,.5-.5h29a.5.5,0,0,1,.5.5V99.2A.5.5,0,0,1,886.72,99.7Zm-28.5-1h28V80.59h-28Z" style="fill:#1e1e1e"/><rect x="874.44" y="90.51" width="5.07" height="8.69" transform="translate(1753.95 189.71) rotate(-180)" style="fill:#36344c"/><path d="M879.51,99.7h-5.07a.5.5,0,0,1-.5-.5V90.51a.5.5,0,0,1,.5-.5h5.07a.5.5,0,0,1,.5.5V99.2A.5.5,0,0,1,879.51,99.7Zm-4.57-1H879V91h-4.07Z" style="fill:#1e1e1e"/><rect x="862.44" y="90.51" width="5.07" height="8.69" transform="translate(1729.95 189.71) rotate(-180)" style="fill:#36344c"/><path d="M867.51,99.7h-5.07a.5.5,0,0,1-.5-.5V90.51a.5.5,0,0,1,.5-.5h5.07a.5.5,0,0,1,.5.5V99.2A.5.5,0,0,1,867.51,99.7Zm-4.57-1H867V91h-4.07Z" style="fill:#1e1e1e"/><rect x="980.25" y="90.51" width="5.07" height="8.69" transform="translate(1965.58 189.71) rotate(-180)" style="fill:#36344c"/><path d="M985.33,99.7h-5.07a.5.5,0,0,1-.5-.5V90.51a.5.5,0,0,1,.5-.5h5.07a.5.5,0,0,1,.5.5V99.2A.5.5,0,0,1,985.33,99.7Zm-4.57-1h4.07V91h-4.07Z" style="fill:#1e1e1e"/><rect x="968.25" y="90.51" width="5.07" height="8.69" transform="translate(1941.58 189.71) rotate(-180)" style="fill:#36344c"/><path d="M973.33,99.7h-5.08a.5.5,0,0,1-.5-.5V90.51a.5.5,0,0,1,.5-.5h5.08a.5.5,0,0,1,.5.5V99.2A.5.5,0,0,1,973.33,99.7Zm-4.58-1h4.08V91h-4.08Z" style="fill:#1e1e1e"/><rect x="938.95" y="61.18" width="26" height="11.25" style="fill:#232129"/><path d="M964.94,72.93h-26a.5.5,0,0,1-.5-.5V61.18a.5.5,0,0,1,.5-.5h26a.5.5,0,0,1,.5.5V72.43A.5.5,0,0,1,964.94,72.93Zm-25.5-1h25V61.68h-25Z" style="fill:#1e1e1e"/><rect x="883.12" y="61.22" width="26" height="11.25" style="fill:#232129"/><path d="M909.12,73h-26a.5.5,0,0,1-.5-.5V61.22a.5.5,0,0,1,.5-.5h26a.5.5,0,0,1,.5.5V72.47A.5.5,0,0,1,909.12,73Zm-25.5-1h25V61.72h-25Z" style="fill:#1e1e1e"/><rect x="883.12" y="61.22" width="23.84" height="11.25" style="fill:#2c2a33"/><path d="M907,73H883.12a.5.5,0,0,1-.5-.5V61.22a.5.5,0,0,1,.5-.5H907a.5.5,0,0,1,.5.5V72.47A.5.5,0,0,1,907,73Zm-23.34-1h22.84V61.72H883.62Z" style="fill:#1e1e1e"/><rect x="938.92" y="61.22" width="23.84" height="11.25" style="fill:#2c2a33"/><path d="M962.77,73H938.92a.5.5,0,0,1-.5-.5V61.22a.5.5,0,0,1,.5-.5h23.84a.5.5,0,0,1,.5.5V72.47A.5.5,0,0,1,962.77,73Zm-23.34-1h22.84V61.72H939.42Z" style="fill:#1e1e1e"/><polygon points="930.12 40.91 973.85 61.25 968.19 61.22 924.12 40.91 930.12 40.91" style="fill:#232129"/><path d="M973.85,61.75h0l-5.66,0a.48.48,0,0,1-.21,0L923.91,41.37a.5.5,0,0,1,.21-1h6a.49.49,0,0,1,.21,0L974.06,60.8a.5.5,0,0,1-.21,1Zm-5.55-1,3.26,0L930,41.41H926.4Z" style="fill:#1e1e1e"/><polygon points="924.12 40.91 967.85 61.25 880.38 61.25 924.12 40.91" style="fill:#2c2a33"/><path d="M967.85,61.75H880.38a.5.5,0,0,1-.21-1L923.9,40.46a.5.5,0,0,1,.42,0L968.06,60.8a.5.5,0,0,1-.21,1Zm-85.21-1h83L924.12,41.47Z" style="fill:#1e1e1e"/><path d="M909.1,64.66a14.91,14.91,0,1,1,29.83,0Z" style="fill:#232129"/><path d="M938.92,65.16H909.1a.5.5,0,0,1-.5-.5,15.41,15.41,0,1,1,30.83,0A.5.5,0,0,1,938.92,65.16Zm-29.32-1h28.81a14.41,14.41,0,0,0-28.81,0Z" style="fill:#1e1e1e"/><path d="M911.41,64.66a13.76,13.76,0,1,1,27.52,0Z" style="fill:#2c2a33"/><path d="M938.92,65.16H911.41a.5.5,0,0,1-.5-.5,14.26,14.26,0,1,1,28.52,0A.5.5,0,0,1,938.92,65.16Zm-27-1h26.5a13.25,13.25,0,0,0-26.5,0Z" style="fill:#1e1e1e"/><path d="M909.06,64.61v7.83h11.57a3.61,3.61,0,0,1,7.14,0H939V64.61Z" style="fill:#2c2a33"/><path d="M939,72.95H927.77a.5.5,0,0,1-.49-.43,3.11,3.11,0,0,0-6.15,0,.5.5,0,0,1-.49.43H909.06a.5.5,0,0,1-.5-.5V64.61a.5.5,0,0,1,.5-.5H939a.5.5,0,0,1,.5.5v7.83A.5.5,0,0,1,939,72.95Zm-10.78-1h10.28V65.11h-28.9v6.83h10.66a4.11,4.11,0,0,1,8,0Z" style="fill:#1e1e1e"/><line x1="892.43" y1="94.71" x2="956.3" y2="94.71" style="fill:#232129"/><path d="M956.3,95.21H892.43a.5.5,0,0,1,0-1H956.3a.5.5,0,0,1,0,1Z" style="fill:#1e1e1e"/><line x1="892.43" y1="99.08" x2="956.3" y2="99.08" style="fill:#232129"/><path d="M956.3,99.58H892.43a.5.5,0,0,1,0-1H956.3a.5.5,0,0,1,0,1Z" style="fill:#1e1e1e"/><line x1="906.43" y1="85.71" x2="942.3" y2="85.71" style="fill:#232129"/><path d="M942.3,86.21H906.43a.5.5,0,0,1,0-1H942.3a.5.5,0,1,1,0,1Z" style="fill:#1e1e1e"/><rect x="885.68" y="72.47" width="9.25" height="5.12" style="fill:#232129"/><path d="M894.93,78.09h-9.25a.5.5,0,0,1-.5-.5V72.47a.5.5,0,0,1,.5-.5h9.25a.5.5,0,0,1,.5.5v5.13A.5.5,0,0,1,894.93,78.09Zm-8.75-1h8.25V73h-8.25Z" style="fill:#1e1e1e"/><rect x="887.27" y="77.59" width="6.09" height="21.61" style="fill:#232129"/><path d="M893.35,99.7h-6.09a.5.5,0,0,1-.5-.5V77.59a.5.5,0,0,1,.5-.5h6.09a.5.5,0,0,1,.5.5V99.2A.5.5,0,0,1,893.35,99.7Zm-5.59-1h5.09V78.09h-5.09Z" style="fill:#1e1e1e"/><rect x="899.68" y="72.47" width="9.25" height="5.12" style="fill:#232129"/><path d="M908.93,78.09h-9.25a.5.5,0,0,1-.5-.5V72.47a.5.5,0,0,1,.5-.5h9.25a.5.5,0,0,1,.5.5v5.13A.5.5,0,0,1,908.93,78.09Zm-8.75-1h8.25V73h-8.25Z" style="fill:#1e1e1e"/><rect x="901.26" y="77.59" width="6.09" height="21.61" style="fill:#232129"/><path d="M907.35,99.7h-6.09a.5.5,0,0,1-.5-.5V77.59a.5.5,0,0,1,.5-.5h6.09a.5.5,0,0,1,.5.5V99.2A.5.5,0,0,1,907.35,99.7Zm-5.59-1h5.09V78.09h-5.09Z" style="fill:#1e1e1e"/><rect x="941.68" y="72.47" width="9.25" height="5.12" style="fill:#232129"/><path d="M950.93,78.09h-9.25a.5.5,0,0,1-.5-.5V72.47a.5.5,0,0,1,.5-.5h9.25a.5.5,0,0,1,.5.5v5.13A.5.5,0,0,1,950.93,78.09Zm-8.75-1h8.25V73h-8.25Z" style="fill:#1e1e1e"/><rect x="943.26" y="77.59" width="6.09" height="21.49" style="fill:#232129"/><path d="M949.35,99.58h-6.09a.5.5,0,0,1-.5-.5V77.59a.5.5,0,0,1,.5-.5h6.09a.5.5,0,0,1,.5.5V99.08A.5.5,0,0,1,949.35,99.58Zm-5.59-1h5.09V78.09h-5.09Z" style="fill:#1e1e1e"/><rect x="955.68" y="72.47" width="9.25" height="5.12" style="fill:#232129"/><path d="M964.93,78.09h-9.25a.5.5,0,0,1-.5-.5V72.47a.5.5,0,0,1,.5-.5h9.25a.5.5,0,0,1,.5.5v5.13A.5.5,0,0,1,964.93,78.09Zm-8.75-1h8.25V73h-8.25Z" style="fill:#1e1e1e"/><rect x="957.26" y="77.59" width="6.09" height="21.49" style="fill:#232129"/><path d="M963.35,99.58h-6.09a.5.5,0,0,1-.5-.5V77.59a.5.5,0,0,1,.5-.5h6.09a.5.5,0,0,1,.5.5V99.08A.5.5,0,0,1,963.35,99.58Zm-5.59-1h5.09V78.09h-5.09Z" style="fill:#1e1e1e"/><rect x="883.68" y="72.47" width="9.25" height="5.12" style="fill:#2c2a33"/><path d="M892.93,78.09h-9.25a.5.5,0,0,1-.5-.5V72.47a.5.5,0,0,1,.5-.5h9.25a.5.5,0,0,1,.5.5v5.13A.5.5,0,0,1,892.93,78.09Zm-8.75-1h8.25V73h-8.25Z" style="fill:#1e1e1e"/><rect x="885.27" y="77.59" width="6.09" height="21.61" style="fill:#2c2a33"/><path d="M891.35,99.7h-6.09a.5.5,0,0,1-.5-.5V77.59a.5.5,0,0,1,.5-.5h6.09a.5.5,0,0,1,.5.5V99.2A.5.5,0,0,1,891.35,99.7Zm-5.59-1h5.09V78.09h-5.09Z" style="fill:#1e1e1e"/><rect x="897.68" y="72.47" width="9.25" height="5.12" style="fill:#2c2a33"/><path d="M906.93,78.09h-9.25a.5.5,0,0,1-.5-.5V72.47a.5.5,0,0,1,.5-.5h9.25a.5.5,0,0,1,.5.5v5.13A.5.5,0,0,1,906.93,78.09Zm-8.75-1h8.25V73h-8.25Z" style="fill:#1e1e1e"/><rect x="899.26" y="77.59" width="6.09" height="21.61" style="fill:#2c2a33"/><path d="M905.35,99.7h-6.09a.5.5,0,0,1-.5-.5V77.59a.5.5,0,0,1,.5-.5h6.09a.5.5,0,0,1,.5.5V99.2A.5.5,0,0,1,905.35,99.7Zm-5.59-1h5.09V78.09h-5.09Z" style="fill:#1e1e1e"/><rect x="939.68" y="72.47" width="9.25" height="5.12" style="fill:#2c2a33"/><path d="M948.93,78.09h-9.25a.5.5,0,0,1-.5-.5V72.47a.5.5,0,0,1,.5-.5h9.25a.5.5,0,0,1,.5.5v5.13A.5.5,0,0,1,948.93,78.09Zm-8.75-1h8.25V73h-8.25Z" style="fill:#1e1e1e"/><rect x="941.26" y="77.59" width="6.09" height="21.49" style="fill:#2c2a33"/><path d="M947.35,99.58h-6.09a.5.5,0,0,1-.5-.5V77.59a.5.5,0,0,1,.5-.5h6.09a.5.5,0,0,1,.5.5V99.08A.5.5,0,0,1,947.35,99.58Zm-5.59-1h5.09V78.09h-5.09Z" style="fill:#1e1e1e"/><rect x="953.68" y="72.47" width="9.25" height="5.12" style="fill:#2c2a33"/><path d="M962.93,78.09h-9.25a.5.5,0,0,1-.5-.5V72.47a.5.5,0,0,1,.5-.5h9.25a.5.5,0,0,1,.5.5v5.13A.5.5,0,0,1,962.93,78.09Zm-8.75-1h8.25V73h-8.25Z" style="fill:#1e1e1e"/><rect x="955.26" y="77.59" width="6.09" height="21.49" style="fill:#2c2a33"/><path d="M961.35,99.58h-6.09a.5.5,0,0,1-.5-.5V77.59a.5.5,0,0,1,.5-.5h6.09a.5.5,0,0,1,.5.5V99.08A.5.5,0,0,1,961.35,99.58Zm-5.59-1h5.09V78.09h-5.09Z" style="fill:#1e1e1e"/><rect x="919.93" y="81.89" width="9.01" height="16.85" style="fill:#36344c"/><path d="M928.93,99.24h-9a.5.5,0,0,1-.5-.5V81.89a.5.5,0,0,1,.5-.5h9a.5.5,0,0,1,.5.5V98.74A.5.5,0,0,1,928.93,99.24Zm-8.51-1h8V82.39h-8Z" style="fill:#1e1e1e"/><rect x="965" y="61.28" width="2.49" height="3.75" style="fill:#232129"/><path d="M967.49,65.53H965a.5.5,0,0,1-.5-.5V61.28a.5.5,0,0,1,.5-.5h2.49a.5.5,0,0,1,.5.5V65A.5.5,0,0,1,967.49,65.53Zm-2-1H967V61.78H965.5Z" style="fill:#1e1e1e"/><rect x="1017.37" y="72.69" width="2.4" height="7.51" style="fill:#232129"/><path d="M1019.78,80.7h-2.4a.5.5,0,0,1-.5-.5v-7.5a.5.5,0,0,1,.5-.5h2.4a.5.5,0,0,1,.5.5v7.5A.5.5,0,0,1,1019.78,80.7Zm-1.9-1h1.4v-6.5h-1.4Z" style="fill:#1e1e1e"/></g></g></svg>