<svg xmlns="http://www.w3.org/2000/svg" viewBox="0 0 300.67 18.96"><title>bottom tree mobile</title><g id="Слой_2" data-name="Слой 2"><g id="pomost"><rect x="59.81" y="12.95" width="1.38" height="2.45" style="fill:#7d66d1"/><path d="M61.19,15.6H59.81a.2.2,0,0,1-.2-.2V12.95a.2.2,0,0,1,.2-.2h1.38a.2.2,0,0,1,.2.2V15.4A.2.2,0,0,1,61.19,15.6ZM60,15.2h1v-2H60Z" style="fill:#4f4f4f"/><rect x="58.27" y="2.95" width="1.38" height="1.38" rx="0.69" ry="0.69" style="fill:#fff"/><path d="M59.13,4.53h-.34a.72.72,0,0,1-.72-.72V3.47a.72.72,0,0,1,.72-.72h.34a.72.72,0,0,1,.72.72v.34A.72.72,0,0,1,59.13,4.53Zm-.34-1.38a.32.32,0,0,0-.32.32v.34a.32.32,0,0,0,.32.32h.34a.32.32,0,0,0,.32-.32V3.47a.32.32,0,0,0-.32-.32Z" style="fill:#4f4f4f"/><rect x="59.81" y="0.2" width="1.38" height="1.38" rx="0.69" ry="0.69" style="fill:#fff"/><path d="M60.67,1.78h-.34a.72.72,0,0,1-.72-.72V.72A.72.72,0,0,1,60.33,0h.34a.72.72,0,0,1,.72.72v.34A.72.72,0,0,1,60.67,1.78ZM60.33.4A.32.32,0,0,0,60,.72v.34a.32.32,0,0,0,.32.32h.34A.32.32,0,0,0,61,1.06V.72A.32.32,0,0,0,60.67.4Z" style="fill:#4f4f4f"/><rect x="61.35" y="1.71" width="1.38" height="1.38" rx="0.69" ry="0.69" style="fill:#fff"/><path d="M62.21,3.29h-.34a.72.72,0,0,1-.72-.72V2.22a.72.72,0,0,1,.72-.72h.34a.72.72,0,0,1,.72.72v.34A.72.72,0,0,1,62.21,3.29Zm-.34-1.38a.32.32,0,0,0-.32.32v.34a.32.32,0,0,0,.32.32h.34a.32.32,0,0,0,.32-.32V2.22a.32.32,0,0,0-.32-.32Z" style="fill:#4f4f4f"/><path d="M59,5.7a.2.2,0,0,1-.2-.2V4.34a.2.2,0,1,1,.4,0V5.49A.2.2,0,0,1,59,5.7Z" style="fill:#4f4f4f"/><path d="M62,4.45a.2.2,0,0,1-.2-.2V3.1a.2.2,0,1,1,.4,0V4.25A.2.2,0,0,1,62,4.45Z" style="fill:#4f4f4f"/><path d="M60.5,13.15a.2.2,0,0,1-.2-.2V1.71a.2.2,0,1,1,.4,0V12.95A.2.2,0,0,1,60.5,13.15Z" style="fill:#4f4f4f"/><path d="M62,4.59H60.5a.2.2,0,0,1,0-.4H62a.2.2,0,0,1,0,.4Z" style="fill:#4f4f4f"/><path d="M60.41,5.7H59a.2.2,0,0,1,0-.4h1.46a.2.2,0,0,1,0,.4Z" style="fill:#4f4f4f"/><rect x="184.51" y="13.12" width="1.38" height="2.45" style="fill:#7d66d1"/><path d="M185.89,15.77h-1.38a.2.2,0,0,1-.2-.2V13.12a.2.2,0,0,1,.2-.2h1.38a.2.2,0,0,1,.2.2v2.45A.2.2,0,0,1,185.89,15.77Zm-1.18-.4h1v-2h-1Z" style="fill:#4f4f4f"/><rect x="182.97" y="3.12" width="1.38" height="1.38" rx="0.69" ry="0.69" style="fill:#fff"/><path d="M183.83,4.7h-.34a.72.72,0,0,1-.72-.72V3.64a.72.72,0,0,1,.72-.72h.34a.72.72,0,0,1,.72.72V4A.72.72,0,0,1,183.83,4.7Zm-.34-1.38a.32.32,0,0,0-.32.32V4a.32.32,0,0,0,.32.32h.34a.32.32,0,0,0,.32-.32V3.64a.32.32,0,0,0-.32-.32Z" style="fill:#4f4f4f"/><rect x="184.51" y="0.37" width="1.38" height="1.38" rx="0.69" ry="0.69" style="fill:#fff"/><path d="M185.37,2H185a.72.72,0,0,1-.72-.72V.89A.72.72,0,0,1,185,.17h.34a.72.72,0,0,1,.72.72v.34A.72.72,0,0,1,185.37,2ZM185,.57a.32.32,0,0,0-.32.32v.34a.32.32,0,0,0,.32.32h.34a.32.32,0,0,0,.32-.32V.89a.32.32,0,0,0-.32-.32Z" style="fill:#4f4f4f"/><rect x="186.05" y="1.88" width="1.38" height="1.38" rx="0.69" ry="0.69" style="fill:#fff"/><path d="M186.91,3.46h-.34a.72.72,0,0,1-.72-.72V2.4a.72.72,0,0,1,.72-.72h.34a.72.72,0,0,1,.72.72v.34A.72.72,0,0,1,186.91,3.46Zm-.34-1.38a.32.32,0,0,0-.32.32v.34a.32.32,0,0,0,.32.32h.34a.32.32,0,0,0,.32-.32V2.4a.32.32,0,0,0-.32-.32Z" style="fill:#4f4f4f"/><path d="M183.66,5.87a.2.2,0,0,1-.2-.2V4.51a.2.2,0,0,1,.4,0V5.67A.2.2,0,0,1,183.66,5.87Z" style="fill:#4f4f4f"/><path d="M186.74,4.63a.2.2,0,0,1-.2-.2V3.27a.2.2,0,0,1,.4,0V4.42A.2.2,0,0,1,186.74,4.63Z" style="fill:#4f4f4f"/><path d="M185.2,13.32a.2.2,0,0,1-.2-.2V1.88a.2.2,0,0,1,.4,0V13.12A.2.2,0,0,1,185.2,13.32Z" style="fill:#4f4f4f"/><path d="M186.74,4.76H185.2a.2.2,0,1,1,0-.4h1.54a.2.2,0,1,1,0,.4Z" style="fill:#4f4f4f"/><path d="M185.12,5.87h-1.46a.2.2,0,1,1,0-.4h1.46a.2.2,0,1,1,0,.4Z" style="fill:#4f4f4f"/><rect x="261.57" y="13.12" width="1.38" height="2.45" style="fill:#7d66d1"/><path d="M263,15.77h-1.38a.2.2,0,0,1-.2-.2V13.12a.2.2,0,0,1,.2-.2H263a.2.2,0,0,1,.2.2v2.45A.2.2,0,0,1,263,15.77Zm-1.18-.4h1v-2h-1Z" style="fill:#4f4f4f"/><rect x="260.03" y="3.12" width="1.38" height="1.38" rx="0.69" ry="0.69" style="fill:#fff"/><path d="M260.89,4.7h-.34a.72.72,0,0,1-.72-.72V3.64a.72.72,0,0,1,.72-.72h.34a.72.72,0,0,1,.72.72V4A.72.72,0,0,1,260.89,4.7Zm-.34-1.38a.32.32,0,0,0-.32.32V4a.32.32,0,0,0,.32.32h.34a.32.32,0,0,0,.32-.32V3.64a.32.32,0,0,0-.32-.32Z" style="fill:#4f4f4f"/><rect x="261.57" y="0.37" width="1.38" height="1.38" rx="0.69" ry="0.69" style="fill:#fff"/><path d="M262.43,2h-.34a.72.72,0,0,1-.72-.72V.89a.72.72,0,0,1,.72-.72h.34a.72.72,0,0,1,.72.72v.34A.72.72,0,0,1,262.43,2ZM262.09.57a.32.32,0,0,0-.32.32v.34a.32.32,0,0,0,.32.32h.34a.32.32,0,0,0,.32-.32V.89a.32.32,0,0,0-.32-.32Z" style="fill:#4f4f4f"/><rect x="263.11" y="1.88" width="1.38" height="1.38" rx="0.69" ry="0.69" style="fill:#fff"/><path d="M264,3.46h-.34a.72.72,0,0,1-.72-.72V2.4a.72.72,0,0,1,.72-.72H264a.72.72,0,0,1,.72.72v.34A.72.72,0,0,1,264,3.46Zm-.34-1.38a.32.32,0,0,0-.32.32v.34a.32.32,0,0,0,.32.32H264a.32.32,0,0,0,.32-.32V2.4a.32.32,0,0,0-.32-.32Z" style="fill:#4f4f4f"/><path d="M260.72,5.87a.2.2,0,0,1-.2-.2V4.51a.2.2,0,1,1,.4,0V5.67A.2.2,0,0,1,260.72,5.87Z" style="fill:#4f4f4f"/><path d="M263.8,4.63a.2.2,0,0,1-.2-.2V3.27a.2.2,0,1,1,.4,0V4.42A.2.2,0,0,1,263.8,4.63Z" style="fill:#4f4f4f"/><path d="M262.26,13.32a.2.2,0,0,1-.2-.2V1.88a.2.2,0,0,1,.4,0V13.12A.2.2,0,0,1,262.26,13.32Z" style="fill:#4f4f4f"/><path d="M263.8,4.76h-1.54a.2.2,0,1,1,0-.4h1.54a.2.2,0,0,1,0,.4Z" style="fill:#4f4f4f"/><path d="M262.17,5.87h-1.46a.2.2,0,1,1,0-.4h1.46a.2.2,0,1,1,0,.4Z" style="fill:#4f4f4f"/><path d="M8.34,14.79A3.22,3.22,0,0,0,9,8.41H9A2.91,2.91,0,1,0,3.17,8,2.73,2.73,0,0,0,3.4,9.11h0A2.83,2.83,0,0,0,1,11.92a2.86,2.86,0,0,0,2.86,2.86H8.36" style="fill:#9b8ce5"/><path d="M8.36,15H3.87A3.07,3.07,0,0,1,.8,11.92,3,3,0,0,1,3.12,9,2.89,2.89,0,0,1,3,8,3.12,3.12,0,1,1,9.19,8c0,.08,0,.17,0,.25A3.42,3.42,0,0,1,8.36,15ZM6.08,5.29A2.72,2.72,0,0,0,3.37,8a2.53,2.53,0,0,0,.21,1,.2.2,0,0,1-.14.28,2.66,2.66,0,0,0,.43,5.28H8.34a3,3,0,0,0,.59-6,.2.2,0,0,1-.16-.23,2.79,2.79,0,0,0,0-.38A2.72,2.72,0,0,0,6.08,5.29Z" style="fill:#4f4f4f"/><rect x="6.01" y="14.79" width="1.04" height="2.88" transform="translate(13.06 32.46) rotate(-180)" style="fill:#fff"/><path d="M7.05,17.87H6a.2.2,0,0,1-.2-.2V14.79a.2.2,0,0,1,.2-.2h1a.2.2,0,0,1,.2.2v2.88A.2.2,0,0,1,7.05,17.87Zm-.84-.4h.64V15H6.21Z" style="fill:#4f4f4f"/><rect x="6.01" y="16.8" width="1.04" height="2.88" transform="translate(24.77 11.71) rotate(90)" style="fill:#fff"/><path d="M8,19H5.09a.2.2,0,0,1-.2-.2v-1a.2.2,0,0,1,.2-.2H8a.2.2,0,0,1,.2.2v1A.2.2,0,0,1,8,19Zm-2.68-.4H7.77v-.64H5.29Z" style="fill:#4f4f4f"/><path d="M7.54,14.79a3.22,3.22,0,0,0,.62-6.37h0A2.91,2.91,0,1,0,2.36,8a2.73,2.73,0,0,0,.23,1.11h0A2.83,2.83,0,0,0,.2,11.92a2.86,2.86,0,0,0,2.86,2.86H7.55" style="fill:#7d66d1"/><path d="M7.55,15H3.06A3.07,3.07,0,0,1,0,11.92,3,3,0,0,1,2.32,9a2.9,2.9,0,0,1-.16-1A3.12,3.12,0,1,1,8.39,8c0,.08,0,.17,0,.25A3.42,3.42,0,0,1,7.56,15ZM5.28,5.29A2.72,2.72,0,0,0,2.56,8a2.54,2.54,0,0,0,.21,1,.2.2,0,0,1-.14.28,2.66,2.66,0,0,0,.43,5.28H7.54a3,3,0,0,0,.59-6A.2.2,0,0,1,8,8.38,2.79,2.79,0,0,0,8,8,2.72,2.72,0,0,0,5.28,5.29Z" style="fill:#4f4f4f"/><rect x="5.21" y="14.79" width="1.04" height="2.88" transform="translate(11.45 32.46) rotate(-180)" style="fill:#fff"/><path d="M6.25,17.87h-1a.2.2,0,0,1-.2-.2V14.79a.2.2,0,0,1,.2-.2h1a.2.2,0,0,1,.2.2v2.88A.2.2,0,0,1,6.25,17.87Zm-.84-.4H6V15H5.41Z" style="fill:#4f4f4f"/><rect x="5.21" y="16.8" width="1.04" height="2.88" transform="translate(23.97 12.51) rotate(90)" style="fill:#fff"/><path d="M7.17,19H4.29a.2.2,0,0,1-.2-.2v-1a.2.2,0,0,1,.2-.2H7.17a.2.2,0,0,1,.2.2v1A.2.2,0,0,1,7.17,19Zm-2.68-.4H7v-.64H4.49Z" style="fill:#4f4f4f"/><path d="M55.05,14.27a3.22,3.22,0,0,0,.62-6.37h0a2.91,2.91,0,1,0-5.8-.4,2.73,2.73,0,0,0,.23,1.11h0a2.83,2.83,0,0,0-2.38,2.81,2.86,2.86,0,0,0,2.86,2.86h4.49" style="fill:#9b8ce5"/><path d="M55.07,14.47H50.58a3.07,3.07,0,0,1-3.06-3.07,3,3,0,0,1,2.32-3,2.9,2.9,0,0,1-.16-1,3.12,3.12,0,1,1,6.23,0c0,.08,0,.17,0,.25a3.42,3.42,0,0,1-.83,6.73Zm-2.28-9.7a2.72,2.72,0,0,0-2.71,2.71,2.54,2.54,0,0,0,.21,1,.2.2,0,0,1-.14.28,2.65,2.65,0,0,0,.43,5.28h4.47a3,3,0,0,0,.59-6,.2.2,0,0,1-.16-.23,2.79,2.79,0,0,0,0-.38A2.72,2.72,0,0,0,52.79,4.77Z" style="fill:#4f4f4f"/><rect x="52.72" y="14.27" width="1.04" height="2.88" transform="translate(106.49 31.42) rotate(-180)" style="fill:#fff"/><path d="M53.76,17.35h-1a.2.2,0,0,1-.2-.2V14.27a.2.2,0,0,1,.2-.2h1a.2.2,0,0,1,.2.2v2.88A.2.2,0,0,1,53.76,17.35Zm-.84-.4h.64V14.47h-.64Z" style="fill:#4f4f4f"/><rect x="52.72" y="16.28" width="1.04" height="2.88" transform="translate(70.96 -35.52) rotate(90)" style="fill:#fff"/><path d="M54.68,18.44H51.8a.2.2,0,0,1-.2-.2v-1a.2.2,0,0,1,.2-.2h2.88a.2.2,0,0,1,.2.2v1A.2.2,0,0,1,54.68,18.44ZM52,18h2.48V17.4H52Z" style="fill:#4f4f4f"/><path d="M54.25,14.27a3.22,3.22,0,0,0,.62-6.37h0a2.91,2.91,0,1,0-5.8-.4A2.73,2.73,0,0,0,49.3,8.6h0a2.83,2.83,0,0,0-2.38,2.81,2.86,2.86,0,0,0,2.86,2.86h4.49" style="fill:#7d66d1"/><path d="M54.26,14.47H49.78a3.07,3.07,0,0,1-3.06-3.07,3,3,0,0,1,2.32-3,2.89,2.89,0,0,1-.16-1,3.12,3.12,0,1,1,6.23,0c0,.08,0,.17,0,.25a3.42,3.42,0,0,1-.82,6.73ZM52,4.77a2.72,2.72,0,0,0-2.71,2.71,2.54,2.54,0,0,0,.21,1,.2.2,0,0,1-.14.28,2.65,2.65,0,0,0,.43,5.28h4.47a3,3,0,0,0,.59-6,.2.2,0,0,1-.16-.23,2.75,2.75,0,0,0,0-.38A2.72,2.72,0,0,0,52,4.77Z" style="fill:#4f4f4f"/><rect x="51.92" y="14.27" width="1.04" height="2.88" transform="translate(104.88 31.42) rotate(-180)" style="fill:#fff"/><path d="M53,17.35h-1a.2.2,0,0,1-.2-.2V14.27a.2.2,0,0,1,.2-.2h1a.2.2,0,0,1,.2.2v2.88A.2.2,0,0,1,53,17.35Zm-.84-.4h.64V14.47h-.64Z" style="fill:#4f4f4f"/><rect x="51.92" y="16.28" width="1.04" height="2.88" transform="translate(70.16 -34.72) rotate(90)" style="fill:#fff"/><path d="M53.88,18.44H51a.2.2,0,0,1-.2-.2v-1A.2.2,0,0,1,51,17h2.88a.2.2,0,0,1,.2.2v1A.2.2,0,0,1,53.88,18.44ZM51.2,18h2.48V17.4H51.2Z" style="fill:#4f4f4f"/><path d="M102.14,14.27a3.22,3.22,0,0,0,.62-6.37h0a2.91,2.91,0,1,0-5.8-.4,2.73,2.73,0,0,0,.23,1.11h0A2.83,2.83,0,0,0,94.8,11.4a2.86,2.86,0,0,0,2.86,2.86h4.49" style="fill:#9b8ce5"/><path d="M102.16,14.47H97.67A3.07,3.07,0,0,1,94.6,11.4a3,3,0,0,1,2.32-3,2.89,2.89,0,0,1-.16-1,3.12,3.12,0,1,1,6.23,0c0,.08,0,.17,0,.25a3.42,3.42,0,0,1-.83,6.73Zm-2.28-9.7a2.72,2.72,0,0,0-2.71,2.71,2.54,2.54,0,0,0,.21,1,.2.2,0,0,1-.14.28,2.65,2.65,0,0,0,.43,5.28h4.47a3,3,0,0,0,.59-6,.2.2,0,0,1-.16-.23,2.75,2.75,0,0,0,0-.38A2.72,2.72,0,0,0,99.88,4.77Z" style="fill:#4f4f4f"/><rect x="99.81" y="14.27" width="1.04" height="2.88" transform="translate(200.66 31.42) rotate(-180)" style="fill:#fff"/><path d="M100.85,17.35h-1a.2.2,0,0,1-.2-.2V14.27a.2.2,0,0,1,.2-.2h1a.2.2,0,0,1,.2.2v2.88A.2.2,0,0,1,100.85,17.35Zm-.84-.4h.64V14.47H100Z" style="fill:#4f4f4f"/><rect x="99.81" y="16.28" width="1.04" height="2.88" transform="translate(118.05 -82.61) rotate(90)" style="fill:#fff"/><path d="M101.77,18.44H98.89a.2.2,0,0,1-.2-.2v-1a.2.2,0,0,1,.2-.2h2.88a.2.2,0,0,1,.2.2v1A.2.2,0,0,1,101.77,18.44ZM99.09,18h2.48V17.4H99.09Z" style="fill:#4f4f4f"/><path d="M101.33,14.27A3.22,3.22,0,0,0,102,7.9h0a2.91,2.91,0,1,0-5.8-.4,2.73,2.73,0,0,0,.23,1.11h0A2.83,2.83,0,0,0,94,11.4a2.86,2.86,0,0,0,2.86,2.86h4.49" style="fill:#7d66d1"/><path d="M101.35,14.47H96.86A3.07,3.07,0,0,1,93.8,11.4a3,3,0,0,1,2.32-3,2.9,2.9,0,0,1-.16-1,3.12,3.12,0,1,1,6.23,0c0,.08,0,.17,0,.25a3.42,3.42,0,0,1-.82,6.73Zm-2.28-9.7a2.72,2.72,0,0,0-2.71,2.71,2.54,2.54,0,0,0,.21,1,.2.2,0,0,1-.14.28,2.65,2.65,0,0,0,.43,5.28h4.47a3,3,0,0,0,.59-6,.2.2,0,0,1-.16-.23,2.79,2.79,0,0,0,0-.38A2.72,2.72,0,0,0,99.07,4.77Z" style="fill:#4f4f4f"/><rect x="99.01" y="14.27" width="1.04" height="2.88" transform="translate(199.05 31.42) rotate(-180)" style="fill:#fff"/><path d="M100,17.35H99a.2.2,0,0,1-.2-.2V14.27a.2.2,0,0,1,.2-.2h1a.2.2,0,0,1,.2.2v2.88A.2.2,0,0,1,100,17.35Zm-.84-.4h.64V14.47h-.64Z" style="fill:#4f4f4f"/><rect x="99.01" y="16.28" width="1.04" height="2.88" transform="translate(117.25 -81.81) rotate(90)" style="fill:#fff"/><path d="M101,18.44H98.09a.2.2,0,0,1-.2-.2v-1a.2.2,0,0,1,.2-.2H101a.2.2,0,0,1,.2.2v1A.2.2,0,0,1,101,18.44ZM98.29,18h2.48V17.4H98.29Z" style="fill:#4f4f4f"/><path d="M148.5,14.62a3.22,3.22,0,0,0,.62-6.37h0a2.91,2.91,0,1,0-5.8-.4,2.73,2.73,0,0,0,.23,1.11h0a2.83,2.83,0,0,0-2.38,2.81A2.86,2.86,0,0,0,144,14.62h4.49" style="fill:#9b8ce5"/><path d="M148.52,14.82H144A3.07,3.07,0,0,1,141,11.75a3,3,0,0,1,2.32-3,2.89,2.89,0,0,1-.16-1,3.12,3.12,0,1,1,6.23,0c0,.09,0,.17,0,.25a3.42,3.42,0,0,1-.83,6.73Zm-2.28-9.7a2.72,2.72,0,0,0-2.71,2.71,2.54,2.54,0,0,0,.21,1,.2.2,0,0,1-.14.28,2.66,2.66,0,0,0,.43,5.28h4.47a3,3,0,0,0,.59-6,.2.2,0,0,1-.16-.23,2.76,2.76,0,0,0,0-.38A2.72,2.72,0,0,0,146.24,5.12Z" style="fill:#4f4f4f"/><rect x="146.18" y="14.62" width="1.04" height="2.88" transform="translate(293.39 32.11) rotate(-180)" style="fill:#fff"/><path d="M147.21,17.7h-1a.2.2,0,0,1-.2-.2V14.62a.2.2,0,0,1,.2-.2h1a.2.2,0,0,1,.2.2V17.5A.2.2,0,0,1,147.21,17.7Zm-.84-.4H147V14.82h-.64Z" style="fill:#4f4f4f"/><rect x="146.18" y="16.63" width="1.04" height="2.88" transform="translate(164.76 -128.63) rotate(90)" style="fill:#fff"/><path d="M148.14,18.79h-2.88a.2.2,0,0,1-.2-.2v-1a.2.2,0,0,1,.2-.2h2.88a.2.2,0,0,1,.2.2v1A.2.2,0,0,1,148.14,18.79Zm-2.68-.4h2.48v-.64h-2.48Z" style="fill:#4f4f4f"/><path d="M147.7,14.62a3.22,3.22,0,0,0,.62-6.37h0a2.91,2.91,0,1,0-5.8-.4,2.73,2.73,0,0,0,.23,1.11h0a2.83,2.83,0,0,0-2.38,2.81,2.86,2.86,0,0,0,2.86,2.86h4.49" style="fill:#7d66d1"/><path d="M147.72,14.82h-4.49a3.07,3.07,0,0,1-3.06-3.07,3,3,0,0,1,2.32-3,2.9,2.9,0,0,1-.16-1,3.11,3.11,0,1,1,6.23,0c0,.08,0,.17,0,.25a3.42,3.42,0,0,1-.82,6.73Zm-2.28-9.7a2.72,2.72,0,0,0-2.71,2.71,2.54,2.54,0,0,0,.21,1,.2.2,0,0,1-.14.28,2.66,2.66,0,0,0,.43,5.28h4.47a3,3,0,0,0,.59-6,.2.2,0,0,1-.16-.23,2.75,2.75,0,0,0,0-.38A2.72,2.72,0,0,0,145.44,5.12Z" style="fill:#4f4f4f"/><rect x="145.37" y="14.62" width="1.04" height="2.88" transform="translate(291.78 32.11) rotate(-180)" style="fill:#fff"/><path d="M146.41,17.7h-1a.2.2,0,0,1-.2-.2V14.62a.2.2,0,0,1,.2-.2h1a.2.2,0,0,1,.2.2V17.5A.2.2,0,0,1,146.41,17.7Zm-.84-.4h.64V14.82h-.64Z" style="fill:#4f4f4f"/><rect x="145.37" y="16.63" width="1.04" height="2.88" transform="translate(163.96 -127.82) rotate(90)" style="fill:#fff"/><path d="M147.33,18.79h-2.88a.2.2,0,0,1-.2-.2v-1a.2.2,0,0,1,.2-.2h2.88a.2.2,0,0,1,.2.2v1A.2.2,0,0,1,147.33,18.79Zm-2.68-.4h2.48v-.64h-2.48Z" style="fill:#4f4f4f"/><path d="M201.09,14.33A3.22,3.22,0,0,0,201.72,8h0a2.91,2.91,0,1,0-5.8-.4,2.73,2.73,0,0,0,.23,1.11h0a2.83,2.83,0,0,0-2.38,2.81,2.86,2.86,0,0,0,2.86,2.86h4.49" style="fill:#9b8ce5"/><path d="M201.11,14.53h-4.49a3.07,3.07,0,0,1-3.06-3.07,3,3,0,0,1,2.32-3,2.89,2.89,0,0,1-.16-1,3.11,3.11,0,1,1,6.23,0q0,.13,0,.25a3.42,3.42,0,0,1-.83,6.73Zm-2.28-9.7a2.72,2.72,0,0,0-2.71,2.71,2.53,2.53,0,0,0,.21,1,.2.2,0,0,1-.14.28,2.66,2.66,0,0,0,.43,5.28h4.47a3,3,0,0,0,.59-6,.2.2,0,0,1-.16-.23,2.77,2.77,0,0,0,0-.38A2.72,2.72,0,0,0,198.83,4.83Z" style="fill:#4f4f4f"/><rect x="198.77" y="14.33" width="1.04" height="2.88" transform="translate(398.57 31.54) rotate(-180)" style="fill:#fff"/><path d="M199.8,17.41h-1a.2.2,0,0,1-.2-.2V14.33a.2.2,0,0,1,.2-.2h1a.2.2,0,0,1,.2.2v2.88A.2.2,0,0,1,199.8,17.41ZM199,17h.64V14.53H199Z" style="fill:#4f4f4f"/><rect x="198.77" y="16.34" width="1.04" height="2.88" transform="translate(217.07 -181.5) rotate(90)" style="fill:#fff"/><path d="M200.73,18.5h-2.88a.2.2,0,0,1-.2-.2v-1a.2.2,0,0,1,.2-.2h2.88a.2.2,0,0,1,.2.2v1A.2.2,0,0,1,200.73,18.5ZM198,18.1h2.48v-.64H198Z" style="fill:#4f4f4f"/><path d="M200.29,14.33A3.22,3.22,0,0,0,200.91,8h0a2.91,2.91,0,1,0-5.8-.4,2.73,2.73,0,0,0,.23,1.11h0A2.83,2.83,0,0,0,193,11.46a2.86,2.86,0,0,0,2.86,2.86h4.49" style="fill:#7d66d1"/><path d="M200.31,14.53h-4.49a3.07,3.07,0,0,1-3.06-3.07,3,3,0,0,1,2.32-3,2.9,2.9,0,0,1-.16-1,3.12,3.12,0,1,1,6.23,0c0,.08,0,.17,0,.25a3.42,3.42,0,0,1-.82,6.73ZM198,4.83a2.72,2.72,0,0,0-2.71,2.71,2.54,2.54,0,0,0,.21,1,.2.2,0,0,1-.14.28,2.66,2.66,0,0,0,.43,5.28h4.47a3,3,0,0,0,.59-6,.2.2,0,0,1-.16-.23,2.81,2.81,0,0,0,0-.38A2.72,2.72,0,0,0,198,4.83Z" style="fill:#4f4f4f"/><rect x="197.96" y="14.33" width="1.04" height="2.88" transform="translate(396.96 31.54) rotate(-180)" style="fill:#fff"/><path d="M199,17.41h-1a.2.2,0,0,1-.2-.2V14.33a.2.2,0,0,1,.2-.2h1a.2.2,0,0,1,.2.2v2.88A.2.2,0,0,1,199,17.41Zm-.84-.4h.64V14.53h-.64Z" style="fill:#4f4f4f"/><rect x="197.96" y="16.34" width="1.04" height="2.88" transform="translate(216.26 -180.7) rotate(90)" style="fill:#fff"/><path d="M199.92,18.5H197a.2.2,0,0,1-.2-.2v-1a.2.2,0,0,1,.2-.2h2.88a.2.2,0,0,1,.2.2v1A.2.2,0,0,1,199.92,18.5Zm-2.68-.4h2.48v-.64h-2.48Z" style="fill:#4f4f4f"/><path d="M248.35,14.2A3.22,3.22,0,0,0,249,7.82h0a2.91,2.91,0,1,0-5.8-.4,2.73,2.73,0,0,0,.23,1.11h0A2.83,2.83,0,0,0,241,11.33a2.86,2.86,0,0,0,2.86,2.86h4.49" style="fill:#9b8ce5"/><path d="M248.37,14.4h-4.49a3.07,3.07,0,0,1-3.06-3.07,3,3,0,0,1,2.32-3,2.9,2.9,0,0,1-.16-1,3.12,3.12,0,1,1,6.23,0c0,.08,0,.17,0,.25a3.42,3.42,0,0,1-.83,6.73Zm-2.28-9.7a2.72,2.72,0,0,0-2.71,2.71,2.54,2.54,0,0,0,.21,1,.2.2,0,0,1-.14.28,2.65,2.65,0,0,0,.43,5.28h4.47a3,3,0,0,0,.59-6,.2.2,0,0,1-.16-.23,2.79,2.79,0,0,0,0-.38A2.72,2.72,0,0,0,246.09,4.7Z" style="fill:#4f4f4f"/><rect x="246.03" y="14.2" width="1.04" height="2.88" transform="translate(493.09 31.28) rotate(-180)" style="fill:#fff"/><path d="M247.06,17.28h-1a.2.2,0,0,1-.2-.2V14.2a.2.2,0,0,1,.2-.2h1a.2.2,0,0,1,.2.2v2.88A.2.2,0,0,1,247.06,17.28Zm-.84-.4h.64V14.4h-.64Z" style="fill:#4f4f4f"/><rect x="246.03" y="16.21" width="1.04" height="2.88" transform="translate(264.19 -228.9) rotate(90)" style="fill:#fff"/><path d="M248,18.37h-2.88a.2.2,0,0,1-.2-.2v-1a.2.2,0,0,1,.2-.2H248a.2.2,0,0,1,.2.2v1A.2.2,0,0,1,248,18.37Zm-2.68-.4h2.48v-.64h-2.48Z" style="fill:#4f4f4f"/><path d="M247.55,14.2a3.22,3.22,0,0,0,.62-6.37h0a2.91,2.91,0,1,0-5.8-.4,2.73,2.73,0,0,0,.23,1.11h0a2.83,2.83,0,0,0-2.38,2.81,2.86,2.86,0,0,0,2.86,2.86h4.49" style="fill:#7d66d1"/><path d="M247.57,14.4h-4.49A3.07,3.07,0,0,1,240,11.33a3,3,0,0,1,2.32-3,2.89,2.89,0,0,1-.16-1,3.12,3.12,0,1,1,6.23,0c0,.09,0,.17,0,.25a3.42,3.42,0,0,1-.82,6.73Zm-2.28-9.7a2.72,2.72,0,0,0-2.71,2.71,2.54,2.54,0,0,0,.21,1,.2.2,0,0,1-.14.28,2.65,2.65,0,0,0,.43,5.28h4.47a3,3,0,0,0,.59-6,.2.2,0,0,1-.16-.23,2.71,2.71,0,0,0-2.69-3.09Z" style="fill:#4f4f4f"/><rect x="245.22" y="14.2" width="1.04" height="2.88" transform="translate(491.48 31.28) rotate(-180)" style="fill:#fff"/><path d="M246.26,17.28h-1a.2.2,0,0,1-.2-.2V14.2a.2.2,0,0,1,.2-.2h1a.2.2,0,0,1,.2.2v2.88A.2.2,0,0,1,246.26,17.28Zm-.84-.4h.64V14.4h-.64Z" style="fill:#4f4f4f"/><rect x="245.22" y="16.21" width="1.04" height="2.88" transform="translate(263.39 -228.09) rotate(90)" style="fill:#fff"/><path d="M247.18,18.37H244.3a.2.2,0,0,1-.2-.2v-1a.2.2,0,0,1,.2-.2h2.88a.2.2,0,0,1,.2.2v1A.2.2,0,0,1,247.18,18.37ZM244.5,18H247v-.64H244.5Z" style="fill:#4f4f4f"/><path d="M297.25,14.2a3.22,3.22,0,0,0,.62-6.37h0a2.91,2.91,0,1,0-5.8-.4,2.73,2.73,0,0,0,.23,1.11h0a2.83,2.83,0,0,0-2.38,2.81,2.86,2.86,0,0,0,2.86,2.86h4.49" style="fill:#9b8ce5"/><path d="M297.27,14.4h-4.49a3.07,3.07,0,0,1-3.06-3.07,3,3,0,0,1,2.32-3,2.9,2.9,0,0,1-.16-1,3.11,3.11,0,1,1,6.23,0c0,.08,0,.17,0,.25a3.42,3.42,0,0,1-.83,6.73ZM295,4.7a2.72,2.72,0,0,0-2.71,2.71,2.54,2.54,0,0,0,.21,1,.2.2,0,0,1-.14.28,2.65,2.65,0,0,0,.43,5.28h4.47a3,3,0,0,0,.59-6,.2.2,0,0,1-.16-.23,2.75,2.75,0,0,0,0-.38A2.72,2.72,0,0,0,295,4.7Z" style="fill:#4f4f4f"/><rect x="294.93" y="14.2" width="1.04" height="2.88" transform="translate(590.89 31.28) rotate(-180)" style="fill:#fff"/><path d="M296,17.28h-1a.2.2,0,0,1-.2-.2V14.2a.2.2,0,0,1,.2-.2h1a.2.2,0,0,1,.2.2v2.88A.2.2,0,0,1,296,17.28Zm-.84-.4h.64V14.4h-.64Z" style="fill:#4f4f4f"/><rect x="294.92" y="16.21" width="1.04" height="2.88" transform="translate(313.09 -277.8) rotate(90)" style="fill:#fff"/><path d="M296.88,18.37H294a.2.2,0,0,1-.2-.2v-1a.2.2,0,0,1,.2-.2h2.88a.2.2,0,0,1,.2.2v1A.2.2,0,0,1,296.88,18.37Zm-2.68-.4h2.48v-.64h-2.48Z" style="fill:#4f4f4f"/><path d="M296.45,14.2a3.22,3.22,0,0,0,.62-6.37h0a2.91,2.91,0,1,0-5.8-.4,2.73,2.73,0,0,0,.23,1.11h0a2.83,2.83,0,0,0-2.38,2.81A2.86,2.86,0,0,0,292,14.2h4.49" style="fill:#7d66d1"/><path d="M296.47,14.4H292a3.07,3.07,0,0,1-3.06-3.07,3,3,0,0,1,2.32-3,2.9,2.9,0,0,1-.16-1,3.12,3.12,0,1,1,6.23,0c0,.08,0,.17,0,.25a3.42,3.42,0,0,1-.82,6.73Zm-2.28-9.7a2.72,2.72,0,0,0-2.71,2.71,2.54,2.54,0,0,0,.21,1,.2.2,0,0,1-.14.28A2.65,2.65,0,0,0,292,14h4.47A3,3,0,0,0,297,8a.2.2,0,0,1-.16-.23,2.79,2.79,0,0,0,0-.38A2.72,2.72,0,0,0,294.19,4.7Z" style="fill:#4f4f4f"/><rect x="294.12" y="14.2" width="1.04" height="2.88" transform="translate(589.28 31.28) rotate(-180)" style="fill:#fff"/><path d="M295.16,17.28h-1a.2.2,0,0,1-.2-.2V14.2a.2.2,0,0,1,.2-.2h1a.2.2,0,0,1,.2.2v2.88A.2.2,0,0,1,295.16,17.28Zm-.84-.4H295V14.4h-.64Z" style="fill:#4f4f4f"/><rect x="294.12" y="16.21" width="1.04" height="2.88" transform="translate(312.29 -276.99) rotate(90)" style="fill:#fff"/><path d="M296.08,18.37H293.2a.2.2,0,0,1-.2-.2v-1a.2.2,0,0,1,.2-.2h2.88a.2.2,0,0,1,.2.2v1A.2.2,0,0,1,296.08,18.37ZM293.4,18h2.48v-.64H293.4Z" style="fill:#4f4f4f"/></g></g></svg>