<svg xmlns="http://www.w3.org/2000/svg" viewBox="0 0 15.98 13.07"><title>twitter</title><g id="Слой_2" data-name="Слой 2"><g id="Слой_1-2" data-name="Слой 1"><path d="M16,1.6a6,6,0,0,1-1.42,1.52.42.42,0,0,0-.18.39,9.5,9.5,0,0,1-2.88,7A8.69,8.69,0,0,1,6.26,13a9.38,9.38,0,0,1-6-1.21A.63.63,0,0,1,0,11.58a6.67,6.67,0,0,0,4.78-1.34C3.14,10,2,9.05,1.78,7.94,2,8,2.23,8,2.46,8a2.45,2.45,0,0,0,.67-.1A3.39,3.39,0,0,1,.57,4.59,3.46,3.46,0,0,0,2,5l-.45-.42A3.29,3.29,0,0,1,.94.83c.09-.19.15-.21.29,0A9.29,9.29,0,0,0,6.48,3.88,10.87,10.87,0,0,0,7.62,4c.16,0,.23,0,.19-.2A3.3,3.3,0,0,1,11.26,0a3.2,3.2,0,0,1,2.07.9.33.33,0,0,0,.35.09A6.85,6.85,0,0,0,15.32.38c.06,0,.12-.09.21-.09A3,3,0,0,1,14.25,2c0,.05,0,0,.1,0a6.71,6.71,0,0,0,1.4-.38c.07,0,.14-.09.22-.05Z" style="fill:#fff;fill-rule:evenodd"/></g></g></svg>