<svg xmlns="http://www.w3.org/2000/svg" viewBox="0 0 320 101.78"><title>2 mobile</title><g id="Слой_2" data-name="Слой 2"><g id="Слой_1-2" data-name="Слой 1"><polygon points="183.25 36.88 211.44 64.76 154.96 64.7 180.18 36.91 183.25 36.88" style="fill:#232129"/><path d="M211.44,65.27h0L155,65.21a.51.51,0,0,1-.38-.85L179.8,36.57a.51.51,0,0,1,.37-.17l3.07,0a.72.72,0,0,1,.36.15L211.8,64.4a.51.51,0,0,1-.36.87Zm-55.34-1.08,54.09.06L183,37.4l-2.63,0Z" style="fill:#1e1e1e"/><rect x="159.8" y="64.93" width="46.56" height="36.17" style="fill:#232129"/><path d="M206.36,101.61H159.8a.51.51,0,0,1-.51-.51V64.93a.51.51,0,0,1,.51-.51h46.56a.51.51,0,0,1,.51.51V101.1A.51.51,0,0,1,206.36,101.61Zm-46-1h45.54V65.44H160.31Z" style="fill:#1e1e1e"/><rect x="195.06" y="44.28" width="4.08" height="10.7" style="fill:#232129"/><path d="M199.14,55.5h-4.08a.51.51,0,0,1-.51-.51V44.28a.51.51,0,0,1,.51-.51h4.08a.51.51,0,0,1,.51.51V55A.51.51,0,0,1,199.14,55.5Zm-3.57-1h3.06V44.79h-3.06Z" style="fill:#1e1e1e"/><rect x="192" y="44.28" width="4.08" height="10.7" style="fill:#36344c"/><path d="M196.08,55.5H192a.51.51,0,0,1-.51-.51V44.28a.51.51,0,0,1,.51-.51h4.08a.51.51,0,0,1,.51.51V55A.51.51,0,0,1,196.08,55.5Zm-3.57-1h3.06V44.79h-3.06Z" style="fill:#1e1e1e"/><polygon points="180.19 36.88 208.39 64.76 152 64.76 180.19 36.88" style="fill:#2c2a33"/><path d="M208.39,65.27H152a.51.51,0,0,1-.36-.87l28.2-27.88a.51.51,0,0,1,.72,0l28.2,27.88a.51.51,0,0,1-.36.87Zm-55.15-1h53.91l-27-26.65Z" style="fill:#1e1e1e"/><rect x="156.74" y="64.93" width="46.56" height="36.17" style="fill:#2c2a33"/><path d="M203.3,101.61H156.74a.51.51,0,0,1-.51-.51V64.93a.51.51,0,0,1,.51-.51H203.3a.51.51,0,0,1,.51.51V101.1A.51.51,0,0,1,203.3,101.61Zm-46-1h45.54V65.44H157.25Z" style="fill:#1e1e1e"/><rect x="156.74" y="82.04" width="46.56" height="8.23" style="fill:#fff"/><path d="M203.3,90.78H156.74a.51.51,0,0,1-.51-.51V82a.51.51,0,0,1,.51-.51H203.3a.51.51,0,0,1,.51.51v8.23A.51.51,0,0,1,203.3,90.78Zm-46-1h45.54V82.55H157.25Z" style="fill:#1e1e1e"/><rect x="156.74" y="85.41" width="46.56" height="4.86" style="fill:#9b8ce5"/><path d="M203.3,90.78H156.74a.51.51,0,0,1-.51-.51V85.41a.51.51,0,0,1,.51-.51H203.3a.51.51,0,0,1,.51.51v4.86A.51.51,0,0,1,203.3,90.78Zm-46-1h45.54V85.92H157.25Z" style="fill:#1e1e1e"/><rect x="167.52" y="70.21" width="7.13" height="11.83" style="fill:#9b8ce5"/><path d="M174.66,82.55h-7.13A.51.51,0,0,1,167,82V70.21a.51.51,0,0,1,.51-.51h7.13a.51.51,0,0,1,.51.51V82A.51.51,0,0,1,174.66,82.55Zm-6.62-1h6.11V70.72H168Z" style="fill:#1e1e1e"/><rect x="176.87" y="49.65" width="7.13" height="8.49" style="fill:#36344c"/><path d="M184,58.65h-7.13a.51.51,0,0,1-.51-.51V49.65a.51.51,0,0,1,.51-.51H184a.51.51,0,0,1,.51.51v8.49A.51.51,0,0,1,184,58.65Zm-6.62-1h6.11V50.16h-6.11Z" style="fill:#1e1e1e"/><rect x="186.38" y="70.21" width="7.13" height="11.83" style="fill:#9b8ce5"/><path d="M193.52,82.55h-7.13a.51.51,0,0,1-.51-.51V70.21a.51.51,0,0,1,.51-.51h7.13a.51.51,0,0,1,.51.51V82A.51.51,0,0,1,193.52,82.55Zm-6.62-1H193V70.72h-6.11Z" style="fill:#1e1e1e"/><rect x="239.08" y="54.29" width="77.89" height="46.81" style="fill:#2c2a33"/><path d="M317,101.61H239.08a.51.51,0,0,1-.51-.51V54.29a.51.51,0,0,1,.51-.51H317a.51.51,0,0,1,.51.51V101.1A.51.51,0,0,1,317,101.61Zm-77.38-1h76.87V54.8H239.59Z" style="fill:#1e1e1e"/><rect x="316.96" y="54.29" width="2.53" height="46.81" transform="translate(636.45 155.38) rotate(180)" style="fill:#232129"/><path d="M319.49,101.61H317a.51.51,0,0,1-.51-.51V54.29a.51.51,0,0,1,.51-.51h2.53a.51.51,0,0,1,.51.51V101.1A.51.51,0,0,1,319.49,101.61Zm-2-1H319V54.8h-1.51Z" style="fill:#1e1e1e"/><rect x="243.58" y="54.29" width="28.46" height="46.81" style="fill:#2c2a33"/><path d="M272,101.61H243.58a.51.51,0,0,1-.51-.51V54.29a.51.51,0,0,1,.51-.51H272a.51.51,0,0,1,.51.51V101.1A.51.51,0,0,1,272,101.61Zm-28-1h27.44V54.8H244.09Z" style="fill:#1e1e1e"/><rect x="272.04" y="54.29" width="1.92" height="46.81" transform="translate(546 155.38) rotate(180)" style="fill:#232129"/><path d="M274,101.61H272a.51.51,0,0,1-.51-.51V54.29a.51.51,0,0,1,.51-.51H274a.51.51,0,0,1,.51.51V101.1A.51.51,0,0,1,274,101.61Zm-1.41-1h.9V54.8h-.9Z" style="fill:#1e1e1e"/><polygon points="247.68 38.66 318.92 38.66 319.49 54.29 237.48 54.29 247.68 38.66" style="fill:#232129"/><path d="M319.49,54.8h-82a.51.51,0,0,1-.43-.79l10.2-15.63a.51.51,0,0,1,.43-.23h71.25a.51.51,0,0,1,.51.49L320,54.27a.51.51,0,0,1-.51.53Zm-81.07-1H319l-.53-14.61H248Z" style="fill:#1e1e1e"/><polygon points="244.62 38.66 318.92 38.66 319.49 54.67 234.42 54.29 244.62 38.66" style="fill:#2c2a33"/><path d="M319.49,55.18h0l-85.07-.38A.51.51,0,0,1,234,54l10.2-15.63a.51.51,0,0,1,.43-.23h74.31a.51.51,0,0,1,.51.49l.57,16a.51.51,0,0,1-.51.53Zm-84.13-1.4,83.6.37-.53-15H244.89Z" style="fill:#1e1e1e"/><polygon points="260.49 42.02 274.76 54.29 246.22 54.29 257.43 42.02 260.49 42.02" style="fill:#232129"/><path d="M274.76,54.8H246.21a.51.51,0,0,1-.38-.85l11.21-12.27a.51.51,0,0,1,.38-.17h3.06a.51.51,0,0,1,.33.12l14.27,12.27a.51.51,0,0,1-.33.9Zm-27.39-1h26L260.3,42.53h-2.64Z" style="fill:#1e1e1e"/><polygon points="257.43 42.02 271.7 54.29 243.16 54.29 257.43 42.02" style="fill:#2c2a33"/><path d="M271.7,54.8H243.16a.51.51,0,0,1-.33-.9L257.1,41.64a.51.51,0,0,1,.67,0L272,53.91a.51.51,0,0,1-.33.9Zm-27.17-1h25.79L257.43,42.7Z" style="fill:#1e1e1e"/><rect x="249.27" y="61.17" width="5.1" height="10.32" style="fill:#9b8ce5"/><path d="M254.37,72h-5.1a.51.51,0,0,1-.51-.51V61.17a.51.51,0,0,1,.51-.51h5.1a.51.51,0,0,1,.51.51V71.49A.51.51,0,0,1,254.37,72Zm-4.59-1h4.08v-9.3h-4.08Z" style="fill:#1e1e1e"/><rect x="260.49" y="61.17" width="5.1" height="10.32" style="fill:#36344c"/><path d="M265.59,72h-5.1a.51.51,0,0,1-.51-.51V61.17a.51.51,0,0,1,.51-.51h5.1a.51.51,0,0,1,.51.51V71.49A.51.51,0,0,1,265.59,72ZM261,71h4.08v-9.3H261Z" style="fill:#1e1e1e"/><path d="M257.38,47.28h.1a2.5,2.5,0,0,1,2.5,2.5v.1a2.42,2.42,0,0,1-2.42,2.42h-.25a2.42,2.42,0,0,1-2.42-2.42v-.1a2.5,2.5,0,0,1,2.5-2.5Z" style="fill:#36344c"/><path d="M257.51,52.81h-.16a3,3,0,0,1-3-3,3.06,3.06,0,1,1,6.12,0A3,3,0,0,1,257.51,52.81Zm-.08-5a2,2,0,0,0-2,2,2,2,0,0,0,2,2h.16a2,2,0,0,0,2-2A2,2,0,0,0,257.43,47.79Z" style="fill:#1e1e1e"/><rect x="249.27" y="79.52" width="5.1" height="10.32" style="fill:#9b8ce5"/><path d="M254.37,90.35h-5.1a.51.51,0,0,1-.51-.51V79.52a.51.51,0,0,1,.51-.51h5.1a.51.51,0,0,1,.51.51V89.84A.51.51,0,0,1,254.37,90.35Zm-4.59-1h4.08V80h-4.08Z" style="fill:#1e1e1e"/><rect x="260.49" y="79.52" width="5.1" height="10.32" style="fill:#9b8ce5"/><path d="M265.59,90.35h-5.1a.51.51,0,0,1-.51-.51V79.52a.51.51,0,0,1,.51-.51h5.1a.51.51,0,0,1,.51.51V89.84A.51.51,0,0,1,265.59,90.35Zm-4.59-1h4.08V80H261Z" style="fill:#1e1e1e"/><rect x="288.31" y="54.29" width="28.46" height="46.81" style="fill:#2c2a33"/><path d="M316.77,101.61H288.31a.51.51,0,0,1-.51-.51V54.29a.51.51,0,0,1,.51-.51h28.46a.51.51,0,0,1,.51.51V101.1A.51.51,0,0,1,316.77,101.61Zm-28-1h27.44V54.8H288.82Z" style="fill:#1e1e1e"/><rect x="316.77" y="54.29" width="1.92" height="46.81" transform="translate(635.47 155.38) rotate(180)" style="fill:#232129"/><path d="M318.69,101.61h-1.92a.51.51,0,0,1-.51-.51V54.29a.51.51,0,0,1,.51-.51h1.92a.51.51,0,0,1,.51.51V101.1A.51.51,0,0,1,318.69,101.61Zm-1.41-1h.9V54.8h-.9Z" style="fill:#1e1e1e"/><polygon points="305.22 42.02 319.49 54.29 290.94 54.29 302.16 42.02 305.22 42.02" style="fill:#232129"/><path d="M319.49,54.8H290.94a.51.51,0,0,1-.38-.85l11.21-12.27a.51.51,0,0,1,.38-.17h3.06a.51.51,0,0,1,.33.12l14.27,12.27a.51.51,0,0,1-.33.9Zm-27.39-1h26L305,42.53h-2.64Z" style="fill:#1e1e1e"/><polygon points="302.16 42.02 316.43 54.29 287.89 54.29 302.16 42.02" style="fill:#2c2a33"/><path d="M316.43,54.8H287.89a.51.51,0,0,1-.33-.9l14.27-12.27a.51.51,0,0,1,.67,0l14.27,12.27a.51.51,0,0,1-.33.9Zm-27.17-1h25.79L302.16,42.7Z" style="fill:#1e1e1e"/><rect x="294" y="61.17" width="5.1" height="10.32" style="fill:#36344c"/><path d="M299.1,72H294a.51.51,0,0,1-.51-.51V61.17a.51.51,0,0,1,.51-.51h5.1a.51.51,0,0,1,.51.51V71.49A.51.51,0,0,1,299.1,72Zm-4.59-1h4.08v-9.3h-4.08Z" style="fill:#1e1e1e"/><rect x="305.22" y="61.17" width="5.1" height="10.32" style="fill:#36344c"/><path d="M310.32,72h-5.1a.51.51,0,0,1-.51-.51V61.17a.51.51,0,0,1,.51-.51h5.1a.51.51,0,0,1,.51.51V71.49A.51.51,0,0,1,310.32,72Zm-4.59-1h4.08v-9.3h-4.08Z" style="fill:#1e1e1e"/><path d="M302.11,47.28h.1a2.5,2.5,0,0,1,2.5,2.5v.1a2.42,2.42,0,0,1-2.42,2.42H302a2.42,2.42,0,0,1-2.42-2.42v-.1a2.5,2.5,0,0,1,2.5-2.5Z" style="fill:#36344c"/><path d="M302.24,52.81h-.16a3,3,0,0,1-3-3,3.06,3.06,0,1,1,6.12,0A3,3,0,0,1,302.24,52.81Zm-.08-5a2,2,0,0,0-2,2,2,2,0,0,0,2,2h.16a2,2,0,0,0,2-2A2,2,0,0,0,302.16,47.79Z" style="fill:#1e1e1e"/><path d="M287.2,42.43h.1a2.5,2.5,0,0,1,2.5,2.5v2.52a0,0,0,0,1,0,0h-5.1a0,0,0,0,1,0,0V44.93A2.5,2.5,0,0,1,287.2,42.43Z" style="fill:#36344c"/><path d="M289.8,48h-5.1a.51.51,0,0,1-.51-.51V45a3.06,3.06,0,0,1,6.12,0v2.47A.51.51,0,0,1,289.8,48Zm-4.59-1h4.08V45a2,2,0,0,0-4.08,0Z" style="fill:#1e1e1e"/><path d="M277,42.43h.1a2.5,2.5,0,0,1,2.5,2.5v2.52a0,0,0,0,1,0,0h-5.1a0,0,0,0,1,0,0V44.93a2.5,2.5,0,0,1,2.5-2.5Z" style="fill:#36344c"/><path d="M279.6,48h-5.1a.51.51,0,0,1-.51-.51V45a3.06,3.06,0,0,1,6.12,0v2.47A.51.51,0,0,1,279.6,48Zm-4.59-1h4.08V45A2,2,0,0,0,275,45Z" style="fill:#1e1e1e"/><rect x="294" y="79.52" width="5.1" height="10.32" style="fill:#36344c"/><path d="M299.1,90.35H294a.51.51,0,0,1-.51-.51V79.52A.51.51,0,0,1,294,79h5.1a.51.51,0,0,1,.51.51V89.84A.51.51,0,0,1,299.1,90.35Zm-4.59-1h4.08V80h-4.08Z" style="fill:#1e1e1e"/><rect x="305.22" y="79.52" width="5.1" height="10.32" style="fill:#36344c"/><path d="M310.32,90.35h-5.1a.51.51,0,0,1-.51-.51V79.52a.51.51,0,0,1,.51-.51h5.1a.51.51,0,0,1,.51.51V89.84A.51.51,0,0,1,310.32,90.35Zm-4.59-1h4.08V80h-4.08Z" style="fill:#1e1e1e"/><rect x="294" y="96.85" width="5.1" height="4.24" style="fill:#36344c"/><path d="M299.1,101.61H294a.51.51,0,0,1-.51-.51V96.85a.51.51,0,0,1,.51-.51h5.1a.51.51,0,0,1,.51.51v4.24A.51.51,0,0,1,299.1,101.61Zm-4.59-1h4.08V97.36h-4.08Z" style="fill:#1e1e1e"/><rect x="305.22" y="96.85" width="5.1" height="4.24" style="fill:#36344c"/><path d="M310.32,101.61h-5.1a.51.51,0,0,1-.51-.51V96.85a.51.51,0,0,1,.51-.51h5.1a.51.51,0,0,1,.51.51v4.24A.51.51,0,0,1,310.32,101.61Zm-4.59-1h4.08V97.36h-4.08Z" style="fill:#1e1e1e"/><rect x="276.8" y="61.17" width="8.41" height="10.32" style="fill:#36344c"/><path d="M285.21,72H276.8a.51.51,0,0,1-.51-.51V61.17a.51.51,0,0,1,.51-.51h8.41a.51.51,0,0,1,.51.51V71.49A.51.51,0,0,1,285.21,72Zm-7.9-1h7.39v-9.3h-7.39Z" style="fill:#1e1e1e"/><rect x="276.8" y="79.52" width="8.41" height="10.32" style="fill:#36344c"/><path d="M285.22,90.35H276.8a.51.51,0,0,1-.51-.51V79.52a.51.51,0,0,1,.51-.51h8.41a.51.51,0,0,1,.51.51V89.84A.51.51,0,0,1,285.22,90.35Zm-7.9-1h7.39V80h-7.39Z" style="fill:#1e1e1e"/><rect x="276.8" y="96.85" width="8.41" height="4.24" style="fill:#36344c"/><path d="M285.22,101.61H276.8a.51.51,0,0,1-.51-.51V96.85a.51.51,0,0,1,.51-.51h8.41a.51.51,0,0,1,.51.51v4.24A.51.51,0,0,1,285.22,101.61Zm-7.9-1h7.39V97.36h-7.39Z" style="fill:#1e1e1e"/><rect x="304.92" y="30.24" width="4.08" height="8.41" style="fill:#232129"/><path d="M309,39.16h-4.08a.51.51,0,0,1-.51-.51V30.24a.51.51,0,0,1,.51-.51H309a.51.51,0,0,1,.51.51v8.41A.51.51,0,0,1,309,39.16Zm-3.57-1h3.06V30.75h-3.06Z" style="fill:#1e1e1e"/><rect x="301.86" y="30.24" width="4.08" height="8.41" style="fill:#36344c"/><path d="M305.94,39.16h-4.08a.51.51,0,0,1-.51-.51V30.24a.51.51,0,0,1,.51-.51h4.08a.51.51,0,0,1,.51.51v8.41A.51.51,0,0,1,305.94,39.16Zm-3.57-1h3.06V30.75h-3.06Z" style="fill:#1e1e1e"/><rect x="294.72" y="30.24" width="4.08" height="8.41" style="fill:#232129"/><path d="M298.8,39.16h-4.08a.51.51,0,0,1-.51-.51V30.24a.51.51,0,0,1,.51-.51h4.08a.51.51,0,0,1,.51.51v8.41A.51.51,0,0,1,298.8,39.16Zm-3.57-1h3.06V30.75h-3.06Z" style="fill:#1e1e1e"/><rect x="291.67" y="30.24" width="4.08" height="8.41" style="fill:#36344c"/><path d="M295.74,39.16h-4.08a.51.51,0,0,1-.51-.51V30.24a.51.51,0,0,1,.51-.51h4.08a.51.51,0,0,1,.51.51v8.41A.51.51,0,0,1,295.74,39.16Zm-3.57-1h3.06V30.75h-3.06Z" style="fill:#1e1e1e"/><polygon points="250.45 88.01 111.28 88.01 118.42 68.13 250.38 68.13 250.45 88.01" style="fill:#2c2a33"/><path d="M250.45,88.52H111.28a.51.51,0,0,1-.48-.68L117.94,68a.51.51,0,0,1,.48-.34h132a.51.51,0,0,1,.51.51L251,88a.51.51,0,0,1-.51.51ZM112,87.5H249.93l-.06-18.86H118.78Z" style="fill:#1e1e1e"/><rect x="118.05" y="88.01" width="132.4" height="13.09" style="fill:#2c2a33"/><path d="M250.45,101.61H118a.51.51,0,0,1-.51-.51V88a.51.51,0,0,1,.51-.51h132.4A.51.51,0,0,1,251,88V101.1A.51.51,0,0,1,250.45,101.61Zm-131.89-1H249.94V88.52H118.56Z" style="fill:#1e1e1e"/><rect x="211.93" y="94.9" width="7.69" height="6.2" style="fill:#36344c"/><path d="M219.63,101.61h-7.69a.51.51,0,0,1-.51-.51V94.9a.51.51,0,0,1,.51-.51h7.69a.51.51,0,0,1,.51.51v6.2A.51.51,0,0,1,219.63,101.61Zm-7.18-1h6.67V95.41h-6.67Z" style="fill:#1e1e1e"/><rect x="191.54" y="94.9" width="7.69" height="6.2" style="fill:#36344c"/><path d="M199.23,101.61h-7.69a.51.51,0,0,1-.51-.51V94.9a.51.51,0,0,1,.51-.51h7.69a.51.51,0,0,1,.51.51v6.2A.51.51,0,0,1,199.23,101.61Zm-7.18-1h6.67V95.41h-6.67Z" style="fill:#1e1e1e"/><path d="M211.7,80a4.08,4.08,0,0,1,8.16,0Z" style="fill:#36344c"/><path d="M219.86,80.54H211.7a.51.51,0,0,1-.51-.51,4.59,4.59,0,0,1,9.18,0A.51.51,0,0,1,219.86,80.54Zm-7.61-1h7.07a3.57,3.57,0,0,0-7.07,0Z" style="fill:#1e1e1e"/><path d="M181.11,80a4.08,4.08,0,0,1,8.16,0Z" style="fill:#36344c"/><path d="M189.27,80.54h-8.16a.51.51,0,0,1-.51-.51,4.59,4.59,0,0,1,9.18,0A.51.51,0,0,1,189.27,80.54Zm-7.61-1h7.06a3.57,3.57,0,0,0-7.06,0Z" style="fill:#1e1e1e"/><path d="M150.53,80a4.08,4.08,0,0,1,8.16,0Z" style="fill:#9b8ce5"/><path d="M158.68,80.54h-8.16A.51.51,0,0,1,150,80a4.59,4.59,0,0,1,9.18,0A.51.51,0,0,1,158.68,80.54Zm-7.61-1h7.07a3.57,3.57,0,0,0-7.07,0Z" style="fill:#1e1e1e"/><path d="M242.29,80a4.08,4.08,0,1,1,8.16,0Z" style="fill:#9b8ce5"/><path d="M250.45,80.54h-8.16a.51.51,0,0,1-.51-.51A4.59,4.59,0,0,1,251,80,.51.51,0,0,1,250.45,80.54Zm-7.61-1h7.07a3.57,3.57,0,0,0-7.07,0Z" style="fill:#1e1e1e"/><path d="M156.83,101c-.35-.7-.47-.66-1-1.25a7.82,7.82,0,0,0-8.5-1.76,4.9,4.9,0,0,0-6.77-2.62A8.11,8.11,0,0,0,138,83.15,8.75,8.75,0,0,0,133.77,74a4.6,4.6,0,0,0-4.24-6.39l-.24,0a4.58,4.58,0,0,0-7.59-2.57h-.21a4.59,4.59,0,0,0-9.14.7l0-1.14A12.19,12.19,0,0,0,96.94,52.85a7.8,7.8,0,0,0-11.77-1.3,4.9,4.9,0,0,0-7.26,0A8.16,8.16,0,0,0,75.5,43,10.17,10.17,0,0,0,61,32.37a12.37,12.37,0,0,0-2.81-1.77C52.68,28,46.3,30.44,43.36,33.9a13.47,13.47,0,0,0-1-3,4.59,4.59,0,1,0-6.55-6.43,13.55,13.55,0,0,0-18.84,15.7,8.15,8.15,0,0,0-5.72,4.46,12.43,12.43,0,0,0-9.56-6.72l.13,0a5.93,5.93,0,0,0-.25-5.16c-1.57-2.88,2.25-4-.63-2.47V68.13" style="fill:#292830"/><path d="M156.83,101.5a.51.51,0,0,1-.46-.28,1.91,1.91,0,0,0-.54-.73l-.41-.39a7.29,7.29,0,0,0-7.95-1.65.51.51,0,0,1-.67-.29,4.39,4.39,0,0,0-6.06-2.35.51.51,0,0,1-.63-.77,7.6,7.6,0,0,0-2.35-11.43.51.51,0,0,1-.26-.53,8.24,8.24,0,0,0-4-8.6.51.51,0,0,1-.21-.64,4.09,4.09,0,0,0-3.77-5.68l-.21,0a.5.5,0,0,1-.53-.42A4.07,4.07,0,0,0,122,65.48a.54.54,0,0,1-.38.13h-.13a.59.59,0,0,1-.55-.44,4.08,4.08,0,0,0-8.12.62.51.51,0,0,1-.5.51.55.55,0,0,1-.52-.49l0-1.14A11.69,11.69,0,0,0,97.07,53.34a.52.52,0,0,1-.55-.21,7.29,7.29,0,0,0-11-1.22.54.54,0,0,1-.37.14.51.51,0,0,1-.36-.17,4.39,4.39,0,0,0-6.5,0,.51.51,0,0,1-.86-.5,7.64,7.64,0,0,0-2.25-8A.51.51,0,0,1,75,42.9a9.61,9.61,0,0,0-9.58-11,9.58,9.58,0,0,0-4.19,1,.51.51,0,0,1-.55-.07A11.94,11.94,0,0,0,58,31.06c-5.16-2.44-11.29-.3-14.25,3.17a.51.51,0,0,1-.89-.22,13,13,0,0,0-1-2.9.51.51,0,0,1,.11-.59,4.05,4.05,0,0,0,1.27-3,4.1,4.1,0,0,0-4.09-4.09,4,4,0,0,0-3,1.33.51.51,0,0,1-.59.12,13,13,0,0,0-5.47-1.21A13,13,0,0,0,17.41,40a.51.51,0,0,1-.39.63,7.68,7.68,0,0,0-5.37,4.18.51.51,0,0,1-.45.29.59.59,0,0,1-.46-.28,11.87,11.87,0,0,0-9.16-6.45.51.51,0,0,1-.18-.06v29.8a.51.51,0,0,1-1,0V30.24a.51.51,0,0,1,.27-.45c.42-.23.68-.39.83-.49a1.48,1.48,0,0,1,.27-.21.53.53,0,0,1,.71.2c.21.39-.11.65-.33.81A1.89,1.89,0,0,0,2,32.47a6.42,6.42,0,0,1,.48,5,12.88,12.88,0,0,1,8.74,6.06,8.73,8.73,0,0,1,5.11-3.78,14,14,0,0,1-.33-3,14.12,14.12,0,0,1,14.1-14.1,13.94,13.94,0,0,1,5.57,1.16,5,5,0,0,1,3.49-1.4,5.12,5.12,0,0,1,5.11,5.11A5.05,5.05,0,0,1,42.92,31a14.06,14.06,0,0,1,.7,1.88c3.39-3.34,9.56-5.22,14.8-2.74a12.88,12.88,0,0,1,2.66,1.64,10.58,10.58,0,0,1,4.34-.93,10.72,10.72,0,0,1,10.71,10.7A10.05,10.05,0,0,1,76,42.77a8.67,8.67,0,0,1,2.67,7.43,5.4,5.4,0,0,1,6.47.64,8.31,8.31,0,0,1,12,1.42,12.7,12.7,0,0,1,15.56,10.68,5.1,5.1,0,0,1,9.13,1.39,5.08,5.08,0,0,1,7.85,2.8,5.12,5.12,0,0,1,4.71,6.68,9.38,9.38,0,0,1,4.26,7.83,9.07,9.07,0,0,1-.09,1.24,8.56,8.56,0,0,1,1.73,1.35,8.68,8.68,0,0,1,1.45,10.18,5.4,5.4,0,0,1,5.82,2.92,8.3,8.3,0,0,1,8.59,2.05l.37.36a2.86,2.86,0,0,1,.76,1,.51.51,0,0,1-.46.74ZM1.4,33.67v3.75A5.4,5.4,0,0,0,1.4,33.67Z" style="fill:#1e1e1e"/><path d="M3.81,1A3.67,3.67,0,0,1,5.55,4.57a4,4,0,0,1,4.31,5.59,2.94,2.94,0,0,1,1.4.42,3,3,0,0,1,1,4.09h0a6.55,6.55,0,0,0-3.69.91l.1-.06a7.25,7.25,0,0,1,9,11,4.76,4.76,0,0,1,2.63,8.62,2.86,2.86,0,0,1,3.38,2.56,4.57,4.57,0,0,1,2.67,8.55l-.3.15a2.65,2.65,0,0,1,.51.65,2.68,2.68,0,0,1-1.07,3.64,3.47,3.47,0,0,1,4.86,4.41h-.08a7.25,7.25,0,0,0-8.1,7.8A7.24,7.24,0,0,1,35.77,59a4.76,4.76,0,0,1,8.95,1.07A2.86,2.86,0,0,1,48.43,58a4.57,4.57,0,0,1,4-3.16l1.22,0a2.73,2.73,0,0,1,.12-.66,7.21,7.21,0,0,1,2.66-3,7.94,7.94,0,0,1,4.36-1.08h0c.21,0,.42,0,.63.08l.34.06.31.08.48.14a6.53,6.53,0,0,1,.7.28,7.25,7.25,0,0,1,4.23,6.91,4.76,4.76,0,0,1,7.28,5.31,2.86,2.86,0,0,1,4.24,0,4.57,4.57,0,0,1,7.27,5.23c0,.1-.1.2-.16.3a2.65,2.65,0,0,1,.8.21,2.68,2.68,0,0,1,1.33,3.55,3.47,3.47,0,0,1,6.53.6l-.05.08a7.25,7.25,0,0,1,11.73,8.06,4.76,4.76,0,0,1,4.9,7.57,2.86,2.86,0,0,1,4,1.53,4.57,4.57,0,0,1,4.91,7.49l-.25.22a2.65,2.65,0,0,1,.67.48c1,1.06,1.44,1.64.39,2.68l-3.74.17H.51L.56.77A3.66,3.66,0,0,1,3.81,1Z" style="fill:#36344c"/><path d="M.51,101.78a.51.51,0,0,1-.51-.51L0,.77A.51.51,0,0,1,.37.29a4.15,4.15,0,0,1,3.7.32A4.2,4.2,0,0,1,6.08,4a4.48,4.48,0,0,1,4.49,5.75,3.35,3.35,0,0,1,1,.39A3.5,3.5,0,0,1,13,14.25a7.74,7.74,0,0,1,5.51,11.88,5.27,5.27,0,0,1,3,8.54,3.36,3.36,0,0,1,2.23,1.68,3.32,3.32,0,0,1,.32.83,5.08,5.08,0,0,1,2.74,9.39,2.87,2.87,0,0,1,.15.25A3.19,3.19,0,0,1,27,49.76a4.4,4.4,0,0,1,1.21.16,4,4,0,0,1,2.74,4.79A7.74,7.74,0,0,1,35.78,58a5.27,5.27,0,0,1,9,.73,3.36,3.36,0,0,1,2.43-1.37,3.33,3.33,0,0,1,.88,0,5.06,5.06,0,0,1,4.24-3.06l.82,0c0-.09,0-.18.07-.28a7.73,7.73,0,0,1,2.88-3.25,8.49,8.49,0,0,1,4.66-1.15c.25,0,.47,0,.7.08l.37.06.26.06v.53l.13-.49.45.13a7.06,7.06,0,0,1,.76.3A7.71,7.71,0,0,1,68,56.89a5.27,5.27,0,0,1,7.5,5,3.37,3.37,0,0,1,2.79,0,3.33,3.33,0,0,1,.75.47,5.08,5.08,0,0,1,7.83,5.86l.27.11a3.19,3.19,0,0,1,1.81,2.32A4,4,0,0,1,93,70.2a4,4,0,0,1,2,1.93,7.76,7.76,0,0,1,12.21,8.35,5.27,5.27,0,0,1,5.2,7.4,3.39,3.39,0,0,1,2.61,1,3.35,3.35,0,0,1,.53.71,5.08,5.08,0,0,1,5.21,8.27l.22.2c.89.9,1.89,1.92.38,3.4a.5.5,0,0,1-.33.15l-3.74.17Zm.51-1H117.26l3.52-.16c.55-.58.44-.84-.53-1.82a2.15,2.15,0,0,0-.54-.39.51.51,0,0,1-.09-.84l.22-.2a4.06,4.06,0,0,0-4.37-6.65.51.51,0,0,1-.67-.29,2.35,2.35,0,0,0-3.25-1.26.51.51,0,0,1-.63-.77,4.25,4.25,0,0,0-4.37-6.76.51.51,0,0,1-.59-.7,6.74,6.74,0,0,0-10.9-7.49.51.51,0,0,1-.85-.5,3,3,0,0,0-5.52-.34h0a.51.51,0,0,1-.93-.42h0a2.17,2.17,0,0,0-1.08-2.87,2.2,2.2,0,0,0-.64-.17.51.51,0,0,1-.39-.75c.05-.1.1-.18.14-.27a4.06,4.06,0,0,0-6.46-4.65.53.53,0,0,1-.37.14.51.51,0,0,1-.36-.17,2.35,2.35,0,0,0-3.49,0,.51.51,0,0,1-.86-.5,4.25,4.25,0,0,0-6.5-4.74.51.51,0,0,1-.8-.44A6.71,6.71,0,0,0,63,51.31a6.11,6.11,0,0,0-.66-.26L62,50.95l-.14,0-.22-.05-.24,0c-.27,0-.46-.07-.66-.08a7.46,7.46,0,0,0-4.09,1,6.7,6.7,0,0,0-2.46,2.74,2.58,2.58,0,0,0-.07.46.48.48,0,0,1-.53.49l-1.22,0a4,4,0,0,0-3.46,2.81.51.51,0,0,1-.65.33,2.29,2.29,0,0,0-1-.12,2.36,2.36,0,0,0-2.09,1.81.51.51,0,0,1-1,0,4.25,4.25,0,0,0-8-1,.51.51,0,0,1-.45.29.49.49,0,0,1-.46-.28,6.73,6.73,0,0,0-5.19-3.65h0a6.71,6.71,0,0,0-1.18,0h-.21a6.75,6.75,0,0,0-6.17,6.71c0,.19,0,.38,0,.57,0,0,0,0,0,0a.51.51,0,0,1-1,0q0-.33,0-.66a7.77,7.77,0,0,1,8.37-7.73,3,3,0,0,0-4.26-3.43h0a.51.51,0,0,1-.49-.9h0A2.17,2.17,0,0,0,26,47.31a2.09,2.09,0,0,0-.41-.52.51.51,0,0,1,.14-.83l.27-.13a4.06,4.06,0,0,0-2.37-7.6.49.49,0,0,1-.38-.11.51.51,0,0,1-.18-.35,2.35,2.35,0,0,0-2.78-2.1.51.51,0,0,1-.39-.92A4.25,4.25,0,0,0,17.59,27a.51.51,0,0,1-.38-.83A6.74,6.74,0,0,0,8.88,16l0,0h0a.56.56,0,0,1-.67-.18.47.47,0,0,1,.1-.66,7,7,0,0,1,3.7-1,2.44,2.44,0,0,0-2.12-3.48.51.51,0,0,1-.44-.73A3.45,3.45,0,0,0,5.64,5.07a.53.53,0,0,1-.44-.13A.51.51,0,0,1,5,4.51a3.18,3.18,0,0,0-1.5-3h0a3.14,3.14,0,0,0-2.48-.35Z" style="fill:#1e1e1e"/><rect x="0.71" y="46.45" width="43.08" height="54.65" style="fill:#2c2a33"/><path d="M43.78,101.61H.71a.51.51,0,0,1-.51-.51V46.45a.51.51,0,0,1,.51-.51H43.78a.51.51,0,0,1,.51.51V101.1A.51.51,0,0,1,43.78,101.61Zm-42.57-1H43.27V47H1.22Z" style="fill:#1e1e1e"/><rect x="43.78" y="46.45" width="2.53" height="54.65" transform="translate(90.09 147.55) rotate(180)" style="fill:#232129"/><path d="M46.31,101.61H43.78a.51.51,0,0,1-.51-.51V46.45a.51.51,0,0,1,.51-.51h2.53a.51.51,0,0,1,.51.51V101.1A.51.51,0,0,1,46.31,101.61Zm-2-1H45.8V47H44.29Z" style="fill:#1e1e1e"/><rect x="0.56" y="46.45" width="16.29" height="54.65" style="fill:#2c2a33"/><path d="M16.85,101.61H.56A.51.51,0,0,1,0,101.1V46.45a.51.51,0,0,1,.51-.51H16.85a.51.51,0,0,1,.51.51V101.1A.51.51,0,0,1,16.85,101.61Zm-15.79-1H16.34V47H1.07Z" style="fill:#1e1e1e"/><rect x="16.85" y="46.45" width="1.92" height="54.65" transform="translate(35.62 147.55) rotate(180)" style="fill:#232129"/><path d="M18.77,101.61H16.85a.51.51,0,0,1-.51-.51V46.45a.51.51,0,0,1,.51-.51h1.92a.51.51,0,0,1,.51.51V101.1A.51.51,0,0,1,18.77,101.61Zm-1.41-1h.9V47h-.9Z" style="fill:#1e1e1e"/><polygon points="0.56 30.82 41.3 30.82 51.5 46.45 0.56 46.5 0.56 30.82" style="fill:#232129"/><path d="M.56,47A.51.51,0,0,1,0,46.5V30.82a.51.51,0,0,1,.51-.51H41.3a.51.51,0,0,1,.43.23l10.2,15.63a.51.51,0,0,1-.43.79L.56,47Zm.51-15.68V46l49.49,0L41,31.33Z" style="fill:#1e1e1e"/><polygon points="0.56 30.82 38.24 30.82 48.44 46.45 0.56 46.5 0.56 30.82" style="fill:#2c2a33"/><path d="M.56,47A.51.51,0,0,1,0,46.5V30.82a.51.51,0,0,1,.51-.51H38.24a.51.51,0,0,1,.43.23l10.2,15.63a.51.51,0,0,1-.43.79L.56,47Zm.51-15.68V46l46.43,0L38,31.33Z" style="fill:#1e1e1e"/><polygon points="5.3 34.19 19.57 46.45 0.56 46.5 2.24 34.19 5.3 34.19" style="fill:#232129"/><path d="M.56,47a.51.51,0,0,1-.5-.58L1.73,34.12a.51.51,0,0,1,.5-.44H5.3a.51.51,0,0,1,.33.12L19.9,46.07a.51.51,0,0,1-.33.9l-19,0ZM2.68,34.7,1.14,46l17.06,0L5.11,34.7Z" style="fill:#1e1e1e"/><polygon points="2.24 34.19 16.51 46.45 0.56 46.5 0.56 35.63 0.56 35.63 2.24 34.19" style="fill:#2c2a33"/><path d="M.56,47A.51.51,0,0,1,0,46.5V35.63a.51.51,0,0,1,.18-.39L1.91,33.8a.51.51,0,0,1,.67,0L16.84,46.07a.51.51,0,0,1-.33.9l-16,0Zm.51-11.14V46l14.07,0L2.24,34.86Z" style="fill:#1e1e1e"/><line x1="15.87" y1="25.93" x2="15.87" y2="33.07" style="fill:#fff"/><path d="M15.87,33.58a.51.51,0,0,1-.51-.51V25.93a.51.51,0,0,1,1,0v7.14A.51.51,0,0,1,15.87,33.58Z" style="fill:#1e1e1e"/><rect x="5.3" y="53.33" width="5.1" height="10.32" style="fill:#36344c"/><path d="M10.39,64.16H5.3a.51.51,0,0,1-.51-.51V53.33a.51.51,0,0,1,.51-.51h5.1a.51.51,0,0,1,.51.51V63.65A.51.51,0,0,1,10.39,64.16Zm-4.59-1H9.89v-9.3H5.81Z" style="fill:#1e1e1e"/><path d="M3.39,41.48h.1A2.5,2.5,0,0,1,6,44V46.5a0,0,0,0,1,0,0H.89a0,0,0,0,1,0,0V44A2.5,2.5,0,0,1,3.39,41.48Z" style="fill:#36344c"/><path d="M6,47H.89a.51.51,0,0,1-.51-.51V44A3.06,3.06,0,1,1,6.5,44V46.5A.51.51,0,0,1,6,47ZM1.4,46H5.48V44A2,2,0,1,0,1.4,44Z" style="fill:#1e1e1e"/><rect x="5.3" y="71.68" width="5.1" height="10.32" style="fill:#36344c"/><path d="M10.39,82.52H5.3A.51.51,0,0,1,4.79,82V71.68a.51.51,0,0,1,.51-.51h5.1a.51.51,0,0,1,.51.51V82A.51.51,0,0,1,10.39,82.52Zm-4.59-1H9.89v-9.3H5.81Z" style="fill:#1e1e1e"/><rect x="5.3" y="89.02" width="5.1" height="10.32" style="fill:#232129"/><path d="M10.39,99.85H5.3a.51.51,0,0,1-.51-.51V89a.51.51,0,0,1,.51-.51h5.1a.51.51,0,0,1,.51.51V99.34A.51.51,0,0,1,10.39,99.85Zm-4.59-1H9.89v-9.3H5.81Z" style="fill:#1e1e1e"/><rect x="21.87" y="53.33" width="11.21" height="10.32" style="fill:#9b8ce5"/><path d="M33.08,64.16H21.87a.51.51,0,0,1-.51-.51V53.33a.51.51,0,0,1,.51-.51H33.08a.51.51,0,0,1,.51.51V63.65A.51.51,0,0,1,33.08,64.16Zm-10.7-1H32.57v-9.3H22.38Z" style="fill:#1e1e1e"/><rect x="33.08" y="53.33" width="5.1" height="10.32" style="fill:#9b8ce5"/><path d="M38.18,64.16h-5.1a.51.51,0,0,1-.51-.51V53.33a.51.51,0,0,1,.51-.51h5.1a.51.51,0,0,1,.51.51V63.65A.51.51,0,0,1,38.18,64.16Zm-4.59-1h4.08v-9.3H33.59Z" style="fill:#1e1e1e"/><rect x="21.87" y="71.68" width="11.21" height="10.32" style="fill:#9b8ce5"/><path d="M33.08,82.52H21.87a.51.51,0,0,1-.51-.51V71.68a.51.51,0,0,1,.51-.51H33.08a.51.51,0,0,1,.51.51V82A.51.51,0,0,1,33.08,82.52Zm-10.7-1H32.57v-9.3H22.38Z" style="fill:#1e1e1e"/><rect x="33.08" y="71.68" width="5.1" height="10.32" style="fill:#9b8ce5"/><path d="M38.18,82.52h-5.1a.51.51,0,0,1-.51-.51V71.68a.51.51,0,0,1,.51-.51h5.1a.51.51,0,0,1,.51.51V82A.51.51,0,0,1,38.18,82.52Zm-4.59-1h4.08v-9.3H33.59Z" style="fill:#1e1e1e"/><rect x="21.87" y="89.02" width="11.21" height="10.32" style="fill:#9b8ce5"/><path d="M33.08,99.85H21.87a.51.51,0,0,1-.51-.51V89a.51.51,0,0,1,.51-.51H33.08a.51.51,0,0,1,.51.51V99.34A.51.51,0,0,1,33.08,99.85Zm-10.7-1H32.57v-9.3H22.38Z" style="fill:#1e1e1e"/><rect x="33.08" y="89.02" width="5.1" height="10.32" style="fill:#9b8ce5"/><path d="M38.18,99.85h-5.1a.51.51,0,0,1-.51-.51V89a.51.51,0,0,1,.51-.51h5.1a.51.51,0,0,1,.51.51V99.34A.51.51,0,0,1,38.18,99.85Zm-4.59-1h4.08v-9.3H33.59Z" style="fill:#1e1e1e"/><rect x="144.55" y="75.71" width="35.61" height="25.39" style="fill:#232129"/><path d="M180.16,101.61H144.55a.51.51,0,0,1-.51-.51V75.71a.51.51,0,0,1,.51-.51h35.61a.51.51,0,0,1,.51.51V101.1A.51.51,0,0,1,180.16,101.61Zm-35.1-1h34.59V76.22H145.06Z" style="fill:#1e1e1e"/><rect x="146.86" y="50.48" width="30.99" height="20.74" style="fill:#232129"/><path d="M177.85,71.73h-31a.51.51,0,0,1-.51-.51V50.48a.51.51,0,0,1,.51-.51h31a.51.51,0,0,1,.51.51V71.22A.51.51,0,0,1,177.85,71.73Zm-30.48-1h30V51h-30Z" style="fill:#1e1e1e"/><rect x="148.8" y="40.04" width="27.1" height="10.44" style="fill:#232129"/><path d="M175.9,51H148.8a.51.51,0,0,1-.51-.51V40a.51.51,0,0,1,.51-.51h27.1a.51.51,0,0,1,.51.51V50.48A.51.51,0,0,1,175.9,51Zm-26.59-1h26.08V40.55H149.31Z" style="fill:#1e1e1e"/><rect x="149.69" y="34.69" width="25.32" height="5.36" style="fill:#232129"/><path d="M175,40.55H149.69a.51.51,0,0,1-.51-.51V34.68a.51.51,0,0,1,.51-.51H175a.51.51,0,0,1,.51.51V40A.51.51,0,0,1,175,40.55Zm-24.81-1h24.3V35.19H150.2Z" style="fill:#1e1e1e"/><path d="M154,28.56h16.71a6,6,0,0,1,6,6v.12a0,0,0,0,1,0,0H148a0,0,0,0,1,0,0v-.12a6,6,0,0,1,6-6Z" style="fill:#232129"/><path d="M176.71,35.19H148a.51.51,0,0,1-.51-.51,6.64,6.64,0,0,1,6.63-6.63h16.48a6.64,6.64,0,0,1,6.63,6.63A.51.51,0,0,1,176.71,35.19Zm-28.19-1h27.65a5.62,5.62,0,0,0-5.59-5.1H154.11A5.62,5.62,0,0,0,148.52,34.18Z" style="fill:#1e1e1e"/><rect x="140.99" y="71.3" width="42.72" height="4.38" style="fill:#232129"/><path d="M183.71,76.19H141a.51.51,0,0,1-.51-.51V71.3a.51.51,0,0,1,.51-.51h42.72a.51.51,0,0,1,.51.51v4.38A.51.51,0,0,1,183.71,76.19Zm-42.21-1h41.7V71.81H141.5Z" style="fill:#1e1e1e"/><rect x="141.49" y="75.71" width="35.61" height="25.39" style="fill:#2c2a33"/><path d="M177.1,101.61H141.49a.51.51,0,0,1-.51-.51V75.71a.51.51,0,0,1,.51-.51H177.1a.51.51,0,0,1,.51.51V101.1A.51.51,0,0,1,177.1,101.61Zm-35.1-1h34.59V76.22H142Z" style="fill:#1e1e1e"/><rect x="143.8" y="50.48" width="30.99" height="20.74" style="fill:#2c2a33"/><path d="M174.79,71.73h-31a.51.51,0,0,1-.51-.51V50.48a.51.51,0,0,1,.51-.51h31a.51.51,0,0,1,.51.51V71.22A.51.51,0,0,1,174.79,71.73Zm-30.48-1h30V51h-30Z" style="fill:#1e1e1e"/><rect x="145.74" y="40.04" width="27.1" height="10.44" style="fill:#2c2a33"/><path d="M172.84,51h-27.1a.51.51,0,0,1-.51-.51V40a.51.51,0,0,1,.51-.51h27.1a.51.51,0,0,1,.51.51V50.48A.51.51,0,0,1,172.84,51Zm-26.59-1h26.08V40.55H146.25Z" style="fill:#1e1e1e"/><rect x="146.63" y="34.69" width="25.32" height="5.36" style="fill:#2c2a33"/><path d="M172,40.55H146.63a.51.51,0,0,1-.51-.51V34.68a.51.51,0,0,1,.51-.51H172a.51.51,0,0,1,.51.51V40A.51.51,0,0,1,172,40.55Zm-24.81-1h24.3V35.19h-24.3Z" style="fill:#1e1e1e"/><path d="M150.94,28.56h16.71a6,6,0,0,1,6,6v.12a0,0,0,0,1,0,0H144.93a0,0,0,0,1,0,0v-.12A6,6,0,0,1,150.94,28.56Z" style="fill:#2c2a33"/><path d="M173.65,35.19H144.93a.51.51,0,0,1-.51-.51,6.64,6.64,0,0,1,6.63-6.63h16.48a6.64,6.64,0,0,1,6.63,6.63A.51.51,0,0,1,173.65,35.19Zm-28.19-1h27.65a5.62,5.62,0,0,0-5.59-5.1H151.05A5.62,5.62,0,0,0,145.47,34.18Z" style="fill:#1e1e1e"/><rect x="137.93" y="71.3" width="42.72" height="4.38" style="fill:#2c2a33"/><path d="M180.65,76.19H137.93a.51.51,0,0,1-.51-.51V71.3a.51.51,0,0,1,.51-.51h42.72a.51.51,0,0,1,.51.51v4.38A.51.51,0,0,1,180.65,76.19Zm-42.21-1h41.7V71.81h-41.7Z" style="fill:#1e1e1e"/><line x1="142.2" y1="50.51" x2="176.32" y2="50.51" style="fill:#5e55a0"/><path d="M176.32,51H142.2a.51.51,0,0,1,0-1h34.12a.51.51,0,0,1,0,1Z" style="fill:#1e1e1e"/><path d="M143.57,40.52a.51.51,0,0,1,0-1l31.5,0h0a.51.51,0,0,1,0,1l-31.5,0Z" style="fill:#1e1e1e"/><path d="M159.34,28.72a.51.51,0,0,1-.51-.51l0-6.44a.51.51,0,0,1,.51-.51h0a.51.51,0,0,1,.51.51l0,6.44a.51.51,0,0,1-.51.51Z" style="fill:#1e1e1e"/><path d="M147,71.09v-7.9a3.74,3.74,0,0,1,3.74-3.74h0a3.74,3.74,0,0,1,3.74,3.74v7.9Z" style="fill:#36344c"/><path d="M154.45,71.6H147a.51.51,0,0,1-.51-.51v-7.9a4.25,4.25,0,0,1,8.5,0v7.9A.51.51,0,0,1,154.45,71.6Zm-7-1h6.46V63.19a3.23,3.23,0,0,0-6.46,0Z" style="fill:#1e1e1e"/><path d="M164.31,71.09v-7.9A3.74,3.74,0,0,1,168,59.45h0a3.74,3.74,0,0,1,3.74,3.74v7.9Z" style="fill:#36344c"/><path d="M171.78,71.6h-7.48a.51.51,0,0,1-.51-.51v-7.9a4.25,4.25,0,1,1,8.5,0v7.9A.51.51,0,0,1,171.78,71.6Zm-7-1h6.46V63.19a3.23,3.23,0,0,0-6.46,0Z" style="fill:#1e1e1e"/><polygon points="195.91 101.1 179.92 101.1 180.24 94.75 186.03 94.75 195.91 101.1" style="fill:#232129"/><path d="M195.91,101.61h-16a.51.51,0,0,1-.51-.54l.32-6.35a.51.51,0,0,1,.51-.48H186a.51.51,0,0,1,.28.08l9.88,6.35a.51.51,0,0,1-.28.94Zm-15.46-1h13.72l-8.29-5.33h-5.16Z" style="fill:#1e1e1e"/><polygon points="192.85 101.1 176.86 101.1 177.18 94.75 182.97 94.75 192.85 101.1" style="fill:#2c2a33"/><path d="M192.85,101.61h-16a.51.51,0,0,1-.51-.54l.32-6.35a.51.51,0,0,1,.51-.48H183a.51.51,0,0,1,.28.08l9.88,6.35a.51.51,0,0,1-.28.94Zm-15.46-1h13.72l-8.29-5.33h-5.16Z" style="fill:#1e1e1e"/><rect x="103.59" y="57.54" width="29.23" height="20.79" style="fill:#2c2a33"/><path d="M132.82,78.84H103.59a.51.51,0,0,1-.51-.51V57.54a.51.51,0,0,1,.51-.51h29.23a.51.51,0,0,1,.51.51V78.33A.51.51,0,0,1,132.82,78.84Zm-28.72-1h28.21V58H104.1Z" style="fill:#1e1e1e"/><rect x="121" y="61.99" width="5.17" height="10.35" style="fill:#36344c"/><path d="M126.18,72.85H121a.51.51,0,0,1-.51-.51V62a.51.51,0,0,1,.51-.51h5.17a.51.51,0,0,1,.51.51V72.34A.51.51,0,0,1,126.18,72.85Zm-4.66-1h4.15V62.5h-4.15Z" style="fill:#1e1e1e"/><rect x="132.82" y="57.54" width="2.25" height="20.79" transform="translate(267.88 135.87) rotate(180)" style="fill:#232129"/><path d="M135.06,78.84h-2.25a.51.51,0,0,1-.51-.51V57.54a.51.51,0,0,1,.51-.51h2.25a.51.51,0,0,1,.51.51V78.33A.51.51,0,0,1,135.06,78.84Zm-1.74-1h1.23V58h-1.23Z" style="fill:#1e1e1e"/><polygon points="120.65 42.77 138.7 57.53 136.36 57.51 118.18 42.77 120.65 42.77" style="fill:#232129"/><path d="M138.7,58h0l-2.34,0a.51.51,0,0,1-.32-.11L117.86,43.17a.51.51,0,0,1,.32-.91h2.48a.51.51,0,0,1,.32.12l18,14.75a.51.51,0,0,1-.32.9Zm-2.15-1h.71L120.47,43.28h-.85Z" style="fill:#1e1e1e"/><polygon points="118.18 42.77 136.22 57.53 100.13 57.53 118.18 42.77" style="fill:#2c2a33"/><path d="M136.22,58H100.13a.51.51,0,0,1-.32-.9l18-14.75a.51.51,0,0,1,.65,0l18,14.75a.51.51,0,0,1-.32.9Zm-34.66-1h33.23L118.18,43.43Z" style="fill:#1e1e1e"/><rect x="108.77" y="61.99" width="5.17" height="10.35" style="fill:#36344c"/><path d="M113.94,72.85h-5.18a.51.51,0,0,1-.51-.51V62a.51.51,0,0,1,.51-.51h5.18a.51.51,0,0,1,.51.51V72.34A.51.51,0,0,1,113.94,72.85Zm-4.67-1h4.16V62.5h-4.16Z" style="fill:#1e1e1e"/><rect x="14.89" y="57.54" width="29.23" height="20.79" style="fill:#2c2a33"/><path d="M44.12,78.84H14.89a.51.51,0,0,1-.51-.51V57.54a.51.51,0,0,1,.51-.51H44.12a.51.51,0,0,1,.51.51V78.33A.51.51,0,0,1,44.12,78.84Zm-28.72-1H43.61V58H15.4Z" style="fill:#1e1e1e"/><rect x="32.3" y="61.99" width="5.17" height="10.35" style="fill:#36344c"/><path d="M37.48,72.85H32.3a.51.51,0,0,1-.51-.51V62a.51.51,0,0,1,.51-.51h5.17A.51.51,0,0,1,38,62V72.34A.51.51,0,0,1,37.48,72.85Zm-4.66-1H37V62.5H32.81Z" style="fill:#1e1e1e"/><rect x="44.12" y="57.54" width="2.25" height="20.79" transform="translate(90.49 135.87) rotate(180)" style="fill:#232129"/><path d="M46.37,78.84H44.12a.51.51,0,0,1-.51-.51V57.54a.51.51,0,0,1,.51-.51h2.25a.51.51,0,0,1,.51.51V78.33A.51.51,0,0,1,46.37,78.84Zm-1.74-1h1.23V58H44.63Z" style="fill:#1e1e1e"/><rect x="42.08" y="78.04" width="65.25" height="23.06" style="fill:#2c2a33"/><path d="M107.33,101.61H42.08a.51.51,0,0,1-.51-.51V78a.51.51,0,0,1,.51-.51h65.25a.51.51,0,0,1,.51.51V101.1A.51.51,0,0,1,107.33,101.61Zm-64.74-1h64.23v-22H42.59Z" style="fill:#1e1e1e"/><rect x="113.32" y="86.36" width="56.07" height="7.77" style="fill:#2c2a33"/><path d="M169.39,94.64H113.32a.51.51,0,0,1-.51-.51V86.36a.51.51,0,0,1,.51-.51h56.07a.51.51,0,0,1,.51.51v7.77A.51.51,0,0,1,169.39,94.64Zm-55.56-1h55.05V86.87H113.83Z" style="fill:#1e1e1e"/><polygon points="124.02 78.58 143.65 78.58 181.79 86.36 124.02 86.36 124.02 78.58" style="fill:#232129"/><path d="M181.79,86.87H124a.51.51,0,0,1-.51-.51V78.58a.51.51,0,0,1,.51-.51h19.73l38.14,7.77a.51.51,0,0,1-.1,1Zm-57.26-1h52.2L143.6,79.09H124.53Z" style="fill:#1e1e1e"/><polygon points="115.87 78.58 135.49 78.58 173.63 86.36 115.87 86.36 115.87 78.58" style="fill:#2c2a33"/><path d="M173.63,86.87H115.87a.51.51,0,0,1-.51-.51V78.58a.51.51,0,0,1,.51-.51h19.73l38.14,7.77a.51.51,0,0,1-.1,1Zm-57.26-1h52.2l-33.14-6.75H116.38Z" style="fill:#1e1e1e"/><rect x="145.78" y="94.09" width="9.43" height="4.98" style="fill:#232129"/><path d="M155.21,99.58h-9.43a.51.51,0,0,1-.51-.51v-5a.51.51,0,0,1,.51-.51h9.43a.51.51,0,0,1,.51.51v5A.51.51,0,0,1,155.21,99.58Zm-8.92-1h8.41v-4h-8.41Z" style="fill:#1e1e1e"/><rect x="147.43" y="98.99" width="6.21" height="2.11" style="fill:#232129"/><path d="M153.64,101.61h-6.21a.51.51,0,0,1-.51-.51V99a.51.51,0,0,1,.51-.51h6.21a.51.51,0,0,1,.51.51v2.11A.51.51,0,0,1,153.64,101.61Zm-5.7-1h5.19V99.5h-5.19Z" style="fill:#1e1e1e"/><rect x="137.66" y="94.11" width="6.21" height="6.99" style="fill:#232129"/><path d="M143.87,101.61h-6.21a.51.51,0,0,1-.51-.51v-7a.51.51,0,0,1,.51-.51h6.21a.51.51,0,0,1,.51.51v7A.51.51,0,0,1,143.87,101.61Zm-5.7-1h5.19v-6h-5.19Z" style="fill:#1e1e1e"/><rect x="158.78" y="94.09" width="9.43" height="4.98" style="fill:#232129"/><path d="M168.21,99.58h-9.43a.51.51,0,0,1-.51-.51v-5a.51.51,0,0,1,.51-.51h9.43a.51.51,0,0,1,.51.51v5A.51.51,0,0,1,168.21,99.58Zm-8.92-1h8.41v-4h-8.41Z" style="fill:#1e1e1e"/><rect x="160.43" y="98.99" width="6.21" height="2.11" style="fill:#232129"/><path d="M166.64,101.61h-6.21a.51.51,0,0,1-.51-.51V99a.51.51,0,0,1,.51-.51h6.21a.51.51,0,0,1,.51.51v2.11A.51.51,0,0,1,166.64,101.61Zm-5.7-1h5.19V99.5h-5.19Z" style="fill:#1e1e1e"/><rect x="143.74" y="94.09" width="9.43" height="4.98" style="fill:#2c2a33"/><path d="M153.17,99.58h-9.43a.51.51,0,0,1-.51-.51v-5a.51.51,0,0,1,.51-.51h9.43a.51.51,0,0,1,.51.51v5A.51.51,0,0,1,153.17,99.58Zm-8.92-1h8.41v-4h-8.41Z" style="fill:#1e1e1e"/><rect x="145.39" y="98.99" width="6.21" height="2.11" style="fill:#2c2a33"/><path d="M151.6,101.61h-6.21a.51.51,0,0,1-.51-.51V99a.51.51,0,0,1,.51-.51h6.21a.51.51,0,0,1,.51.51v2.11A.51.51,0,0,1,151.6,101.61Zm-5.7-1h5.19V99.5H145.9Z" style="fill:#1e1e1e"/><rect x="156.74" y="94.09" width="9.43" height="4.98" style="fill:#2c2a33"/><path d="M166.17,99.58h-9.43a.51.51,0,0,1-.51-.51v-5a.51.51,0,0,1,.51-.51h9.43a.51.51,0,0,1,.51.51v5A.51.51,0,0,1,166.17,99.58Zm-8.92-1h8.41v-4h-8.41Z" style="fill:#1e1e1e"/><rect x="158.39" y="98.99" width="6.21" height="2.11" style="fill:#2c2a33"/><path d="M164.6,101.61h-6.21a.51.51,0,0,1-.51-.51V99a.51.51,0,0,1,.51-.51h6.21a.51.51,0,0,1,.51.51v2.11A.51.51,0,0,1,164.6,101.61Zm-5.7-1h5.19V99.5H158.9Z" style="fill:#1e1e1e"/><rect x="112.3" y="94.13" width="29.57" height="6.96" style="fill:#2c2a33"/><path d="M141.86,101.61H112.3a.51.51,0,0,1-.51-.51v-7a.51.51,0,0,1,.51-.51h29.57a.51.51,0,0,1,.51.51v7A.51.51,0,0,1,141.86,101.61Zm-29.06-1h28.55V94.64H112.81Z" style="fill:#1e1e1e"/><rect x="0.56" y="86.23" width="34.68" height="7.77" transform="translate(35.79 180.24) rotate(-180)" style="fill:#2c2a33"/><path d="M35.24,94.51H.56A.51.51,0,0,1,0,94V86.23a.51.51,0,0,1,.51-.51H35.24a.51.51,0,0,1,.51.51V94A.51.51,0,0,1,35.24,94.51Zm-34.17-1H34.73V86.74H1.07Z" style="fill:#1e1e1e"/><polygon points="32.69 78.46 13.06 78.46 0.56 81.01 0.62 86.23 32.69 86.23 32.69 78.46" style="fill:#2c2a33"/><path d="M32.69,86.74H.62a.51.51,0,0,1-.51-.5L0,81a.51.51,0,0,1,.41-.51L13,78H32.69a.51.51,0,0,1,.51.51v7.77A.51.51,0,0,1,32.69,86.74Zm-31.56-1H32.18V79H13.11l-12,2.45Z" style="fill:#1e1e1e"/><rect x="6.69" y="94" width="29.57" height="7.09" transform="translate(42.95 195.1) rotate(-180)" style="fill:#2c2a33"/><path d="M36.26,101.61H6.69a.51.51,0,0,1-.51-.51V94a.51.51,0,0,1,.51-.51H36.26a.51.51,0,0,1,.51.51v7.09A.51.51,0,0,1,36.26,101.61Zm-29.06-1H35.75V94.51H7.2Z" style="fill:#1e1e1e"/><rect x="89.51" y="74.72" width="26.51" height="11.47" style="fill:#232129"/><path d="M116,86.7H89.51a.51.51,0,0,1-.51-.51V74.72a.51.51,0,0,1,.51-.51H116a.51.51,0,0,1,.51.51V86.19A.51.51,0,0,1,116,86.7Zm-26-1h25.49V75.23H90Z" style="fill:#1e1e1e"/><rect x="32.58" y="74.76" width="26.51" height="11.47" style="fill:#232129"/><path d="M59.09,86.74H32.58a.51.51,0,0,1-.51-.51V74.76a.51.51,0,0,1,.51-.51H59.09a.51.51,0,0,1,.51.51V86.23A.51.51,0,0,1,59.09,86.74Zm-26-1H58.58V75.27H33.09Z" style="fill:#1e1e1e"/><rect x="32.58" y="74.76" width="24.31" height="11.47" style="fill:#2c2a33"/><path d="M56.9,86.74H32.58a.51.51,0,0,1-.51-.51V74.76a.51.51,0,0,1,.51-.51H56.9a.51.51,0,0,1,.51.51V86.23A.51.51,0,0,1,56.9,86.74Zm-23.8-1H56.39V75.27H33.09Z" style="fill:#1e1e1e"/><rect x="89.48" y="74.76" width="24.31" height="11.47" style="fill:#2c2a33"/><path d="M113.8,86.74H89.48a.51.51,0,0,1-.51-.51V74.76a.51.51,0,0,1,.51-.51H113.8a.51.51,0,0,1,.51.51V86.23A.51.51,0,0,1,113.8,86.74Zm-23.8-1h23.29V75.27H90Z" style="fill:#1e1e1e"/><polygon points="80.5 54.06 125.1 74.79 119.33 74.76 74.39 54.06 80.5 54.06" style="fill:#232129"/><path d="M125.1,75.3h0l-5.77,0a.49.49,0,0,1-.21,0L74.17,54.52a.51.51,0,0,1,.21-1H80.5a.5.5,0,0,1,.22,0l44.6,20.74a.51.51,0,0,1-.22,1Zm-5.66-1,3.33,0L80.39,54.57H76.71Z" style="fill:#1e1e1e"/><polygon points="74.39 54.06 118.98 74.79 29.79 74.79 74.39 54.06" style="fill:#2c2a33"/><path d="M119,75.3H29.79a.51.51,0,0,1-.22-1l44.6-20.74a.51.51,0,0,1,.43,0l44.6,20.74a.51.51,0,0,1-.22,1Zm-86.89-1h84.59L74.39,54.62Z" style="fill:#1e1e1e"/><polygon points="31.95 42.77 50 57.53 47.66 57.51 29.48 42.77 31.95 42.77" style="fill:#232129"/><path d="M50,58h0l-2.34,0a.51.51,0,0,1-.32-.11L29.16,43.17a.51.51,0,0,1,.32-.91H32a.51.51,0,0,1,.32.12l18,14.75A.51.51,0,0,1,50,58Zm-2.15-1h.71L31.77,43.28h-.85Z" style="fill:#1e1e1e"/><polygon points="29.48 42.77 47.52 57.53 11.44 57.53 29.48 42.77" style="fill:#2c2a33"/><path d="M47.52,58H11.44a.51.51,0,0,1-.32-.9l18-14.75a.51.51,0,0,1,.65,0l18,14.75a.51.51,0,0,1-.32.9ZM12.86,57H46.1L29.48,43.43Z" style="fill:#1e1e1e"/><polygon points="70.83 86.21 59.04 86.21 59.04 74.83 89.52 74.83 89.52 86.21 78.11 86.21 70.83 86.21" style="fill:#2c2a33"/><path d="M89.52,86.72H59a.51.51,0,0,1-.51-.51V74.82a.51.51,0,0,1,.51-.51H89.52a.51.51,0,0,1,.51.51V86.21A.51.51,0,0,1,89.52,86.72Zm-30-1H89V75.33H59.55Z" style="fill:#1e1e1e"/><line x1="56.35" y1="99.74" x2="92.93" y2="99.74" style="fill:#fff"/><path d="M92.93,100.25H56.35a.51.51,0,1,1,0-1H92.93a.51.51,0,0,1,0,1Z" style="fill:#1e1e1e"/><rect x="35.2" y="86.23" width="9.43" height="5.22" style="fill:#232129"/><path d="M44.63,92H35.2a.51.51,0,0,1-.51-.51V86.23a.51.51,0,0,1,.51-.51h9.43a.51.51,0,0,1,.51.51v5.22A.51.51,0,0,1,44.63,92Zm-8.92-1h8.41V86.74H35.71Z" style="fill:#1e1e1e"/><rect x="36.81" y="91.46" width="6.21" height="9.64" style="fill:#232129"/><path d="M43,101.61H36.81a.51.51,0,0,1-.51-.51V91.46a.51.51,0,0,1,.51-.51H43a.51.51,0,0,1,.51.51v9.64A.51.51,0,0,1,43,101.61Zm-5.7-1h5.19V92H37.32Z" style="fill:#1e1e1e"/><rect x="49.47" y="86.23" width="9.43" height="5.22" style="fill:#232129"/><path d="M58.9,92H49.47a.51.51,0,0,1-.51-.51V86.23a.51.51,0,0,1,.51-.51H58.9a.51.51,0,0,1,.51.51v5.22A.51.51,0,0,1,58.9,92Zm-8.92-1h8.41V86.74H50Z" style="fill:#1e1e1e"/><rect x="51.09" y="91.46" width="6.21" height="9.64" style="fill:#232129"/><path d="M57.29,101.61H51.09a.51.51,0,0,1-.51-.51V91.46a.51.51,0,0,1,.51-.51h6.21a.51.51,0,0,1,.51.51v9.64A.51.51,0,0,1,57.29,101.61Zm-5.7-1h5.19V92H51.6Z" style="fill:#1e1e1e"/><rect x="92.3" y="86.23" width="9.43" height="5.22" style="fill:#232129"/><path d="M101.73,92H92.3a.51.51,0,0,1-.51-.51V86.23a.51.51,0,0,1,.51-.51h9.43a.51.51,0,0,1,.51.51v5.22A.51.51,0,0,1,101.73,92Zm-8.92-1h8.41V86.74H92.81Z" style="fill:#1e1e1e"/><rect x="93.91" y="91.46" width="6.21" height="9.64" style="fill:#232129"/><path d="M100.11,101.61H93.91a.51.51,0,0,1-.51-.51V91.46a.51.51,0,0,1,.51-.51h6.21a.51.51,0,0,1,.51.51v9.64A.51.51,0,0,1,100.11,101.61Zm-5.7-1H99.6V92H94.42Z" style="fill:#1e1e1e"/><rect x="106.57" y="86.23" width="9.43" height="5.22" style="fill:#232129"/><path d="M116,92h-9.43a.51.51,0,0,1-.51-.51V86.23a.51.51,0,0,1,.51-.51H116a.51.51,0,0,1,.51.51v5.22A.51.51,0,0,1,116,92Zm-8.92-1h8.41V86.74h-8.41Z" style="fill:#1e1e1e"/><rect x="108.18" y="91.46" width="6.21" height="9.64" style="fill:#232129"/><path d="M114.39,101.61h-6.21a.51.51,0,0,1-.51-.51V91.46a.51.51,0,0,1,.51-.51h6.21a.51.51,0,0,1,.51.51v9.64A.51.51,0,0,1,114.39,101.61Zm-5.7-1h5.19V92h-5.19Z" style="fill:#1e1e1e"/><rect x="33.16" y="86.23" width="9.43" height="5.22" style="fill:#2c2a33"/><path d="M42.59,92H33.16a.51.51,0,0,1-.51-.51V86.23a.51.51,0,0,1,.51-.51h9.43a.51.51,0,0,1,.51.51v5.22A.51.51,0,0,1,42.59,92Zm-8.92-1h8.41V86.74H33.67Z" style="fill:#1e1e1e"/><rect x="34.77" y="91.46" width="6.21" height="9.64" style="fill:#2c2a33"/><path d="M41,101.61H34.77a.51.51,0,0,1-.51-.51V91.46a.51.51,0,0,1,.51-.51H41a.51.51,0,0,1,.51.51v9.64A.51.51,0,0,1,41,101.61Zm-5.7-1h5.19V92H35.28Z" style="fill:#1e1e1e"/><rect x="47.43" y="86.23" width="9.43" height="5.22" style="fill:#2c2a33"/><path d="M56.86,92H47.43a.51.51,0,0,1-.51-.51V86.23a.51.51,0,0,1,.51-.51h9.43a.51.51,0,0,1,.51.51v5.22A.51.51,0,0,1,56.86,92Zm-8.92-1h8.41V86.74H47.94Z" style="fill:#1e1e1e"/><rect x="49.05" y="91.46" width="6.21" height="9.64" style="fill:#2c2a33"/><path d="M55.25,101.61H49a.51.51,0,0,1-.51-.51V91.46a.51.51,0,0,1,.51-.51h6.21a.51.51,0,0,1,.51.51v9.64A.51.51,0,0,1,55.25,101.61Zm-5.7-1h5.19V92H49.56Z" style="fill:#1e1e1e"/><rect x="90.26" y="86.23" width="9.43" height="5.22" style="fill:#2c2a33"/><path d="M99.69,92H90.26a.51.51,0,0,1-.51-.51V86.23a.51.51,0,0,1,.51-.51h9.43a.51.51,0,0,1,.51.51v5.22A.51.51,0,0,1,99.69,92Zm-8.92-1h8.41V86.74H90.77Z" style="fill:#1e1e1e"/><rect x="91.87" y="91.46" width="6.21" height="9.64" style="fill:#2c2a33"/><path d="M98.08,101.61H91.87a.51.51,0,0,1-.51-.51V91.46a.51.51,0,0,1,.51-.51h6.21a.51.51,0,0,1,.51.51v9.64A.51.51,0,0,1,98.08,101.61Zm-5.7-1h5.19V92H92.38Z" style="fill:#1e1e1e"/><rect x="104.53" y="86.23" width="9.43" height="5.22" style="fill:#2c2a33"/><path d="M114,92h-9.43a.51.51,0,0,1-.51-.51V86.23a.51.51,0,0,1,.51-.51H114a.51.51,0,0,1,.51.51v5.22A.51.51,0,0,1,114,92Zm-8.92-1h8.41V86.74H105Z" style="fill:#1e1e1e"/><rect x="106.14" y="91.46" width="6.21" height="9.64" style="fill:#2c2a33"/><path d="M112.35,101.61h-6.21a.51.51,0,0,1-.51-.51V91.46a.51.51,0,0,1,.51-.51h6.21a.51.51,0,0,1,.51.51v9.64A.51.51,0,0,1,112.35,101.61Zm-5.7-1h5.19V92h-5.19Z" style="fill:#1e1e1e"/><rect x="67.03" y="81.49" width="7.28" height="13.61" style="fill:#36344c"/><path d="M74.3,95.61H67a.51.51,0,0,1-.51-.51V81.49A.51.51,0,0,1,67,81H74.3a.51.51,0,0,1,.51.51V95.1A.51.51,0,0,1,74.3,95.61Zm-6.77-1h6.26V82H67.54Z" style="fill:#1e1e1e"/><rect x="75.11" y="81.49" width="7.28" height="13.61" style="fill:#36344c"/><path d="M82.38,95.61H75.11a.51.51,0,0,1-.51-.51V81.49a.51.51,0,0,1,.51-.51h7.28a.51.51,0,0,1,.51.51V95.1A.51.51,0,0,1,82.38,95.61Zm-6.77-1h6.26V82H75.62Z" style="fill:#1e1e1e"/><rect x="116.08" y="74.83" width="2.54" height="3.82" style="fill:#232129"/><path d="M118.62,79.16h-2.54a.51.51,0,0,1-.51-.51V74.82a.51.51,0,0,1,.51-.51h2.54a.51.51,0,0,1,.51.51v3.82A.51.51,0,0,1,118.62,79.16Zm-2-1h1.52v-2.8h-1.52Z" style="fill:#1e1e1e"/><rect x="169.48" y="86.46" width="2.45" height="7.65" style="fill:#232129"/><path d="M171.93,94.62h-2.45a.51.51,0,0,1-.51-.51V86.46a.51.51,0,0,1,.51-.51h2.45a.51.51,0,0,1,.51.51v7.65A.51.51,0,0,1,171.93,94.62Zm-1.94-1h1.43V87H170Z" style="fill:#1e1e1e"/><rect x="20.07" y="61.99" width="5.17" height="10.35" style="fill:#36344c"/><path d="M25.24,72.85H20.07a.51.51,0,0,1-.51-.51V62a.51.51,0,0,1,.51-.51h5.17a.51.51,0,0,1,.51.51V72.34A.51.51,0,0,1,25.24,72.85Zm-4.66-1h4.15V62.5H20.58Z" style="fill:#1e1e1e"/><polygon points="254.62 57.28 282.82 85.16 226.33 85.09 251.55 57.3 254.62 57.28" style="fill:#232129"/><path d="M282.82,85.66h0l-56.49-.06a.51.51,0,0,1-.38-.85L251.17,57a.51.51,0,0,1,.37-.17l3.07,0a.39.39,0,0,1,.36.15l28.2,27.88a.51.51,0,0,1-.36.87Zm-55.34-1.08,54.09.06L254.41,57.79l-2.63,0Z" style="fill:#1e1e1e"/><rect x="231.17" y="85.32" width="46.56" height="15.67" style="fill:#232129"/><path d="M277.73,101.5H231.17a.51.51,0,0,1-.51-.51V85.32a.51.51,0,0,1,.51-.51h46.56a.51.51,0,0,1,.51.51V101A.51.51,0,0,1,277.73,101.5Zm-46-1h45.54V85.83H231.68Z" style="fill:#1e1e1e"/><rect x="266.43" y="64.67" width="4.08" height="10.7" style="fill:#232129"/><path d="M270.51,75.89h-4.08a.51.51,0,0,1-.51-.51V64.67a.51.51,0,0,1,.51-.51h4.08a.51.51,0,0,1,.51.51v10.7A.51.51,0,0,1,270.51,75.89Zm-3.57-1H270V65.18h-3.06Z" style="fill:#1e1e1e"/><rect x="263.37" y="64.67" width="4.08" height="10.7" style="fill:#36344c"/><path d="M267.45,75.89h-4.08a.51.51,0,0,1-.51-.51V64.67a.51.51,0,0,1,.51-.51h4.08a.51.51,0,0,1,.51.51v10.7A.51.51,0,0,1,267.45,75.89Zm-3.57-1h3.06V65.18h-3.06Z" style="fill:#1e1e1e"/><polygon points="251.56 57.28 279.76 85.16 223.37 85.16 251.56 57.28" style="fill:#2c2a33"/><path d="M279.76,85.66H223.37a.51.51,0,0,1-.36-.87l28.2-27.88a.51.51,0,0,1,.72,0l28.2,27.88a.51.51,0,0,1-.36.87Zm-55.15-1h53.91L251.56,58Z" style="fill:#1e1e1e"/><rect x="228.11" y="85.32" width="46.56" height="15.78" style="fill:#2c2a33"/><path d="M274.67,101.61H228.11a.51.51,0,0,1-.51-.51V85.32a.51.51,0,0,1,.51-.51h46.56a.51.51,0,0,1,.51.51V101.1A.51.51,0,0,1,274.67,101.61Zm-46-1h45.54V85.83H228.62Z" style="fill:#1e1e1e"/><rect x="238.9" y="90.6" width="7.13" height="10.49" style="fill:#36344c"/><path d="M246,101.61H238.9a.51.51,0,0,1-.51-.51V90.6a.51.51,0,0,1,.51-.51H246a.51.51,0,0,1,.51.51V101.1A.51.51,0,0,1,246,101.61Zm-6.62-1h6.11V91.11h-6.11Z" style="fill:#1e1e1e"/><rect x="248.24" y="70.04" width="7.13" height="8.49" style="fill:#36344c"/><path d="M255.37,79h-7.13a.51.51,0,0,1-.51-.51V70a.51.51,0,0,1,.51-.51h7.13a.51.51,0,0,1,.51.51v8.49A.51.51,0,0,1,255.37,79Zm-6.62-1h6.11V70.55h-6.11Z" style="fill:#1e1e1e"/><rect x="257.76" y="90.6" width="7.13" height="10.49" style="fill:#36344c"/><path d="M264.89,101.61h-7.13a.51.51,0,0,1-.51-.51V90.6a.51.51,0,0,1,.51-.51h7.13a.51.51,0,0,1,.51.51V101.1A.51.51,0,0,1,264.89,101.61Zm-6.62-1h6.11V91.11h-6.11Z" style="fill:#1e1e1e"/><circle cx="160.43" cy="13.28" r="12.64" style="fill:#232129"/><path d="M160.43,26.43a13.15,13.15,0,1,1,13.15-13.15A13.16,13.16,0,0,1,160.43,26.43Zm0-25.27a12.13,12.13,0,1,0,12.13,12.13A12.14,12.14,0,0,0,160.43,1.16Z" style="fill:#1e1e1e"/><circle cx="158.39" cy="13.28" r="12.64" style="fill:#2c2a33"/><path d="M158.39,26.43a13.15,13.15,0,1,1,13.15-13.15A13.16,13.16,0,0,1,158.39,26.43Zm0-25.27a12.13,12.13,0,1,0,12.13,12.13A12.14,12.14,0,0,0,158.39,1.16Z" style="fill:#1e1e1e"/><polyline points="156.78 11.99 155.52 7.8 152.38 16.09" style="fill:#36344c;fill-rule:evenodd"/><path d="M152.38,16.6a.52.52,0,0,1-.18,0,.51.51,0,0,1-.3-.66L155,7.62a.47.47,0,0,1,.5-.33.51.51,0,0,1,.47.36l1.25,4.19a.51.51,0,0,1-1,.29l-.82-2.75-2.61,6.88A.51.51,0,0,1,152.38,16.6Z" style="fill:#1e1e1e"/><polygon points="164.88 16.09 161.32 7.8 160.26 11.99 164.88 16.09" style="fill:#36344c;fill-rule:evenodd"/><path d="M164.88,16.6a.51.51,0,0,1-.34-.13l-4.62-4.09a.51.51,0,0,1-.16-.51l1.06-4.19a.51.51,0,0,1,.45-.38.52.52,0,0,1,.51.31l3.56,8.29a.51.51,0,0,1-.47.71Zm-4-4.78,2.68,2.38-2.07-4.81Z" style="fill:#1e1e1e"/><path d="M156.78,12c-2.21,2-4.4,4.09-4.4,4.09l6.17,2.36Z" style="fill:#36344c;fill-rule:evenodd"/><path d="M158.55,19a.5.5,0,0,1-.18,0l-6.17-2.36a.51.51,0,0,1-.17-.85s2.19-2.08,4.41-4.1a.52.52,0,0,1,.48-.11.51.51,0,0,1,.35.36L159,18.31a.51.51,0,0,1-.49.64Zm-5.23-3.06,4.47,1.71-1.28-4.68C155.22,14.12,154,15.25,153.32,15.9Z" style="fill:#1e1e1e"/><polygon points="158.55 10.48 160.26 11.99 161.32 7.8 158.55 10.48" style="fill:#36344c;fill-rule:evenodd"/><path d="M160.26,12.5a.51.51,0,0,1-.34-.13l-1.71-1.52a.51.51,0,0,1,0-.75L161,7.43a.51.51,0,0,1,.85.49l-1.06,4.19a.51.51,0,0,1-.34.36Zm-1-2,.67.59.42-1.65Z" style="fill:#1e1e1e"/><polygon points="160.26 11.99 164.88 16.09 158.55 18.45 160.26 11.99" style="fill:#36344c;fill-rule:evenodd"/><path d="M158.55,19a.51.51,0,0,1-.49-.64l1.71-6.46a.51.51,0,0,1,.83-.25l4.62,4.09a.51.51,0,0,1-.16.86l-6.33,2.36A.53.53,0,0,1,158.55,19Zm2-6-1.25,4.7,4.61-1.72Z" style="fill:#1e1e1e"/><path d="M155.52,7.8l3,2.68c-.56.52-1.17,1-1.77,1.52Z" style="fill:#36344c;fill-rule:evenodd"/><path d="M156.78,12.5l-.14,0a.51.51,0,0,1-.35-.35L155,7.94a.51.51,0,0,1,.83-.53l3,2.68a.51.51,0,0,1,0,.76c-.29.27-.59.52-.9.77s-.58.48-.87.75A.51.51,0,0,1,156.78,12.5Zm-.25-3.14.51,1.72.3-.25.43-.36Z" style="fill:#1e1e1e"/><path d="M158.55,10.48,160.26,12l-1.71,6.46L156.78,12C157.38,11.44,158,11,158.55,10.48Z" style="fill:#36344c;fill-rule:evenodd"/><path d="M158.55,19a.51.51,0,0,1-.49-.38l-1.77-6.46a.51.51,0,0,1,.15-.51c.3-.28.61-.53.91-.78s.58-.48.86-.74a.51.51,0,0,1,.68,0l1.71,1.52a.51.51,0,0,1,.15.51L159,18.58a.51.51,0,0,1-.49.38Zm-1.19-6.8,1.19,4.33,1.15-4.32-1.14-1-.55.47Z" style="fill:#1e1e1e"/><path d="M257.38,47.28h.1a2.5,2.5,0,0,1,2.5,2.5v.1a2.42,2.42,0,0,1-2.42,2.42h-.25a2.42,2.42,0,0,1-2.42-2.42v-.1a2.5,2.5,0,0,1,2.5-2.5Z" style="fill:#bc763c"/><path d="M257.51,52.81h-.16a3,3,0,0,1-3-3,3.06,3.06,0,1,1,6.12,0A3,3,0,0,1,257.51,52.81Zm-.08-5a2,2,0,0,0-2,2,2,2,0,0,0,2,2h.16a2,2,0,0,0,2-2A2,2,0,0,0,257.43,47.79Z" style="fill:#1e1e1e"/><rect x="294" y="61.17" width="5.1" height="10.32" style="fill:#bc763c"/><path d="M299.1,72H294a.51.51,0,0,1-.51-.51V61.17a.51.51,0,0,1,.51-.51h5.1a.51.51,0,0,1,.51.51V71.49A.51.51,0,0,1,299.1,72Zm-4.59-1h4.08v-9.3h-4.08Z" style="fill:#1e1e1e"/><path d="M287.2,42.43h.1a2.5,2.5,0,0,1,2.5,2.5v2.52a0,0,0,0,1,0,0h-5.1a0,0,0,0,1,0,0V44.93A2.5,2.5,0,0,1,287.2,42.43Z" style="fill:#bc763c"/><path d="M289.8,48h-5.1a.51.51,0,0,1-.51-.51V45a3.06,3.06,0,1,1,6.12,0v2.47A.51.51,0,0,1,289.8,48Zm-4.59-1h4.08V45a2,2,0,1,0-4.08,0Z" style="fill:#1e1e1e"/><rect x="294" y="96.85" width="5.1" height="4.24" style="fill:#bc763c"/><path d="M299.1,101.61H294a.51.51,0,0,1-.51-.51V96.85a.51.51,0,0,1,.51-.51h5.1a.51.51,0,0,1,.51.51v4.24A.51.51,0,0,1,299.1,101.61Zm-4.59-1h4.08V97.36h-4.08Z" style="fill:#1e1e1e"/><path d="M211.7,80a4.08,4.08,0,0,1,8.16,0Z" style="fill:#bc763c"/><path d="M219.86,80.54H211.7a.51.51,0,0,1-.51-.51,4.59,4.59,0,1,1,9.18,0A.51.51,0,0,1,219.86,80.54Zm-7.61-1h7.07a3.57,3.57,0,0,0-7.07,0Z" style="fill:#1e1e1e"/><path d="M181.11,80a4.08,4.08,0,0,1,8.16,0Z" style="fill:#bc763c"/><path d="M189.27,80.54h-8.16a.51.51,0,0,1-.51-.51,4.59,4.59,0,1,1,9.18,0A.51.51,0,0,1,189.27,80.54Zm-7.61-1h7.06a3.57,3.57,0,0,0-7.06,0Z" style="fill:#1e1e1e"/><rect x="5.3" y="53.33" width="5.1" height="10.32" style="fill:#bc763c"/><path d="M10.39,64.16H5.3a.51.51,0,0,1-.51-.51V53.33a.51.51,0,0,1,.51-.51h5.1a.51.51,0,0,1,.51.51V63.65A.51.51,0,0,1,10.39,64.16Zm-4.59-1H9.89v-9.3H5.81Z" style="fill:#1e1e1e"/><path d="M3.39,41.48h.1A2.5,2.5,0,0,1,6,44V46.5a0,0,0,0,1,0,0H.89a0,0,0,0,1,0,0V44A2.5,2.5,0,0,1,3.39,41.48Z" style="fill:#bc763c"/><path d="M6,47H.89a.51.51,0,0,1-.51-.51V44A3.06,3.06,0,1,1,6.5,44V46.5A.51.51,0,0,1,6,47ZM1.4,46H5.48V44A2,2,0,1,0,1.4,44Z" style="fill:#1e1e1e"/><rect x="121" y="61.99" width="5.17" height="10.35" style="fill:#bc763c"/><path d="M126.18,72.85H121a.51.51,0,0,1-.51-.51V62a.51.51,0,0,1,.51-.51h5.17a.51.51,0,0,1,.51.51V72.34A.51.51,0,0,1,126.18,72.85Zm-4.66-1h4.15V62.5h-4.15Z" style="fill:#1e1e1e"/><rect x="67.03" y="81.49" width="7.28" height="13.61" style="fill:#bc763c"/><path d="M74.3,95.61H67a.51.51,0,0,1-.51-.51V81.49A.51.51,0,0,1,67,81H74.3a.51.51,0,0,1,.51.51V95.1A.51.51,0,0,1,74.3,95.61Zm-6.77-1h6.26V82H67.54Z" style="fill:#1e1e1e"/><rect x="75.11" y="81.49" width="7.28" height="13.61" style="fill:#bc763c"/><path d="M82.38,95.61H75.11a.51.51,0,0,1-.51-.51V81.49a.51.51,0,0,1,.51-.51h7.28a.51.51,0,0,1,.51.51V95.1A.51.51,0,0,1,82.38,95.61Zm-6.77-1h6.26V82H75.62Z" style="fill:#1e1e1e"/><rect x="20.07" y="61.99" width="5.17" height="10.35" style="fill:#bc763c"/><path d="M25.24,72.85H20.07a.51.51,0,0,1-.51-.51V62a.51.51,0,0,1,.51-.51h5.17a.51.51,0,0,1,.51.51V72.34A.51.51,0,0,1,25.24,72.85Zm-4.66-1h4.15V62.5H20.58Z" style="fill:#1e1e1e"/><rect x="238.9" y="90.6" width="7.13" height="10.49" style="fill:#bc763c"/><path d="M246,101.61H238.9a.51.51,0,0,1-.51-.51V90.6a.51.51,0,0,1,.51-.51H246a.51.51,0,0,1,.51.51v10.5A.51.51,0,0,1,246,101.61Zm-6.62-1h6.11V91.11h-6.11Z" style="fill:#1e1e1e"/><rect x="248.24" y="70.04" width="7.13" height="8.49" style="fill:#bc763c"/><path d="M255.37,79h-7.13a.51.51,0,0,1-.51-.51V70a.51.51,0,0,1,.51-.51h7.13a.51.51,0,0,1,.51.51v8.49A.51.51,0,0,1,255.37,79Zm-6.62-1h6.11V70.55h-6.11Z" style="fill:#1e1e1e"/><polyline points="156.78 11.99 155.52 7.8 152.38 16.09" style="fill:#bc763c;fill-rule:evenodd"/><path d="M152.38,16.6a.52.52,0,0,1-.18,0,.51.51,0,0,1-.3-.66L155,7.62a.49.49,0,0,1,.5-.33.51.51,0,0,1,.47.36l1.25,4.19a.51.51,0,0,1-1,.29l-.82-2.75-2.61,6.88A.51.51,0,0,1,152.38,16.6Z" style="fill:#1e1e1e"/><polygon points="164.88 16.09 161.32 7.8 160.26 11.99 164.88 16.09" style="fill:#bc763c;fill-rule:evenodd"/><path d="M164.88,16.6a.51.51,0,0,1-.34-.13l-4.62-4.09a.51.51,0,0,1-.16-.51l1.06-4.19a.51.51,0,0,1,.45-.38.53.53,0,0,1,.51.31l3.56,8.29a.51.51,0,0,1-.47.71Zm-4-4.78,2.68,2.38-2.07-4.81Z" style="fill:#1e1e1e"/><path d="M156.78,12c-2.21,2-4.4,4.09-4.4,4.09l6.17,2.36Z" style="fill:#bc763c;fill-rule:evenodd"/><path d="M158.55,19a.5.5,0,0,1-.18,0l-6.17-2.36a.51.51,0,0,1-.17-.85s2.19-2.08,4.41-4.1a.52.52,0,0,1,.48-.11.51.51,0,0,1,.35.36L159,18.31a.51.51,0,0,1-.49.64Zm-5.23-3.06,4.47,1.71-1.28-4.68C155.22,14.12,154,15.25,153.32,15.9Z" style="fill:#1e1e1e"/><polygon points="158.55 10.48 160.26 11.99 161.32 7.8 158.55 10.48" style="fill:#bc763c;fill-rule:evenodd"/><path d="M160.26,12.5a.51.51,0,0,1-.34-.13l-1.71-1.52a.51.51,0,0,1,0-.75L161,7.43a.51.51,0,0,1,.85.49l-1.06,4.19a.51.51,0,0,1-.34.36Zm-1-2,.67.59.42-1.65Z" style="fill:#1e1e1e"/><polygon points="160.26 11.99 164.88 16.09 158.55 18.45 160.26 11.99" style="fill:#bc763c;fill-rule:evenodd"/><path d="M158.55,19a.51.51,0,0,1-.49-.64l1.71-6.46a.51.51,0,0,1,.35-.36.5.5,0,0,1,.49.11l4.62,4.09a.51.51,0,0,1-.16.86l-6.33,2.36A.53.53,0,0,1,158.55,19Zm2-6-1.25,4.7,4.61-1.72Z" style="fill:#1e1e1e"/><path d="M155.52,7.8l3,2.68c-.56.52-1.17,1-1.77,1.52Z" style="fill:#bc763c;fill-rule:evenodd"/><path d="M156.78,12.5l-.14,0a.51.51,0,0,1-.35-.35L155,7.94a.51.51,0,0,1,.83-.53l3,2.68a.51.51,0,0,1,0,.76c-.29.27-.59.52-.9.77s-.58.48-.87.75A.51.51,0,0,1,156.78,12.5Zm-.25-3.14.51,1.72.3-.25.43-.36Z" style="fill:#1e1e1e"/><path d="M158.55,10.48,160.26,12l-1.71,6.46L156.78,12C157.38,11.44,158,11,158.55,10.48Z" style="fill:#bc763c;fill-rule:evenodd"/><path d="M158.55,19a.51.51,0,0,1-.49-.38l-1.77-6.46a.51.51,0,0,1,.15-.51c.3-.28.61-.53.91-.78s.58-.48.86-.74a.51.51,0,0,1,.68,0l1.71,1.52a.51.51,0,0,1,.15.51L159,18.58a.51.51,0,0,1-.49.38Zm-1.19-6.8,1.19,4.33,1.15-4.32-1.14-1-.55.47Z" style="fill:#1e1e1e"/></g></g></svg>